<svg id="Layer_1" data-name="Layer 1" xmlns="http://www.w3.org/2000/svg" xmlns:xlink="http://www.w3.org/1999/xlink" viewBox="0 0 416.75 233.33"><defs><style>.cls-1,.cls-17{fill:none;}.cls-2{fill:#033572;}.cls-3{fill:#bdb5ab;opacity:0.51;}.cls-4,.cls-5,.cls-6,.cls-9{fill:#008782;}.cls-5{opacity:0.63;}.cls-14,.cls-6{opacity:0.34;}.cls-7{fill:#fab600;}.cls-10,.cls-11,.cls-8{fill:#008dd4;}.cls-11,.cls-17,.cls-8{stroke:#1d1d1b;stroke-miterlimit:10;}.cls-17,.cls-8{stroke-width:1.75px;}.cls-10,.cls-9{opacity:0.68;}.cls-12{fill:#1d1d1b;}.cls-13{fill:#fff;}.cls-15{fill:#f3a1c6;}.cls-16{fill:#e63812;}.cls-18{fill:#13a337;}</style><symbol id="Arrow_26" data-name="Arrow 26" viewBox="0 0 45.72 26.28"><rect class="cls-1" width="45.72" height="26.28"/><polygon class="cls-2" points="0 19.48 22.93 19.48 22.93 26.28 45.72 13.14 22.93 0 22.93 6.8 0 6.8 0 19.48"/></symbol></defs><title>NNtable_help_2</title><rect class="cls-3" x="172.47" y="8.37" width="242.85" height="20.34" rx="7.88" ry="7.88"/><rect class="cls-4" x="6.1" y="3.59" width="17.84" height="8.73" rx="3.12" ry="3.12"/><rect class="cls-5" x="28.61" y="3.59" width="17.84" height="8.73" rx="3.12" ry="3.12"/><rect class="cls-6" x="51.12" y="3.59" width="17.84" height="8.73" rx="3.12" ry="3.12"/><rect class="cls-7" x="73.63" y="3.59" width="17.84" height="8.73" rx="3.12" ry="3.12"/><line class="cls-8" x1="2.36" y1="14.5" x2="139.17" y2="14.5"/><rect class="cls-4" x="5.1" y="17.08" width="17.84" height="8.73" rx="3.12" ry="3.12"/><rect class="cls-9" x="28.61" y="17.08" width="17.84" height="8.73" rx="3.12" ry="3.12"/><rect class="cls-6" x="51.12" y="17.08" width="17.84" height="8.73" rx="3.12" ry="3.12"/><rect class="cls-10" x="73.63" y="17.08" width="17.84" height="8.73" rx="3.12" ry="3.12"/><line class="cls-11" x1="2.36" y1="28" x2="139.17" y2="28"/><rect class="cls-4" x="6.1" y="30.58" width="17.84" height="8.73" rx="3.12" ry="3.12"/><rect class="cls-9" x="28.61" y="30.58" width="17.84" height="8.73" rx="3.12" ry="3.12"/><rect class="cls-6" x="51.12" y="30.58" width="17.84" height="8.73" rx="3.12" ry="3.12"/><rect class="cls-10" x="73.63" y="30.58" width="17.84" height="8.73" rx="3.12" ry="3.12"/><line class="cls-11" x1="2.36" y1="41.49" x2="139.17" y2="41.49"/><rect class="cls-4" x="6.1" y="44.07" width="17.84" height="8.73" rx="3.12" ry="3.12"/><rect class="cls-9" x="28.61" y="44.07" width="17.84" height="8.73" rx="3.12" ry="3.12"/><rect class="cls-6" x="51.12" y="44.07" width="17.84" height="8.73" rx="3.12" ry="3.12"/><rect class="cls-10" x="73.63" y="44.07" width="17.84" height="8.73" rx="3.12" ry="3.12"/><rect class="cls-4" x="6.1" y="57.06" width="17.84" height="8.73" rx="3.12" ry="3.12"/><rect class="cls-9" x="28.61" y="57.06" width="17.84" height="8.73" rx="3.12" ry="3.12"/><rect class="cls-6" x="51.12" y="57.06" width="17.84" height="8.73" rx="3.12" ry="3.12"/><rect class="cls-10" x="73.63" y="57.06" width="17.84" height="8.73" rx="3.12" ry="3.12"/><line class="cls-11" x1="2.36" y1="67.98" x2="139.17" y2="67.98"/><rect class="cls-4" x="6.1" y="70.56" width="17.84" height="8.73" rx="3.12" ry="3.12"/><rect class="cls-9" x="28.61" y="70.56" width="17.84" height="8.73" rx="3.12" ry="3.12"/><rect class="cls-6" x="51.12" y="70.56" width="17.84" height="8.73" rx="3.12" ry="3.12"/><rect class="cls-10" x="73.63" y="70.56" width="17.84" height="8.73" rx="3.12" ry="3.12"/><line class="cls-11" x1="2.36" y1="54.93" x2="139.17" y2="54.93"/><line class="cls-11" x1="2.36" y1="81.87" x2="139.17" y2="81.87"/><rect class="cls-4" x="6.1" y="84.45" width="17.84" height="8.73" rx="3.12" ry="3.12"/><rect class="cls-9" x="28.61" y="84.45" width="17.84" height="8.73" rx="3.12" ry="3.12"/><rect class="cls-6" x="51.12" y="84.45" width="17.84" height="8.73" rx="3.12" ry="3.12"/><rect class="cls-10" x="73.63" y="84.45" width="17.84" height="8.73" rx="3.12" ry="3.12"/><line class="cls-11" x1="2.36" y1="95.36" x2="139.17" y2="95.36"/><rect class="cls-4" x="6.1" y="97.94" width="17.84" height="8.73" rx="3.12" ry="3.12"/><rect class="cls-9" x="28.61" y="97.94" width="17.84" height="8.73" rx="3.12" ry="3.12"/><rect class="cls-6" x="51.12" y="97.94" width="17.84" height="8.73" rx="3.12" ry="3.12"/><rect class="cls-10" x="73.63" y="97.94" width="17.84" height="8.73" rx="3.12" ry="3.12"/><rect class="cls-4" x="6.1" y="110.94" width="17.84" height="8.73" rx="3.12" ry="3.12"/><rect class="cls-9" x="28.61" y="110.94" width="17.84" height="8.73" rx="3.12" ry="3.12"/><rect class="cls-6" x="51.12" y="110.94" width="17.84" height="8.73" rx="3.12" ry="3.12"/><rect class="cls-10" x="73.63" y="110.94" width="17.84" height="8.73" rx="3.12" ry="3.12"/><line class="cls-11" x1="2.36" y1="121.85" x2="139.17" y2="121.85"/><rect class="cls-4" x="6.1" y="124.43" width="17.84" height="8.73" rx="3.12" ry="3.12"/><rect class="cls-9" x="28.61" y="124.43" width="17.84" height="8.73" rx="3.12" ry="3.12"/><rect class="cls-6" x="51.12" y="124.43" width="17.84" height="8.73" rx="3.12" ry="3.12"/><rect class="cls-10" x="73.63" y="124.43" width="17.84" height="8.73" rx="3.12" ry="3.12"/><line class="cls-11" x1="2.36" y1="108.81" x2="139.17" y2="108.81"/><line class="cls-11" x1="2.36" y1="136.36" x2="139.17" y2="136.36"/><rect class="cls-4" x="6.1" y="138.94" width="17.84" height="8.73" rx="3.12" ry="3.12"/><rect class="cls-9" x="28.61" y="138.94" width="17.84" height="8.73" rx="3.12" ry="3.12"/><rect class="cls-6" x="51.12" y="138.94" width="17.84" height="8.73" rx="3.12" ry="3.12"/><rect class="cls-10" x="73.63" y="138.94" width="17.84" height="8.73" rx="3.12" ry="3.12"/><path class="cls-12" d="M178.07,17.71a2.11,2.11,0,0,1,1.45.43,1.77,1.77,0,0,1,.47,1.37v3.65h-.64l-.17-.76h0a2.33,2.33,0,0,1-.74.65,2.24,2.24,0,0,1-1.06.21,1.92,1.92,0,0,1-1.21-.38,1.46,1.46,0,0,1-.48-1.21,1.41,1.41,0,0,1,.63-1.23,3.69,3.69,0,0,1,1.94-.48l.91,0v-.32a1.21,1.21,0,0,0-.29-.93,1.19,1.19,0,0,0-.82-.26,2.4,2.4,0,0,0-.8.13,6.56,6.56,0,0,0-.71.28l-.27-.66a4.64,4.64,0,0,1,.83-.32A3.72,3.72,0,0,1,178.07,17.71Zm1.05,2.83-.79,0a2.78,2.78,0,0,0-1.38.32.92.92,0,0,0-.39.79.79.79,0,0,0,.28.66,1.12,1.12,0,0,0,.7.21,1.71,1.71,0,0,0,1.13-.37,1.43,1.43,0,0,0,.45-1.16Z"/><path class="cls-12" d="M183.55,23.26a2,2,0,0,1-1.6-.69,3.13,3.13,0,0,1-.6-2.08,3.13,3.13,0,0,1,.61-2.08,2.23,2.23,0,0,1,2.62-.48,2.19,2.19,0,0,1,.64.56h.06c0-.08,0-.21,0-.38s0-.31,0-.41V15.56h.88v7.6h-.71l-.13-.72h0a2,2,0,0,1-.64.58A2,2,0,0,1,183.55,23.26Zm.14-.73a1.4,1.4,0,0,0,1.2-.46,2.36,2.36,0,0,0,.34-1.41V20.5A2.92,2.92,0,0,0,184.9,19a1.31,1.31,0,0,0-1.22-.54,1.17,1.17,0,0,0-1.06.57,2.77,2.77,0,0,0-.36,1.51,2.62,2.62,0,0,0,.36,1.49A1.19,1.19,0,0,0,183.69,22.53Z"/><path class="cls-12" d="M189.7,23.26a2,2,0,0,1-1.6-.69,3.13,3.13,0,0,1-.6-2.08,3.13,3.13,0,0,1,.61-2.08,2.23,2.23,0,0,1,2.62-.48,2.19,2.19,0,0,1,.64.56h.06c0-.08,0-.21,0-.38s0-.31,0-.41V15.56h.88v7.6h-.71l-.13-.72h0a2,2,0,0,1-.64.58A2,2,0,0,1,189.7,23.26Zm.14-.73a1.4,1.4,0,0,0,1.2-.46,2.36,2.36,0,0,0,.34-1.41V20.5a2.92,2.92,0,0,0-.33-1.53,1.31,1.31,0,0,0-1.22-.54,1.17,1.17,0,0,0-1.06.57,2.77,2.77,0,0,0-.36,1.51,2.62,2.62,0,0,0,.36,1.49A1.19,1.19,0,0,0,189.84,22.53Z"/><path class="cls-12" d="M197.17,19.39h2.47v3.5a6.65,6.65,0,0,1-1.17.28,8.92,8.92,0,0,1-1.34.09,3.72,3.72,0,0,1-1.87-.44,2.89,2.89,0,0,1-1.15-1.27,4.54,4.54,0,0,1-.4-2,4.07,4.07,0,0,1,.44-1.93,3,3,0,0,1,1.26-1.28,4,4,0,0,1,2-.46,6,6,0,0,1,1.14.11,5.47,5.47,0,0,1,1,.31l-.34.78a6.52,6.52,0,0,0-.85-.28,3.64,3.64,0,0,0-1-.13,2.57,2.57,0,0,0-2,.78,3,3,0,0,0-.72,2.1,4,4,0,0,0,.28,1.51,2.2,2.2,0,0,0,.86,1,3,3,0,0,0,1.55.36,4.61,4.61,0,0,0,.8-.05,4.54,4.54,0,0,0,.6-.12V20.19h-1.57Z"/><path class="cls-12" d="M203.73,17.7l.32,0,.31,0-.11.81-.29-.05-.29,0a1.44,1.44,0,0,0-.77.23,1.58,1.58,0,0,0-.57.63,1.89,1.89,0,0,0-.22.94v2.86h-.88V17.8H202l.1,1h0a2.68,2.68,0,0,1,.67-.76A1.55,1.55,0,0,1,203.73,17.7Z"/><path class="cls-12" d="M209.82,20.47a2.9,2.9,0,0,1-.67,2.06,2.36,2.36,0,0,1-1.83.73,2.51,2.51,0,0,1-1.26-.32,2.38,2.38,0,0,1-.88-1,3.35,3.35,0,0,1-.32-1.52,2.94,2.94,0,0,1,.67-2,2.35,2.35,0,0,1,1.82-.72,2.46,2.46,0,0,1,1.28.33,2.17,2.17,0,0,1,.88.94A3.26,3.26,0,0,1,209.82,20.47Zm-4,0a2.66,2.66,0,0,0,.38,1.51,1.56,1.56,0,0,0,2.38,0,2.58,2.58,0,0,0,.38-1.51,2.51,2.51,0,0,0-.38-1.49,1.59,1.59,0,0,0-2.39,0A2.67,2.67,0,0,0,205.77,20.47Z"/><path class="cls-12" d="M215.69,17.8v5.36H215l-.13-.71h0a1.51,1.51,0,0,1-.72.62,2.45,2.45,0,0,1-1,.19,2.06,2.06,0,0,1-1.46-.46,2,2,0,0,1-.49-1.49V17.8H212v3.45c0,.86.4,1.28,1.19,1.28a1.38,1.38,0,0,0,1.24-.5,2.51,2.51,0,0,0,.34-1.44V17.8Z"/><path class="cls-12" d="M219.94,17.7a2,2,0,0,1,1.6.69,3.11,3.11,0,0,1,.6,2.08,3.13,3.13,0,0,1-.6,2.08,2.25,2.25,0,0,1-2.63.48,1.92,1.92,0,0,1-.64-.55h-.06c0,.12,0,.26,0,.43s0,.33,0,.45v2.2h-.88V17.8h.72l.12.73h0a2.1,2.1,0,0,1,.63-.59A2,2,0,0,1,219.94,17.7Zm-.16.74a1.38,1.38,0,0,0-1.16.46,2.5,2.5,0,0,0-.35,1.4v.17A3,3,0,0,0,218.6,22a1.3,1.3,0,0,0,1.2.53,1.24,1.24,0,0,0,.8-.26,1.57,1.57,0,0,0,.48-.74,3.5,3.5,0,0,0,.15-1.07,2.76,2.76,0,0,0-.35-1.47A1.23,1.23,0,0,0,219.78,18.44Z"/><path class="cls-12" d="M225.61,17.7a2.23,2.23,0,0,1,1.18.3,1.93,1.93,0,0,1,.77.85,2.83,2.83,0,0,1,.26,1.27v.53h-3.67a2.05,2.05,0,0,0,.47,1.39,1.64,1.64,0,0,0,1.24.47,4.12,4.12,0,0,0,.91-.09,6,6,0,0,0,.81-.28v.77a4.28,4.28,0,0,1-.81.27,5.11,5.11,0,0,1-1,.08,2.8,2.8,0,0,1-1.35-.31,2.16,2.16,0,0,1-.9-.92,3.12,3.12,0,0,1-.33-1.51,3.51,3.51,0,0,1,.3-1.51,2.26,2.26,0,0,1,.83-1A2.3,2.3,0,0,1,225.61,17.7Zm0,.72a1.26,1.26,0,0,0-1,.41,1.94,1.94,0,0,0-.44,1.12h2.73a1.79,1.79,0,0,0-.32-1.1A1.11,1.11,0,0,0,225.6,18.42Z"/><path class="cls-12" d="M231.08,23.26a2,2,0,0,1-1.6-.69,3.13,3.13,0,0,1-.6-2.08,3.13,3.13,0,0,1,.61-2.08,2.23,2.23,0,0,1,2.62-.48,2.19,2.19,0,0,1,.64.56h.06c0-.08,0-.21,0-.38s0-.31,0-.41V15.56h.88v7.6h-.71l-.13-.72h0a2,2,0,0,1-.64.58A2,2,0,0,1,231.08,23.26Zm.14-.73a1.4,1.4,0,0,0,1.2-.46,2.36,2.36,0,0,0,.34-1.41V20.5a2.92,2.92,0,0,0-.33-1.53,1.31,1.31,0,0,0-1.22-.54,1.17,1.17,0,0,0-1.06.57,2.77,2.77,0,0,0-.36,1.51,2.62,2.62,0,0,0,.36,1.49A1.19,1.19,0,0,0,231.22,22.53Z"/><path class="cls-12" d="M238.51,16.71a2.28,2.28,0,0,0-1.81.77,3.15,3.15,0,0,0-.66,2.11,3.31,3.31,0,0,0,.62,2.11,2.22,2.22,0,0,0,1.84.77,4.18,4.18,0,0,0,.88-.08,7.72,7.72,0,0,0,.83-.2V23a3.82,3.82,0,0,1-.82.22,6,6,0,0,1-1,.07,3.44,3.44,0,0,1-1.82-.45,2.75,2.75,0,0,1-1.09-1.28,4.68,4.68,0,0,1-.37-2,4.25,4.25,0,0,1,.4-1.9,3,3,0,0,1,1.16-1.29,3.58,3.58,0,0,1,1.87-.47,4.33,4.33,0,0,1,2,.42l-.36.76a5.59,5.59,0,0,0-.73-.27A3.14,3.14,0,0,0,238.51,16.71Z"/><path class="cls-12" d="M246.31,20.47a2.9,2.9,0,0,1-.67,2.06,2.36,2.36,0,0,1-1.83.73,2.51,2.51,0,0,1-1.26-.32,2.38,2.38,0,0,1-.88-1,3.35,3.35,0,0,1-.32-1.52,2.89,2.89,0,0,1,.67-2,2.35,2.35,0,0,1,1.82-.72,2.46,2.46,0,0,1,1.28.33A2.17,2.17,0,0,1,246,19,3.26,3.26,0,0,1,246.31,20.47Zm-4.05,0a2.66,2.66,0,0,0,.38,1.51A1.56,1.56,0,0,0,245,22a2.58,2.58,0,0,0,.38-1.51A2.51,2.51,0,0,0,245,19a1.59,1.59,0,0,0-2.39,0A2.67,2.67,0,0,0,242.26,20.47Z"/><path class="cls-12" d="M248.58,23.16h-.88v-7.6h.88Z"/><path class="cls-12" d="M254.76,17.8v5.36H254l-.13-.71h0a1.51,1.51,0,0,1-.72.62,2.45,2.45,0,0,1-1,.19,2.06,2.06,0,0,1-1.46-.46,2,2,0,0,1-.49-1.49V17.8h.89v3.45c0,.86.4,1.28,1.19,1.28a1.38,1.38,0,0,0,1.24-.5,2.51,2.51,0,0,0,.34-1.44V17.8Z"/><path class="cls-12" d="M262.34,17.7a1.81,1.81,0,0,1,1.36.47,2.14,2.14,0,0,1,.45,1.5v3.49h-.87V19.71c0-.84-.36-1.27-1.09-1.27a1.29,1.29,0,0,0-1.11.45,2.13,2.13,0,0,0-.34,1.31v3h-.87V19.71c0-.84-.36-1.27-1.1-1.27a1.22,1.22,0,0,0-1.12.5,2.85,2.85,0,0,0-.31,1.44v2.78h-.88V17.8h.71l.13.73h.05a1.51,1.51,0,0,1,.68-.62,2,2,0,0,1,.9-.21,1.58,1.58,0,0,1,1.64.9h.05a1.77,1.77,0,0,1,.73-.68A2.39,2.39,0,0,1,262.34,17.7Z"/><path class="cls-12" d="M268.39,17.7a2,2,0,0,1,1.45.47,2,2,0,0,1,.49,1.5v3.49h-.87V19.73q0-1.29-1.2-1.29a1.4,1.4,0,0,0-1.23.5,2.64,2.64,0,0,0-.34,1.44v2.78h-.88V17.8h.71l.13.73h.05a1.6,1.6,0,0,1,.72-.62A2.32,2.32,0,0,1,268.39,17.7Z"/><path class="cls-12" d="M275.48,21.68a1.33,1.33,0,0,1-.58,1.18,2.65,2.65,0,0,1-1.56.4,4.48,4.48,0,0,1-1-.09,2.9,2.9,0,0,1-.72-.25v-.8a4.55,4.55,0,0,0,.78.3,3.2,3.2,0,0,0,.92.13,1.72,1.72,0,0,0,1-.21.69.69,0,0,0,.3-.58.59.59,0,0,0-.11-.36,1.23,1.23,0,0,0-.39-.32,8.26,8.26,0,0,0-.82-.36,6.88,6.88,0,0,1-.89-.4,1.7,1.7,0,0,1-.57-.48,1.31,1.31,0,0,1,.36-1.77,2.62,2.62,0,0,1,1.45-.37,4.47,4.47,0,0,1,.92.1,5.63,5.63,0,0,1,.79.26l-.3.7a6.56,6.56,0,0,0-.71-.24,3.17,3.17,0,0,0-.76-.1,1.53,1.53,0,0,0-.82.18.53.53,0,0,0-.29.47.58.58,0,0,0,.13.38,1.38,1.38,0,0,0,.44.3,7.11,7.11,0,0,0,.81.34,7.38,7.38,0,0,1,.87.39,1.56,1.56,0,0,1,.55.49A1.23,1.23,0,0,1,275.48,21.68Z"/><path class="cls-12" d="M276.33,20.42a7.69,7.69,0,0,1,.36-2.35A5.92,5.92,0,0,1,277.8,16h.83a7,7,0,0,0-1.05,2.07,7.65,7.65,0,0,0-.36,2.32,7.39,7.39,0,0,0,.36,2.28,6.84,6.84,0,0,0,1,2h-.82a5.58,5.58,0,0,1-1.11-2A7.57,7.57,0,0,1,276.33,20.42Z"/><path class="cls-12" d="M299,22l.07.11a11.2,11.2,0,0,1-.38,1.17q-.24.63-.48,1.17h-.65c.1-.38.19-.79.29-1.25s.17-.85.21-1.2Z"/><path class="cls-12" d="M322.43,22l.07.11a11.2,11.2,0,0,1-.38,1.17q-.24.63-.48,1.17H321c.1-.38.19-.79.29-1.25s.17-.85.21-1.2Z"/><path class="cls-12" d="M345.89,22l.07.11a11.2,11.2,0,0,1-.38,1.17q-.24.63-.48,1.17h-.65c.09-.38.19-.79.29-1.25s.16-.85.21-1.2Z"/><path class="cls-12" d="M352.74,17.7a2,2,0,0,1,1.45.47,2,2,0,0,1,.49,1.5v3.49h-.87V19.73q0-1.29-1.2-1.29a1.4,1.4,0,0,0-1.23.5,2.56,2.56,0,0,0-.34,1.44v2.78h-.88V17.8h.71l.13.73h.05a1.51,1.51,0,0,1,.72-.62A2.32,2.32,0,0,1,352.74,17.7Z"/><path class="cls-12" d="M358.37,17.71a2.13,2.13,0,0,1,1.45.43,1.8,1.8,0,0,1,.47,1.37v3.65h-.64l-.17-.76h0a2.33,2.33,0,0,1-.74.65,2.24,2.24,0,0,1-1.06.21,1.9,1.9,0,0,1-1.21-.38,1.46,1.46,0,0,1-.48-1.21,1.41,1.41,0,0,1,.63-1.23,3.69,3.69,0,0,1,1.94-.48l.91,0v-.32a1.25,1.25,0,0,0-.29-.93,1.2,1.2,0,0,0-.82-.26,2.36,2.36,0,0,0-.8.13,6.56,6.56,0,0,0-.71.28l-.27-.66a4.36,4.36,0,0,1,.83-.32A3.66,3.66,0,0,1,358.37,17.71Zm1.05,2.83-.79,0a2.71,2.71,0,0,0-1.38.32.92.92,0,0,0-.39.79.76.76,0,0,0,.28.66,1.1,1.1,0,0,0,.7.21,1.73,1.73,0,0,0,1.13-.37,1.43,1.43,0,0,0,.45-1.16Z"/><path class="cls-12" d="M367.83,17.7a1.81,1.81,0,0,1,1.36.47,2.14,2.14,0,0,1,.45,1.5v3.49h-.87V19.71c0-.84-.36-1.27-1.09-1.27a1.29,1.29,0,0,0-1.11.45,2.13,2.13,0,0,0-.34,1.31v3h-.87V19.71c0-.84-.37-1.27-1.1-1.27a1.22,1.22,0,0,0-1.12.5,2.75,2.75,0,0,0-.31,1.44v2.78H362V17.8h.71l.13.73h0a1.51,1.51,0,0,1,.68-.62,2,2,0,0,1,.9-.21,1.58,1.58,0,0,1,1.64.9h.05a1.71,1.71,0,0,1,.73-.68A2.39,2.39,0,0,1,367.83,17.7Z"/><path class="cls-12" d="M373.37,17.7a2.25,2.25,0,0,1,1.18.3,2,2,0,0,1,.77.85,3,3,0,0,1,.26,1.27v.53h-3.67a2,2,0,0,0,.47,1.39,1.63,1.63,0,0,0,1.24.47,4.19,4.19,0,0,0,.91-.09,6,6,0,0,0,.81-.28v.77a4.28,4.28,0,0,1-.81.27,5.19,5.19,0,0,1-.95.08,2.8,2.8,0,0,1-1.35-.31,2.06,2.06,0,0,1-.9-.92,3.12,3.12,0,0,1-.33-1.51,3.51,3.51,0,0,1,.3-1.51,2.2,2.2,0,0,1,.83-1A2.3,2.3,0,0,1,373.37,17.7Zm0,.72a1.26,1.26,0,0,0-1,.41,1.87,1.87,0,0,0-.44,1.12h2.73a1.86,1.86,0,0,0-.32-1.1A1.12,1.12,0,0,0,373.36,18.42Z"/><path class="cls-12" d="M379.29,19v-.71h4.58V19Zm0,2v-.71h4.58V21Z"/><path class="cls-12" d="M413.07,20.42a7.87,7.87,0,0,1-.35,2.33,5.6,5.6,0,0,1-1.12,2h-.82a7.11,7.11,0,0,0,1.05-2,7.69,7.69,0,0,0,.35-2.28,8,8,0,0,0-.35-2.32A7,7,0,0,0,410.77,16h.83a6,6,0,0,1,1.12,2.05A8,8,0,0,1,413.07,20.42Z"/><path class="cls-13" d="M17.27,11.29l-.86-2.21H13.58l-.85,2.21h-.91l2.79-7.17h.81l2.78,7.17Zm-1.13-3-.8-2.16-.1-.29c0-.14-.09-.28-.13-.43S15,5.13,15,5.05c-.05.21-.11.41-.16.61s-.11.35-.15.46l-.81,2.16Z"/><path class="cls-13" d="M35.67,4.34h2a4.05,4.05,0,0,1,2,.4,1.45,1.45,0,0,1,.69,1.37,1.6,1.6,0,0,1-.35,1,1.67,1.67,0,0,1-1,.53v0a2.58,2.58,0,0,1,.81.27,1.44,1.44,0,0,1,.58.54,1.71,1.71,0,0,1,.21.9A1.78,1.78,0,0,1,40,11a2.85,2.85,0,0,1-1.81.53H35.67Zm.9,3h1.32a1.93,1.93,0,0,0,1.25-.3,1.07,1.07,0,0,0,.35-.87.91.91,0,0,0-.42-.84,2.59,2.59,0,0,0-1.32-.26H36.57Zm0,.75v2.59H38a1.84,1.84,0,0,0,1.32-.37,1.3,1.3,0,0,0,.37-1,1.14,1.14,0,0,0-.39-.9,2.05,2.05,0,0,0-1.37-.35Z"/><path class="cls-13" d="M60.56,5.28a2.28,2.28,0,0,0-1.82.77,3.22,3.22,0,0,0-.66,2.12,3.3,3.3,0,0,0,.62,2.1,2.19,2.19,0,0,0,1.84.77,4.34,4.34,0,0,0,.89-.08c.27-.05.55-.12.83-.2v.78a4.07,4.07,0,0,1-.83.22,6,6,0,0,1-1,.07,3.37,3.37,0,0,1-1.81-.45,2.71,2.71,0,0,1-1.1-1.28,4.85,4.85,0,0,1-.36-1.95,4.39,4.39,0,0,1,.39-1.9A3,3,0,0,1,58.69,5a3.58,3.58,0,0,1,1.87-.47,4.21,4.21,0,0,1,2,.43l-.35.75a6.36,6.36,0,0,0-.74-.27A3.12,3.12,0,0,0,60.56,5.28Z"/><path class="cls-13" d="M86.58,7.84a3.54,3.54,0,0,1-1,2.73,3.86,3.86,0,0,1-2.74.91h-2V4.34h2.2a4,4,0,0,1,1.86.4,2.86,2.86,0,0,1,1.23,1.18A4,4,0,0,1,86.58,7.84Zm-1,0a2.75,2.75,0,0,0-.71-2.09,2.75,2.75,0,0,0-2-.67H81.76v5.6h1C84.66,10.71,85.63,9.76,85.63,7.87Z"/><rect class="cls-4" x="279.5" y="14.93" width="15.62" height="10.42" rx="4.37" ry="4.37"/><path class="cls-13" d="M289.24,24.07l-.86-2.21h-2.83l-.85,2.21h-.91l2.79-7.17h.81l2.78,7.17Zm-1.13-3-.8-2.16-.1-.29c0-.14-.09-.29-.13-.44s-.08-.26-.11-.34c-.05.2-.11.41-.16.6s-.11.35-.15.47l-.81,2.16Z"/><rect class="cls-9" x="302.14" y="14.93" width="15.62" height="10.42" rx="4.37" ry="4.37"/><path class="cls-13" d="M307.76,16.62h2a4.05,4.05,0,0,1,2,.4,1.44,1.44,0,0,1,.69,1.37,1.51,1.51,0,0,1-.35,1,1.63,1.63,0,0,1-1,.54V20a2.73,2.73,0,0,1,.82.27,1.35,1.35,0,0,1,.57.54,1.71,1.71,0,0,1,.21.9,1.83,1.83,0,0,1-.66,1.5,2.88,2.88,0,0,1-1.82.53h-2.51Zm.9,3H310a2,2,0,0,0,1.26-.3,1.07,1.07,0,0,0,.34-.87.93.93,0,0,0-.41-.85,2.65,2.65,0,0,0-1.33-.25h-1.18Zm0,.75V23h1.44a1.86,1.86,0,0,0,1.32-.37,1.3,1.3,0,0,0,.37-1,1.18,1.18,0,0,0-.38-.91,2.11,2.11,0,0,0-1.38-.34Z"/><g class="cls-14"><rect class="cls-4" x="326.7" y="14.93" width="15.62" height="10.42" rx="4.37" ry="4.37"/><path class="cls-13" d="M334.83,17.74a2.28,2.28,0,0,0-1.81.77,3.17,3.17,0,0,0-.66,2.12,3.3,3.3,0,0,0,.62,2.1,2.19,2.19,0,0,0,1.84.77,4.18,4.18,0,0,0,.88-.08,7.72,7.72,0,0,0,.83-.2V24a3.82,3.82,0,0,1-.82.22,6,6,0,0,1-1,.07,3.44,3.44,0,0,1-1.82-.45,2.75,2.75,0,0,1-1.09-1.28,4.68,4.68,0,0,1-.37-1.95,4.25,4.25,0,0,1,.4-1.9A3,3,0,0,1,333,17.42a3.58,3.58,0,0,1,1.87-.47,4.21,4.21,0,0,1,2,.43l-.36.75a5.59,5.59,0,0,0-.73-.27A3.14,3.14,0,0,0,334.83,17.74Z"/></g><use id="Arrow_26-3" data-name="Arrow 26" width="45.72" height="26.28" transform="matrix(0, 0.47, -0.51, 0, 292.47, 35.65)" xlink:href="#Arrow_26"/><rect class="cls-15" x="387.02" y="14.93" width="21.86" height="10.42" rx="4.37" ry="4.37"/><rect class="cls-16" x="96.14" y="3.53" width="17.84" height="8.73" rx="3.12" ry="3.12"/><rect class="cls-10" x="96.14" y="17.02" width="17.84" height="8.73" rx="3.12" ry="3.12"/><rect class="cls-10" x="96.14" y="30.52" width="17.84" height="8.73" rx="3.12" ry="3.12"/><rect class="cls-10" x="96.14" y="44.01" width="17.84" height="8.73" rx="3.12" ry="3.12"/><rect class="cls-10" x="96.14" y="57.01" width="17.84" height="8.73" rx="3.12" ry="3.12"/><rect class="cls-10" x="96.14" y="70.5" width="17.84" height="8.73" rx="3.12" ry="3.12"/><rect class="cls-10" x="96.14" y="84.39" width="17.84" height="8.73" rx="3.12" ry="3.12"/><rect class="cls-10" x="96.14" y="97.89" width="17.84" height="8.73" rx="3.12" ry="3.12"/><rect class="cls-10" x="96.14" y="110.88" width="17.84" height="8.73" rx="3.12" ry="3.12"/><rect class="cls-10" x="96.14" y="124.37" width="17.84" height="8.73" rx="3.12" ry="3.12"/><rect class="cls-10" x="96.14" y="138.88" width="17.84" height="8.73" rx="3.12" ry="3.12"/><path class="cls-13" d="M106.56,11.42h-4V4.28h4v.79h-3.09V7.3h2.91v.78h-2.91v2.55h3.09Z"/><line class="cls-8" x1="172.47" y1="67.3" x2="410.09" y2="67.3"/><line class="cls-17" x1="172.47" y1="89.08" x2="410.09" y2="89.08"/><line class="cls-17" x1="172.47" y1="226.53" x2="410.09" y2="226.53"/><rect class="cls-15" x="173.99" y="74.12" width="81.73" height="8.75" rx="4.37" ry="4.37"/><rect class="cls-4" x="173.73" y="93.53" width="157.07" height="8.75" rx="4.37" ry="4.37"/><rect class="cls-5" x="190.66" y="105.53" width="64.8" height="8.75" rx="4.37" ry="4.37"/><rect class="cls-6" x="209.65" y="117.53" width="45.81" height="8.75" rx="4.37" ry="4.37"/><rect class="cls-6" x="209.65" y="129.53" width="45.81" height="8.75" rx="4.37" ry="4.37"/><rect class="cls-5" x="190.66" y="141.53" width="64.8" height="8.75" rx="4.37" ry="4.37"/><rect class="cls-6" x="209.65" y="153.53" width="45.81" height="8.75" rx="4.37" ry="4.37"/><rect class="cls-4" x="173.73" y="177.53" width="207.66" height="8.75" rx="4.37" ry="4.37"/><rect class="cls-5" x="190.66" y="189.53" width="64.8" height="8.75" rx="4.37" ry="4.37"/><rect class="cls-6" x="209.65" y="201.53" width="45.81" height="8.75" rx="4.37" ry="4.37"/><rect class="cls-6" x="209.65" y="213.53" width="45.81" height="8.75" rx="4.37" ry="4.37"/><rect class="cls-10" x="278.48" y="105.53" width="28.35" height="8.75" rx="4.37" ry="4.37"/><rect class="cls-10" x="328.55" y="105.53" width="28.35" height="8.75" rx="4.37" ry="4.37"/><rect class="cls-10" x="378.55" y="105.53" width="28.35" height="8.75" rx="4.37" ry="4.37"/><rect class="cls-10" x="278.48" y="117.53" width="28.35" height="8.75" rx="4.37" ry="4.37"/><rect class="cls-10" x="328.55" y="117.53" width="28.35" height="8.75" rx="4.37" ry="4.37"/><rect class="cls-10" x="378.55" y="117.53" width="28.35" height="8.75" rx="4.37" ry="4.37"/><rect class="cls-10" x="278.48" y="129.53" width="28.35" height="8.75" rx="4.37" ry="4.37"/><rect class="cls-10" x="328.55" y="129.53" width="28.35" height="8.75" rx="4.37" ry="4.37"/><rect class="cls-10" x="378.55" y="129.53" width="28.35" height="8.75" rx="4.37" ry="4.37"/><rect class="cls-10" x="278.48" y="141.53" width="28.35" height="8.75" rx="4.37" ry="4.37"/><rect class="cls-10" x="328.55" y="141.53" width="28.35" height="8.75" rx="4.37" ry="4.37"/><rect class="cls-10" x="378.55" y="141.53" width="28.35" height="8.75" rx="4.37" ry="4.37"/><rect class="cls-10" x="278.48" y="153.53" width="28.35" height="8.75" rx="4.37" ry="4.37"/><rect class="cls-10" x="328.55" y="153.53" width="28.35" height="8.75" rx="4.37" ry="4.37"/><rect class="cls-10" x="378.55" y="153.53" width="28.35" height="8.75" rx="4.37" ry="4.37"/><rect class="cls-10" x="278.48" y="189.53" width="28.35" height="8.75" rx="4.37" ry="4.37"/><rect class="cls-10" x="328.55" y="189.53" width="28.35" height="8.75" rx="4.37" ry="4.37"/><rect class="cls-10" x="378.55" y="189.53" width="28.35" height="8.75" rx="4.37" ry="4.37"/><rect class="cls-10" x="278.48" y="201.53" width="28.35" height="8.75" rx="4.37" ry="4.37"/><rect class="cls-10" x="328.55" y="201.53" width="28.35" height="8.75" rx="4.37" ry="4.37"/><rect class="cls-10" x="378.55" y="201.53" width="28.35" height="8.75" rx="4.37" ry="4.37"/><rect class="cls-10" x="278.48" y="213.53" width="28.35" height="8.75" rx="4.37" ry="4.37"/><rect class="cls-10" x="328.55" y="213.53" width="28.35" height="8.75" rx="4.37" ry="4.37"/><rect class="cls-10" x="378.55" y="213.53" width="28.35" height="8.75" rx="4.37" ry="4.37"/><rect class="cls-18" x="118.65" y="3.51" width="17.84" height="8.73" rx="3.12" ry="3.12"/><rect class="cls-10" x="118.65" y="17" width="17.84" height="8.73" rx="3.12" ry="3.12"/><rect class="cls-10" x="118.65" y="30.5" width="17.84" height="8.73" rx="3.12" ry="3.12"/><rect class="cls-10" x="118.65" y="43.99" width="17.84" height="8.73" rx="3.12" ry="3.12"/><rect class="cls-10" x="118.65" y="56.98" width="17.84" height="8.73" rx="3.12" ry="3.12"/><rect class="cls-10" x="118.65" y="70.48" width="17.84" height="8.73" rx="3.12" ry="3.12"/><rect class="cls-10" x="118.65" y="84.37" width="17.84" height="8.73" rx="3.12" ry="3.12"/><rect class="cls-10" x="118.65" y="97.86" width="17.84" height="8.73" rx="3.12" ry="3.12"/><rect class="cls-10" x="118.65" y="110.86" width="17.84" height="8.73" rx="3.12" ry="3.12"/><rect class="cls-10" x="118.65" y="124.35" width="17.84" height="8.73" rx="3.12" ry="3.12"/><rect class="cls-10" x="118.65" y="138.86" width="17.84" height="8.73" rx="3.12" ry="3.12"/><path class="cls-13" d="M126,11.4h-.9V4.26h4v.79H126V7.58h2.9v.79H126Z"/><rect class="cls-7" x="278.48" y="74.12" width="28.35" height="8.75" rx="4.37" ry="4.37"/><path class="cls-13" d="M295.67,78.52a2.86,2.86,0,0,1-.79,2.18,3.11,3.11,0,0,1-2.2.73h-1.59V75.72h1.76a3.31,3.31,0,0,1,1.49.32,2.23,2.23,0,0,1,1,.94A3.16,3.16,0,0,1,295.67,78.52Zm-.76,0a2.18,2.18,0,0,0-.57-1.67,2.2,2.2,0,0,0-1.59-.54h-.94v4.48h.78A2,2,0,0,0,294.91,78.54Z"/><rect class="cls-16" x="328.55" y="74.12" width="28.35" height="8.75" rx="4.37" ry="4.37"/><path class="cls-13" d="M344.79,81.18H341.6V75.46h3.19v.64h-2.47v1.78h2.33v.62h-2.33v2h2.47Z"/><rect class="cls-18" x="378.62" y="74.12" width="28.35" height="8.75" rx="4.37" ry="4.37"/><path class="cls-13" d="M391.33,81.18h-.72V75.46h3.19v.64h-2.47v2h2.32v.63h-2.32Z"/><use id="Arrow_26-6" data-name="Arrow 26" width="45.72" height="26.28" transform="translate(144.81 12.8) scale(0.47 0.51)" xlink:href="#Arrow_26"/><rect class="cls-4" x="6.1" y="154.14" width="17.84" height="8.73" rx="3.12" ry="3.12"/><rect class="cls-9" x="28.61" y="154.14" width="17.84" height="8.73" rx="3.12" ry="3.12"/><rect class="cls-6" x="51.12" y="154.14" width="17.84" height="8.73" rx="3.12" ry="3.12"/><rect class="cls-10" x="73.63" y="154.14" width="17.84" height="8.73" rx="3.12" ry="3.12"/><line class="cls-11" x1="2.36" y1="165.06" x2="139.17" y2="165.06"/><rect class="cls-4" x="6.1" y="167.64" width="17.84" height="8.73" rx="3.12" ry="3.12"/><rect class="cls-9" x="28.61" y="167.64" width="17.84" height="8.73" rx="3.12" ry="3.12"/><rect class="cls-6" x="51.12" y="167.64" width="17.84" height="8.73" rx="3.12" ry="3.12"/><rect class="cls-10" x="73.63" y="167.64" width="17.84" height="8.73" rx="3.12" ry="3.12"/><line class="cls-11" x1="2.36" y1="178.95" x2="139.17" y2="178.95"/><rect class="cls-4" x="6.1" y="181.53" width="17.84" height="8.73" rx="3.12" ry="3.12"/><rect class="cls-9" x="28.61" y="181.53" width="17.84" height="8.73" rx="3.12" ry="3.12"/><rect class="cls-6" x="51.12" y="181.53" width="17.84" height="8.73" rx="3.12" ry="3.12"/><rect class="cls-10" x="73.63" y="181.53" width="17.84" height="8.73" rx="3.12" ry="3.12"/><line class="cls-11" x1="2.36" y1="192.44" x2="139.17" y2="192.44"/><rect class="cls-4" x="6.1" y="195.02" width="17.84" height="8.73" rx="3.12" ry="3.12"/><rect class="cls-9" x="28.61" y="195.02" width="17.84" height="8.73" rx="3.12" ry="3.12"/><rect class="cls-6" x="51.12" y="195.02" width="17.84" height="8.73" rx="3.12" ry="3.12"/><rect class="cls-10" x="73.63" y="195.02" width="17.84" height="8.73" rx="3.12" ry="3.12"/><rect class="cls-4" x="6.1" y="208.02" width="17.84" height="8.73" rx="3.12" ry="3.12"/><rect class="cls-9" x="28.61" y="208.02" width="17.84" height="8.73" rx="3.12" ry="3.12"/><rect class="cls-6" x="51.12" y="208.02" width="17.84" height="8.73" rx="3.12" ry="3.12"/><rect class="cls-10" x="73.63" y="208.02" width="17.84" height="8.73" rx="3.12" ry="3.12"/><line class="cls-11" x1="2.36" y1="218.93" x2="139.17" y2="218.93"/><rect class="cls-4" x="6.1" y="221.51" width="17.84" height="8.73" rx="3.12" ry="3.12"/><rect class="cls-9" x="28.61" y="221.51" width="17.84" height="8.73" rx="3.12" ry="3.12"/><rect class="cls-6" x="51.12" y="221.51" width="17.84" height="8.73" rx="3.12" ry="3.12"/><rect class="cls-10" x="73.63" y="221.51" width="17.84" height="8.73" rx="3.12" ry="3.12"/><line class="cls-11" x1="2.36" y1="205.88" x2="139.17" y2="205.88"/><rect class="cls-10" x="96.14" y="154.08" width="17.84" height="8.73" rx="3.12" ry="3.12"/><rect class="cls-10" x="96.14" y="167.58" width="17.84" height="8.73" rx="3.12" ry="3.12"/><rect class="cls-10" x="96.14" y="181.47" width="17.84" height="8.73" rx="3.12" ry="3.12"/><rect class="cls-10" x="96.14" y="194.96" width="17.84" height="8.73" rx="3.12" ry="3.12"/><rect class="cls-10" x="96.14" y="207.96" width="17.84" height="8.73" rx="3.12" ry="3.12"/><rect class="cls-10" x="96.14" y="221.45" width="17.84" height="8.73" rx="3.12" ry="3.12"/><rect class="cls-10" x="118.65" y="154.06" width="17.84" height="8.73" rx="3.12" ry="3.12"/><rect class="cls-10" x="118.65" y="167.56" width="17.84" height="8.73" rx="3.12" ry="3.12"/><rect class="cls-10" x="118.65" y="181.45" width="17.84" height="8.73" rx="3.12" ry="3.12"/><rect class="cls-10" x="118.65" y="194.94" width="17.84" height="8.73" rx="3.12" ry="3.12"/><rect class="cls-10" x="118.65" y="207.94" width="17.84" height="8.73" rx="3.12" ry="3.12"/><rect class="cls-10" x="118.65" y="221.43" width="17.84" height="8.73" rx="3.12" ry="3.12"/><line class="cls-11" x1="2.36" y1="150.87" x2="139.17" y2="150.87"/><path class="cls-13" d="M15.19,24.07l-.6-1.55h-2L12,24.07h-.64l1.95-5h.57l1.95,5ZM14.4,22l-.56-1.51a1.67,1.67,0,0,0-.07-.2l-.09-.31c0-.1-.06-.18-.08-.24,0,.15-.07.29-.11.43s-.07.24-.1.32L12.82,22Z"/><path class="cls-13" d="M18.35,24.07h-.6V20.58c0-.2,0-.37,0-.49s0-.24,0-.37l-.21.18-.23.2-.53.43-.32-.41,1.35-1.05h.51Z"/><path class="cls-13" d="M15.19,37.24l-.6-1.55h-2L12,37.24h-.64l1.95-5h.57l1.95,5Zm-.79-2.11-.56-1.51a1.64,1.64,0,0,0-.07-.21l-.09-.3a2.18,2.18,0,0,0-.08-.24c0,.14-.07.28-.11.42s-.07.25-.1.33l-.57,1.51Z"/><path class="cls-13" d="M18.35,37.24h-.6v-3.5c0-.2,0-.36,0-.48s0-.25,0-.38l-.21.19-.23.2-.53.43-.32-.41,1.35-1h.51Z"/><path class="cls-13" d="M34,19.07h1.42a3,3,0,0,1,1.42.28,1,1,0,0,1,.48,1A1.09,1.09,0,0,1,37,21a1.17,1.17,0,0,1-.71.38v0a2,2,0,0,1,.57.19,1,1,0,0,1,.4.38,1.18,1.18,0,0,1,.15.63A1.28,1.28,0,0,1,37,23.7a2,2,0,0,1-1.27.37H34Zm.63,2.13h.92a1.38,1.38,0,0,0,.88-.21.75.75,0,0,0,.24-.61.65.65,0,0,0-.29-.59,1.81,1.81,0,0,0-.93-.18h-.82Zm0,.52v1.82h1a1.31,1.31,0,0,0,.93-.26.93.93,0,0,0,.26-.68.8.8,0,0,0-.27-.63,1.47,1.47,0,0,0-1-.25Z"/><path class="cls-13" d="M40.33,24.07h-.61V20.58c0-.2,0-.36,0-.49s0-.24,0-.37l-.2.19-.23.19-.53.44-.33-.42,1.35-1.05h.52Z"/><path class="cls-13" d="M34,32.24h1.43a2.88,2.88,0,0,1,1.42.28,1,1,0,0,1,.48,1,1.08,1.08,0,0,1-.25.73,1.11,1.11,0,0,1-.7.37v0a2,2,0,0,1,.57.19,1,1,0,0,1,.4.37,1.22,1.22,0,0,1,.15.63,1.25,1.25,0,0,1-.47,1,2,2,0,0,1-1.27.38H34Zm.63,2.13h.93a1.38,1.38,0,0,0,.88-.21.76.76,0,0,0,.24-.61.63.63,0,0,0-.29-.59,1.84,1.84,0,0,0-.93-.18h-.83Zm0,.52V36.7h1a1.28,1.28,0,0,0,.93-.26.9.9,0,0,0,.26-.67.81.81,0,0,0-.27-.64,1.48,1.48,0,0,0-1-.24Z"/><path class="cls-13" d="M40.32,37.24h-.6v-3.5c0-.2,0-.36,0-.48s0-.25,0-.38a1.2,1.2,0,0,1-.21.19l-.22.2-.54.43-.32-.41,1.35-1h.51Z"/><path class="cls-13" d="M58.27,32.72a1.58,1.58,0,0,0-1.27.54,2.24,2.24,0,0,0-.46,1.48A2.34,2.34,0,0,0,57,36.21a1.56,1.56,0,0,0,1.29.54,4.1,4.1,0,0,0,.62,0l.58-.14v.54a3.83,3.83,0,0,1-.58.16,4.63,4.63,0,0,1-.71.05A2.37,2.37,0,0,1,56.9,37a2,2,0,0,1-.77-.9,3.34,3.34,0,0,1-.25-1.36,3.1,3.1,0,0,1,.27-1.33,2.13,2.13,0,0,1,.82-.91,2.54,2.54,0,0,1,1.31-.32,3.12,3.12,0,0,1,1.38.29l-.25.53a5.19,5.19,0,0,0-.52-.19A2.39,2.39,0,0,0,58.27,32.72Z"/><path class="cls-13" d="M62.37,37.24h-.6v-3.5c0-.2,0-.36,0-.48s0-.25,0-.38a1.71,1.71,0,0,1-.21.19l-.22.2-.54.43-.32-.41,1.35-1h.51Z"/><path class="cls-13" d="M15.19,50.24l-.6-1.55h-2L12,50.24h-.64l1.95-5h.57l1.95,5Zm-.79-2.11-.56-1.51a1.64,1.64,0,0,0-.07-.21l-.09-.3a2.18,2.18,0,0,0-.08-.24c0,.14-.07.28-.11.42s-.07.25-.1.33l-.57,1.51Z"/><path class="cls-13" d="M18.35,50.24h-.6v-3.5c0-.2,0-.36,0-.48s0-.25,0-.38l-.21.19-.23.2-.53.43-.32-.41,1.35-1h.51Z"/><path class="cls-13" d="M34,45.24h1.42a2.85,2.85,0,0,1,1.42.28,1,1,0,0,1,.48,1,1.13,1.13,0,0,1-.24.73,1.16,1.16,0,0,1-.71.37v0a2,2,0,0,1,.57.19,1,1,0,0,1,.4.37,1.22,1.22,0,0,1,.15.63,1.25,1.25,0,0,1-.47,1,2,2,0,0,1-1.27.38H34Zm.63,2.13h.92a1.38,1.38,0,0,0,.88-.21.76.76,0,0,0,.24-.61.63.63,0,0,0-.29-.59,1.81,1.81,0,0,0-.93-.18h-.82Zm0,.52V49.7h1a1.26,1.26,0,0,0,.93-.26.9.9,0,0,0,.26-.67.81.81,0,0,0-.27-.64,1.48,1.48,0,0,0-1-.24Z"/><path class="cls-13" d="M40.33,50.24h-.61v-3.5c0-.2,0-.36,0-.48s0-.25,0-.38a1.7,1.7,0,0,1-.2.19c-.07,0-.14.12-.23.2l-.53.43-.33-.41,1.35-1h.52Z"/><path class="cls-13" d="M58.27,45.72a1.58,1.58,0,0,0-1.27.54,2.24,2.24,0,0,0-.46,1.48A2.34,2.34,0,0,0,57,49.21a1.56,1.56,0,0,0,1.29.54,4.1,4.1,0,0,0,.62,0l.58-.14v.54a3.83,3.83,0,0,1-.58.16,4.63,4.63,0,0,1-.71.05A2.37,2.37,0,0,1,56.9,50a2,2,0,0,1-.77-.9,3.34,3.34,0,0,1-.25-1.36,3.1,3.1,0,0,1,.27-1.33,2.13,2.13,0,0,1,.82-.91,2.54,2.54,0,0,1,1.31-.32,3.12,3.12,0,0,1,1.38.29l-.25.53a5.19,5.19,0,0,0-.52-.19A2.39,2.39,0,0,0,58.27,45.72Z"/><path class="cls-13" d="M63.54,50.24H60.23v-.52l1.31-1.32c.25-.25.46-.47.63-.67a2.6,2.6,0,0,0,.4-.57,1.45,1.45,0,0,0,.13-.63.78.78,0,0,0-.24-.62.92.92,0,0,0-.64-.22,1.55,1.55,0,0,0-.64.13,2.46,2.46,0,0,0-.56.35l-.33-.41a2.53,2.53,0,0,1,.67-.42,2.16,2.16,0,0,1,.86-.17,1.61,1.61,0,0,1,1.11.36,1.21,1.21,0,0,1,.4,1,1.66,1.66,0,0,1-.16.73,3.08,3.08,0,0,1-.45.68,8.53,8.53,0,0,1-.67.71l-1,1v0h2.53Z"/><path class="cls-13" d="M15.19,64l-.6-1.54h-2L12,64h-.63l1.95-5h.57l1.94,5Zm-.79-2.1-.56-1.51a1.64,1.64,0,0,0-.07-.21l-.09-.3a2.18,2.18,0,0,0-.08-.24c0,.14-.07.28-.11.42s-.07.25-.1.33l-.57,1.51Z"/><path class="cls-13" d="M18.35,64h-.6V60.48c0-.2,0-.36,0-.48s0-.25,0-.38l-.21.19-.23.2-.53.43L16.49,60,17.84,59h.51Z"/><path class="cls-13" d="M15.19,77.14l-.6-1.55h-2L12,77.14h-.63l1.95-5h.57l1.94,5ZM14.4,75l-.56-1.51s0-.1-.07-.2L13.68,73c0-.1-.06-.18-.08-.24,0,.15-.07.29-.11.43s-.07.24-.1.32L12.82,75Z"/><path class="cls-13" d="M18.35,77.14h-.6V73.65c0-.2,0-.36,0-.48s0-.25,0-.38l-.21.19-.23.19-.53.44-.32-.42,1.35-1h.51Z"/><path class="cls-13" d="M34,59h1.43a2.88,2.88,0,0,1,1.42.28,1,1,0,0,1,.48,1A1.08,1.08,0,0,1,37,61a1.11,1.11,0,0,1-.7.37v0a1.74,1.74,0,0,1,.57.19,1,1,0,0,1,.4.37,1.22,1.22,0,0,1,.15.63A1.25,1.25,0,0,1,37,63.6a2,2,0,0,1-1.27.37H34Zm.63,2.12h.93a1.39,1.39,0,0,0,.88-.2.76.76,0,0,0,.24-.61.66.66,0,0,0-.29-.6,2,2,0,0,0-.93-.17h-.83Zm0,.53v1.81h1a1.28,1.28,0,0,0,.93-.26.91.91,0,0,0,.26-.68.8.8,0,0,0-.27-.63,1.48,1.48,0,0,0-1-.24Z"/><path class="cls-13" d="M41.49,64H38.18v-.51l1.31-1.32c.25-.25.46-.47.64-.67a2.68,2.68,0,0,0,.39-.58,1.38,1.38,0,0,0,.13-.62.78.78,0,0,0-.24-.62.91.91,0,0,0-.64-.22,1.41,1.41,0,0,0-.64.13,2.69,2.69,0,0,0-.56.35l-.33-.41a2.53,2.53,0,0,1,.67-.42,2,2,0,0,1,.86-.17,1.66,1.66,0,0,1,1.11.35,1.25,1.25,0,0,1,.4,1,1.66,1.66,0,0,1-.16.73,2.76,2.76,0,0,1-.45.68,8.53,8.53,0,0,1-.67.71l-1,1v0h2.53Z"/><path class="cls-13" d="M34,72.14h1.43a3,3,0,0,1,1.42.28,1,1,0,0,1,.48,1,1,1,0,0,1-.25.73,1.12,1.12,0,0,1-.7.38v0a2,2,0,0,1,.57.19,1,1,0,0,1,.4.38,1.18,1.18,0,0,1,.15.63,1.28,1.28,0,0,1-.47,1,2,2,0,0,1-1.27.37H34Zm.63,2.13h.93a1.38,1.38,0,0,0,.88-.21.75.75,0,0,0,.24-.61.65.65,0,0,0-.29-.59,1.84,1.84,0,0,0-.93-.18h-.83Zm0,.53v1.81h1a1.33,1.33,0,0,0,.93-.26.93.93,0,0,0,.26-.68.8.8,0,0,0-.27-.63,1.48,1.48,0,0,0-1-.24Z"/><path class="cls-13" d="M41.49,77.14H38.18v-.51l1.31-1.32.64-.68a2.41,2.41,0,0,0,.39-.57,1.41,1.41,0,0,0,.13-.62.79.79,0,0,0-.24-.63,1,1,0,0,0-.64-.21,1.56,1.56,0,0,0-.64.12,3.19,3.19,0,0,0-.56.35l-.33-.41a3.18,3.18,0,0,1,.67-.42,2.16,2.16,0,0,1,.86-.17,1.61,1.61,0,0,1,1.11.36,1.22,1.22,0,0,1,.4,1,1.7,1.7,0,0,1-.16.74,3,3,0,0,1-.45.68,8.51,8.51,0,0,1-.67.7l-1,1v0h2.53Z"/><path class="cls-13" d="M58.27,72.63a1.58,1.58,0,0,0-1.27.54,2.21,2.21,0,0,0-.46,1.47A2.39,2.39,0,0,0,57,76.12a1.56,1.56,0,0,0,1.29.54,3.11,3.11,0,0,0,.62-.06,3.77,3.77,0,0,0,.58-.14V77a2.91,2.91,0,0,1-.58.15,3.63,3.63,0,0,1-.71,0,2.37,2.37,0,0,1-1.27-.31,2,2,0,0,1-.77-.9,3.37,3.37,0,0,1-.25-1.36,3.14,3.14,0,0,1,.27-1.34,2.16,2.16,0,0,1,.82-.9,2.45,2.45,0,0,1,1.31-.33,3,3,0,0,1,1.38.3l-.25.53a5.19,5.19,0,0,0-.52-.19A2,2,0,0,0,58.27,72.63Z"/><path class="cls-13" d="M63.35,73.31a1.09,1.09,0,0,1-.29.8,1.44,1.44,0,0,1-.75.4v0a1.36,1.36,0,0,1,.89.38,1.09,1.09,0,0,1,.3.8,1.56,1.56,0,0,1-.2.78,1.37,1.37,0,0,1-.63.52,2.6,2.6,0,0,1-1.09.19,4.23,4.23,0,0,1-.73-.06,2.53,2.53,0,0,1-.64-.21v-.58a3.06,3.06,0,0,0,.68.25,2.89,2.89,0,0,0,.7.08,1.43,1.43,0,0,0,1-.26.91.91,0,0,0,.3-.72.73.73,0,0,0-.37-.68,2.11,2.11,0,0,0-1-.21H61V74.3h.49A1.48,1.48,0,0,0,62.4,74a.85.85,0,0,0,.32-.69.66.66,0,0,0-.25-.56,1,1,0,0,0-.66-.2,1.86,1.86,0,0,0-.7.12,3.37,3.37,0,0,0-.56.3l-.31-.42a2.57,2.57,0,0,1,.66-.36,2.49,2.49,0,0,1,.9-.16,1.72,1.72,0,0,1,1.17.35A1.18,1.18,0,0,1,63.35,73.31Z"/><path class="cls-13" d="M15.19,90.5,14.59,89h-2L12,90.5h-.63l1.95-5h.57l1.94,5Zm-.79-2.11-.56-1.51a1.67,1.67,0,0,0-.07-.2l-.09-.31c0-.1-.06-.18-.08-.24,0,.15-.07.29-.11.43s-.07.24-.1.32l-.57,1.51Z"/><path class="cls-13" d="M19.51,90.5h-3.3V90l1.31-1.32.63-.68a2.2,2.2,0,0,0,.4-.57,1.56,1.56,0,0,0,.13-.62.77.77,0,0,0-.25-.63A.92.92,0,0,0,17.8,86a1.64,1.64,0,0,0-.65.12,3.19,3.19,0,0,0-.56.35L16.26,86a3.26,3.26,0,0,1,.68-.42,2.13,2.13,0,0,1,.86-.17,1.6,1.6,0,0,1,1.1.36,1.23,1.23,0,0,1,.41,1,1.7,1.7,0,0,1-.16.74,3.33,3.33,0,0,1-.45.68c-.19.22-.42.46-.67.7l-1.05,1v0h2.53Z"/><path class="cls-13" d="M15.19,104.67l-.6-1.55h-2l-.6,1.55h-.63l1.95-5h.57l1.94,5Zm-.79-2.11-.56-1.51a1.64,1.64,0,0,0-.07-.21l-.09-.3a2.18,2.18,0,0,0-.08-.24c0,.14-.07.28-.11.42s-.07.25-.1.33l-.57,1.51Z"/><path class="cls-13" d="M19.51,104.67h-3.3v-.51l1.31-1.33.63-.67a2.6,2.6,0,0,0,.4-.57,1.61,1.61,0,0,0,.13-.63.76.76,0,0,0-.25-.62.88.88,0,0,0-.63-.22,1.64,1.64,0,0,0-.65.13,2.69,2.69,0,0,0-.56.35l-.33-.41a2.59,2.59,0,0,1,.68-.42,2.13,2.13,0,0,1,.86-.17,1.6,1.6,0,0,1,1.1.36,1.22,1.22,0,0,1,.41,1,1.66,1.66,0,0,1-.16.73,3.08,3.08,0,0,1-.45.68c-.19.23-.42.46-.67.71l-1.05,1v0h2.53Z"/><path class="cls-13" d="M34,85.5h1.43a3,3,0,0,1,1.42.28,1,1,0,0,1,.48,1,1,1,0,0,1-.25.73,1.12,1.12,0,0,1-.7.38v0a2,2,0,0,1,.57.19,1,1,0,0,1,.4.38,1.18,1.18,0,0,1,.15.63,1.28,1.28,0,0,1-.47,1,2,2,0,0,1-1.27.37H34Zm.63,2.13h.93a1.38,1.38,0,0,0,.88-.21.75.75,0,0,0,.24-.61.65.65,0,0,0-.29-.59,1.84,1.84,0,0,0-.93-.18h-.83Zm0,.53V90h1a1.33,1.33,0,0,0,.93-.26.93.93,0,0,0,.26-.68.8.8,0,0,0-.27-.63,1.48,1.48,0,0,0-1-.24Z"/><path class="cls-13" d="M41.3,86.67a1.11,1.11,0,0,1-.29.8,1.44,1.44,0,0,1-.75.4v0a1.39,1.39,0,0,1,.89.37,1.13,1.13,0,0,1,.3.81,1.56,1.56,0,0,1-.2.78,1.43,1.43,0,0,1-.63.52,2.6,2.6,0,0,1-1.09.19,4,4,0,0,1-.72-.06,2.47,2.47,0,0,1-.65-.21v-.58a3.06,3.06,0,0,0,.68.25,3.5,3.5,0,0,0,.7.08,1.48,1.48,0,0,0,1-.26.92.92,0,0,0,.3-.72.73.73,0,0,0-.37-.68,2.11,2.11,0,0,0-1-.21h-.49v-.52h.49a1.46,1.46,0,0,0,.94-.26.85.85,0,0,0,.32-.69.66.66,0,0,0-.25-.56,1,1,0,0,0-.66-.2,1.86,1.86,0,0,0-.7.12,3.37,3.37,0,0,0-.56.3L38.19,86a2.57,2.57,0,0,1,.66-.36,2.29,2.29,0,0,1,.9-.16,1.72,1.72,0,0,1,1.17.35A1.18,1.18,0,0,1,41.3,86.67Z"/><path class="cls-13" d="M34,99.67h1.43a2.88,2.88,0,0,1,1.42.28,1,1,0,0,1,.48,1,1.06,1.06,0,0,1-.25.73,1.11,1.11,0,0,1-.7.37v0a2,2,0,0,1,.57.19,1,1,0,0,1,.4.38,1.18,1.18,0,0,1,.15.63,1.24,1.24,0,0,1-.47,1,2,2,0,0,1-1.27.38H34Zm.63,2.13h.93a1.38,1.38,0,0,0,.88-.21.76.76,0,0,0,.24-.61.63.63,0,0,0-.29-.59,1.84,1.84,0,0,0-.93-.18h-.83Zm0,.52v1.81h1a1.33,1.33,0,0,0,.93-.25.94.94,0,0,0,.26-.68.81.81,0,0,0-.27-.64,1.48,1.48,0,0,0-1-.24Z"/><path class="cls-13" d="M41.3,100.84a1.12,1.12,0,0,1-.29.8,1.36,1.36,0,0,1-.75.39v0a1.39,1.39,0,0,1,.89.38,1.11,1.11,0,0,1,.3.81,1.5,1.5,0,0,1-.2.77,1.39,1.39,0,0,1-.63.53,2.77,2.77,0,0,1-1.09.19,4,4,0,0,1-.72-.06,2.17,2.17,0,0,1-.65-.22v-.57a2.62,2.62,0,0,0,.68.24,2.92,2.92,0,0,0,.7.09,1.48,1.48,0,0,0,1-.26.93.93,0,0,0,.3-.73.71.71,0,0,0-.37-.67,2.11,2.11,0,0,0-1-.21h-.49v-.53h.49a1.41,1.41,0,0,0,.94-.26.84.84,0,0,0,.32-.68.66.66,0,0,0-.25-.56,1,1,0,0,0-.66-.2,2.1,2.1,0,0,0-.7.11,2.82,2.82,0,0,0-.56.31l-.31-.42a2.59,2.59,0,0,1,.66-.37,2.5,2.5,0,0,1,.9-.15,1.67,1.67,0,0,1,1.17.35A1.16,1.16,0,0,1,41.3,100.84Z"/><path class="cls-13" d="M58.27,100.15a1.58,1.58,0,0,0-1.27.54,2.24,2.24,0,0,0-.46,1.48,2.34,2.34,0,0,0,.43,1.47,1.56,1.56,0,0,0,1.29.54,3.12,3.12,0,0,0,.62-.05l.58-.14v.54a3.83,3.83,0,0,1-.58.16,4.63,4.63,0,0,1-.71,0,2.37,2.37,0,0,1-1.27-.32,2,2,0,0,1-.77-.89,3.42,3.42,0,0,1-.25-1.37,3.1,3.1,0,0,1,.27-1.33,2.13,2.13,0,0,1,.82-.91,2.54,2.54,0,0,1,1.31-.32,3.12,3.12,0,0,1,1.38.29l-.25.53a3.52,3.52,0,0,0-.52-.18A2,2,0,0,0,58.27,100.15Z"/><path class="cls-13" d="M63.76,103.53H63v1.14h-.59v-1.14H60V103l2.35-3.37H63V103h.73ZM62.44,103V101.4c0-.24,0-.44,0-.61s0-.34,0-.49h0a3.51,3.51,0,0,1-.3.54L60.64,103Z"/><path class="cls-13" d="M15.19,116.67l-.6-1.55h-2L12,116.67h-.64l1.95-5h.57l1.95,5Zm-.79-2.11-.56-1.51a1.64,1.64,0,0,0-.07-.21l-.09-.3a2.18,2.18,0,0,0-.08-.24c0,.14-.07.28-.11.42s-.07.25-.1.33l-.57,1.51Z"/><path class="cls-13" d="M19.51,116.67h-3.3v-.51l1.31-1.33c.24-.25.46-.47.63-.67a2.6,2.6,0,0,0,.4-.57,1.45,1.45,0,0,0,.13-.63.76.76,0,0,0-.25-.62.88.88,0,0,0-.63-.22,1.64,1.64,0,0,0-.65.13,3,3,0,0,0-.56.35l-.33-.41a2.77,2.77,0,0,1,.68-.42,2.13,2.13,0,0,1,.86-.17,1.6,1.6,0,0,1,1.1.36,1.22,1.22,0,0,1,.41,1,1.66,1.66,0,0,1-.16.73,3.08,3.08,0,0,1-.45.68,8.53,8.53,0,0,1-.67.71l-1,1v0h2.52Z"/><path class="cls-13" d="M34,112.67h1.43a2.88,2.88,0,0,1,1.42.28,1,1,0,0,1,.48,1,1.06,1.06,0,0,1-.25.73,1.11,1.11,0,0,1-.7.37v0a2,2,0,0,1,.57.19,1,1,0,0,1,.4.38,1.18,1.18,0,0,1,.15.63,1.24,1.24,0,0,1-.47,1,2,2,0,0,1-1.27.38H34Zm.63,2.13h.93a1.38,1.38,0,0,0,.88-.21.76.76,0,0,0,.24-.61.63.63,0,0,0-.29-.59,1.84,1.84,0,0,0-.93-.18h-.83Zm0,.52v1.81h1a1.33,1.33,0,0,0,.93-.25.94.94,0,0,0,.26-.68.81.81,0,0,0-.27-.64,1.48,1.48,0,0,0-1-.24Z"/><path class="cls-13" d="M41.3,113.84a1.12,1.12,0,0,1-.29.8,1.36,1.36,0,0,1-.75.39v0a1.39,1.39,0,0,1,.89.38,1.11,1.11,0,0,1,.3.81,1.5,1.5,0,0,1-.2.77,1.39,1.39,0,0,1-.63.53,2.77,2.77,0,0,1-1.09.19,4,4,0,0,1-.72-.06,2.17,2.17,0,0,1-.65-.22v-.57a2.62,2.62,0,0,0,.68.24,2.92,2.92,0,0,0,.7.09,1.48,1.48,0,0,0,1-.26.93.93,0,0,0,.3-.73.71.71,0,0,0-.37-.67,2.11,2.11,0,0,0-1-.21h-.49v-.53h.49a1.41,1.41,0,0,0,.94-.26.84.84,0,0,0,.32-.68.66.66,0,0,0-.25-.56,1,1,0,0,0-.66-.2,2.1,2.1,0,0,0-.7.11,2.82,2.82,0,0,0-.56.31l-.31-.42a2.59,2.59,0,0,1,.66-.37,2.5,2.5,0,0,1,.9-.15,1.67,1.67,0,0,1,1.17.35A1.16,1.16,0,0,1,41.3,113.84Z"/><path class="cls-13" d="M58.27,113.15a1.58,1.58,0,0,0-1.27.54,2.24,2.24,0,0,0-.46,1.48,2.34,2.34,0,0,0,.43,1.47,1.56,1.56,0,0,0,1.29.54,3.12,3.12,0,0,0,.62-.05l.58-.14v.54a3.83,3.83,0,0,1-.58.16,4.63,4.63,0,0,1-.71,0,2.37,2.37,0,0,1-1.27-.32,2,2,0,0,1-.77-.89,3.42,3.42,0,0,1-.25-1.37,3.1,3.1,0,0,1,.27-1.33,2.13,2.13,0,0,1,.82-.91,2.54,2.54,0,0,1,1.31-.32,3.12,3.12,0,0,1,1.38.29l-.25.53a3.52,3.52,0,0,0-.52-.18A2,2,0,0,0,58.27,113.15Z"/><path class="cls-13" d="M61.82,114.6A1.81,1.81,0,0,1,63,115a1.3,1.3,0,0,1,.46,1.08,1.54,1.54,0,0,1-.49,1.22,2,2,0,0,1-1.38.45,4.21,4.21,0,0,1-.73-.07,1.93,1.93,0,0,1-.56-.21v-.58a1.69,1.69,0,0,0,.61.24,2.84,2.84,0,0,0,.69.09,1.45,1.45,0,0,0,.89-.26,1,1,0,0,0,.34-.82,1,1,0,0,0-.3-.75,1.46,1.46,0,0,0-1-.26l-.45,0-.41.07-.3-.19.18-2.36h2.51v.56h-2l-.12,1.45.32-.05A3.19,3.19,0,0,1,61.82,114.6Z"/><path class="cls-13" d="M180.33,100.07l-.6-1.55h-2l-.6,1.55h-.64l2-5H179l1.95,5ZM179.54,98,179,96.45s0-.1-.07-.2-.06-.2-.1-.31l-.07-.24c0,.15-.07.29-.11.43s-.08.24-.11.32L178,98Z"/><path class="cls-13" d="M183.49,100.07h-.6v-4c0-.12,0-.24,0-.37l-.2.18-.23.2-.53.43-.33-.41L183,95.07h.51Z"/><path class="cls-13" d="M194.62,107.33h1.43a2.8,2.8,0,0,1,1.41.29,1,1,0,0,1,.49.95,1.14,1.14,0,0,1-.25.74,1.19,1.19,0,0,1-.71.37v0a2.39,2.39,0,0,1,.57.19,1,1,0,0,1,.41.38,1.22,1.22,0,0,1,.14.63,1.27,1.27,0,0,1-.46,1,2,2,0,0,1-1.27.37h-1.76Zm.63,2.13h.93a1.42,1.42,0,0,0,.87-.2.76.76,0,0,0,.25-.62.65.65,0,0,0-.29-.59,1.86,1.86,0,0,0-.93-.18h-.83Zm0,.53v1.81h1a1.3,1.3,0,0,0,.92-.26.89.89,0,0,0,.26-.68.8.8,0,0,0-.27-.63,1.46,1.46,0,0,0-1-.24Z"/><path class="cls-13" d="M201,112.33h-.6v-3.49c0-.2,0-.36,0-.48s0-.25,0-.38l-.21.19-.23.19-.53.44-.32-.42,1.35-1H201Z"/><path class="cls-13" d="M215.94,119.92a1.58,1.58,0,0,0-1.27.54,2.16,2.16,0,0,0-.46,1.47,2.33,2.33,0,0,0,.43,1.48,1.56,1.56,0,0,0,1.29.54,3.11,3.11,0,0,0,.62-.06c.19,0,.39-.08.58-.14v.55a2.91,2.91,0,0,1-.58.15,4.73,4.73,0,0,1-.71,0,2.37,2.37,0,0,1-1.27-.31,2,2,0,0,1-.77-.9,3.38,3.38,0,0,1-.26-1.37,3.13,3.13,0,0,1,.28-1.33,2.16,2.16,0,0,1,.82-.9,2.45,2.45,0,0,1,1.31-.33,3,3,0,0,1,1.37.3l-.25.53a4.23,4.23,0,0,0-.51-.19A2.07,2.07,0,0,0,215.94,119.92Z"/><path class="cls-13" d="M220,124.43h-.6v-3.49c0-.2,0-.36,0-.48s0-.25,0-.38l-.21.19-.23.19-.53.44-.32-.42,1.35-1H220Z"/><path class="cls-13" d="M215.94,131.84a1.58,1.58,0,0,0-1.27.54,2.19,2.19,0,0,0-.46,1.48,2.28,2.28,0,0,0,.43,1.47,1.54,1.54,0,0,0,1.29.55,3.18,3.18,0,0,0,.62-.06c.19,0,.39-.08.58-.14v.55a2.91,2.91,0,0,1-.58.15,4.83,4.83,0,0,1-.71.05,2.37,2.37,0,0,1-1.27-.32,1.87,1.87,0,0,1-.77-.89,3.38,3.38,0,0,1-.26-1.37,3.1,3.1,0,0,1,.28-1.33,2,2,0,0,1,.82-.9,2.41,2.41,0,0,1,1.3-.33,3.12,3.12,0,0,1,1.38.29l-.25.54a3,3,0,0,0-.51-.19A2.06,2.06,0,0,0,215.94,131.84Z"/><path class="cls-13" d="M221.2,136.36h-3.3v-.51l1.31-1.33.63-.67a2.47,2.47,0,0,0,.4-.57,1.6,1.6,0,0,0,.13-.62.77.77,0,0,0-.25-.63.92.92,0,0,0-.63-.21,1.6,1.6,0,0,0-.65.12,3.19,3.19,0,0,0-.56.35l-.33-.41a3.26,3.26,0,0,1,.68-.42,2.13,2.13,0,0,1,.86-.17,1.6,1.6,0,0,1,1.1.36,1.23,1.23,0,0,1,.41,1,1.86,1.86,0,0,1-.16.74,3.28,3.28,0,0,1-.45.67c-.19.23-.42.46-.67.71l-1.05,1v0h2.53Z"/><path class="cls-13" d="M194.62,143.28h1.43a2.88,2.88,0,0,1,1.42.28,1,1,0,0,1,.48,1,1.08,1.08,0,0,1-.25.73,1.14,1.14,0,0,1-.7.37v0a2,2,0,0,1,.57.19,1,1,0,0,1,.4.37,1.22,1.22,0,0,1,.15.63,1.25,1.25,0,0,1-.47,1.05,2,2,0,0,1-1.27.38h-1.76Zm.63,2.13h.93a1.4,1.4,0,0,0,.88-.21.76.76,0,0,0,.24-.61A.63.63,0,0,0,197,144a1.86,1.86,0,0,0-.93-.18h-.83Zm0,.52v1.81h1a1.25,1.25,0,0,0,.92-.26.87.87,0,0,0,.26-.67.81.81,0,0,0-.27-.64,1.46,1.46,0,0,0-1-.24Z"/><path class="cls-13" d="M202.15,148.28h-3.3v-.52l1.31-1.32c.25-.25.46-.47.63-.67a2.6,2.6,0,0,0,.4-.57,1.45,1.45,0,0,0,.13-.63.78.78,0,0,0-.24-.62.92.92,0,0,0-.64-.22,1.41,1.41,0,0,0-.64.13,2.46,2.46,0,0,0-.56.35l-.33-.41a2.53,2.53,0,0,1,.67-.42,2,2,0,0,1,.86-.17,1.68,1.68,0,0,1,1.11.35,1.25,1.25,0,0,1,.4,1,1.66,1.66,0,0,1-.16.73,3.08,3.08,0,0,1-.45.68,8.53,8.53,0,0,1-.67.71l-1,1v0h2.52Z"/><path class="cls-13" d="M215.94,156.29a1.58,1.58,0,0,0-1.27.54,2.19,2.19,0,0,0-.46,1.48,2.28,2.28,0,0,0,.43,1.47,1.56,1.56,0,0,0,1.29.55,3.11,3.11,0,0,0,.62-.06l.58-.14v.54a2.38,2.38,0,0,1-.58.16,4.73,4.73,0,0,1-.71,0,2.37,2.37,0,0,1-1.27-.32,2,2,0,0,1-.77-.89,3.42,3.42,0,0,1-.26-1.37,3.1,3.1,0,0,1,.28-1.33,2,2,0,0,1,.82-.9,2.45,2.45,0,0,1,1.31-.33,3.1,3.1,0,0,1,1.37.29l-.25.54a3,3,0,0,0-.51-.19A2.06,2.06,0,0,0,215.94,156.29Z"/><path class="cls-13" d="M221,157a1.12,1.12,0,0,1-.28.8,1.44,1.44,0,0,1-.75.4v0a1.5,1.5,0,0,1,.89.38,1.13,1.13,0,0,1,.3.81,1.41,1.41,0,0,1-.21.77,1.31,1.31,0,0,1-.62.53,2.8,2.8,0,0,1-1.09.19,4.23,4.23,0,0,1-.73-.06,2.11,2.11,0,0,1-.64-.22V160a2.89,2.89,0,0,0,.68.25,3.42,3.42,0,0,0,.7.08,1.5,1.5,0,0,0,1-.26,1,1,0,0,0,.29-.73.7.7,0,0,0-.36-.67,2.13,2.13,0,0,0-1-.21h-.48V158h.49a1.45,1.45,0,0,0,.93-.26.83.83,0,0,0,.32-.69.68.68,0,0,0-.24-.56,1,1,0,0,0-.67-.2,1.78,1.78,0,0,0-.69.12,3.91,3.91,0,0,0-.57.3l-.3-.42a2.54,2.54,0,0,1,.66-.37,2.5,2.5,0,0,1,.9-.15,1.68,1.68,0,0,1,1.16.35A1.13,1.13,0,0,1,221,157Z"/><path class="cls-13" d="M180.33,184.83l-.6-1.54h-2l-.6,1.54h-.64l2-5H179l1.95,5Zm-.79-2.1-.56-1.52s0-.1-.07-.2-.06-.2-.1-.3-.05-.19-.07-.25c0,.15-.07.29-.11.43s-.08.24-.11.32l-.56,1.52Z"/><path class="cls-13" d="M184.65,184.83h-3.3v-.51l1.3-1.32c.25-.25.46-.48.64-.67a2.68,2.68,0,0,0,.39-.58,1.38,1.38,0,0,0,.14-.62.81.81,0,0,0-.25-.63,1,1,0,0,0-.64-.21,1.44,1.44,0,0,0-.64.13,2.69,2.69,0,0,0-.56.35l-.33-.42a2.86,2.86,0,0,1,.68-.41,2,2,0,0,1,.85-.17,1.61,1.61,0,0,1,1.11.35,1.24,1.24,0,0,1,.41,1,1.66,1.66,0,0,1-.17.73,2.71,2.71,0,0,1-.44.68c-.2.22-.42.46-.68.71l-1,1v0h2.53Z"/><path class="cls-13" d="M195.83,191.36h1.43a2.81,2.81,0,0,1,1.41.28,1,1,0,0,1,.48,1,1,1,0,0,1-1,1.1v0a2,2,0,0,1,.57.19,1,1,0,0,1,.41.38,1.45,1.45,0,0,1-.32,1.68,2,2,0,0,1-1.27.37h-1.76Zm.63,2.13h.92a1.36,1.36,0,0,0,.88-.21.76.76,0,0,0,.24-.61.61.61,0,0,0-.29-.59,1.81,1.81,0,0,0-.93-.18h-.82Zm0,.52v1.81h1a1.3,1.3,0,0,0,.92-.25.94.94,0,0,0,.26-.68.82.82,0,0,0-.27-.64,1.46,1.46,0,0,0-1-.24Z"/><path class="cls-13" d="M203.17,192.53a1.12,1.12,0,0,1-.28.8,1.36,1.36,0,0,1-.75.39v0a1.44,1.44,0,0,1,.89.38,1.11,1.11,0,0,1,.3.81,1.41,1.41,0,0,1-.21.77,1.31,1.31,0,0,1-.62.53,2.84,2.84,0,0,1-1.09.19,4.15,4.15,0,0,1-.73-.06,2.11,2.11,0,0,1-.64-.22v-.57a2.55,2.55,0,0,0,.67.24,3,3,0,0,0,.7.09,1.46,1.46,0,0,0,1-.26.93.93,0,0,0,.3-.73.7.7,0,0,0-.37-.67,2.08,2.08,0,0,0-1-.21h-.48v-.53h.49a1.39,1.39,0,0,0,.93-.26.84.84,0,0,0,.32-.68.68.68,0,0,0-.24-.56,1,1,0,0,0-.67-.2,2,2,0,0,0-.69.11,3.2,3.2,0,0,0-.57.31l-.31-.42a2.43,2.43,0,0,1,1.56-.52,1.69,1.69,0,0,1,1.17.35A1.16,1.16,0,0,1,203.17,192.53Z"/><path class="cls-13" d="M215.94,203.5a1.58,1.58,0,0,0-1.27.54,2.19,2.19,0,0,0-.46,1.48,2.28,2.28,0,0,0,.43,1.47,1.56,1.56,0,0,0,1.29.54,4.21,4.21,0,0,0,.62-.05l.58-.14v.54a3.83,3.83,0,0,1-.58.16,4.83,4.83,0,0,1-.71.05,2.37,2.37,0,0,1-1.27-.32,1.91,1.91,0,0,1-.77-.89,3.42,3.42,0,0,1-.26-1.37,3.1,3.1,0,0,1,.28-1.33,2.07,2.07,0,0,1,.82-.91,2.5,2.5,0,0,1,1.3-.32,3.12,3.12,0,0,1,1.38.29l-.25.53a4.23,4.23,0,0,0-.51-.19A2.45,2.45,0,0,0,215.94,203.5Z"/><path class="cls-13" d="M221.43,206.88h-.73V208h-.6v-1.14h-2.39v-.52l2.35-3.37h.64v3.34h.73Zm-1.33-.55v-1.58c0-.24,0-.45,0-.62l0-.48h0a2.43,2.43,0,0,1-.14.28,2.47,2.47,0,0,1-.16.26l-1.5,2.14Z"/><path class="cls-13" d="M215.94,215.42a1.58,1.58,0,0,0-1.27.53,2.2,2.2,0,0,0-.46,1.48,2.33,2.33,0,0,0,.43,1.48,1.56,1.56,0,0,0,1.29.54,3.11,3.11,0,0,0,.62-.06c.19,0,.39-.08.58-.14v.55a2.91,2.91,0,0,1-.58.15,4.73,4.73,0,0,1-.71.05,2.37,2.37,0,0,1-1.27-.31,2,2,0,0,1-.77-.9,3.38,3.38,0,0,1-.26-1.37,3.13,3.13,0,0,1,.28-1.33,2.16,2.16,0,0,1,.82-.9,2.45,2.45,0,0,1,1.31-.33,3,3,0,0,1,1.37.3l-.25.53a4.23,4.23,0,0,0-.51-.19A2.07,2.07,0,0,0,215.94,215.42Z"/><path class="cls-13" d="M219.49,216.86a1.82,1.82,0,0,1,1.22.39,1.36,1.36,0,0,1,.46,1.08,1.58,1.58,0,0,1-.5,1.23,2,2,0,0,1-1.37.44,3.35,3.35,0,0,1-.73-.07,2.12,2.12,0,0,1-.57-.2v-.58a2.36,2.36,0,0,0,.62.24,2.84,2.84,0,0,0,.69.09,1.41,1.41,0,0,0,.89-.27,1.12,1.12,0,0,0,0-1.57,1.47,1.47,0,0,0-1-.26,2.39,2.39,0,0,0-.44,0,2.63,2.63,0,0,0-.41.07l-.31-.2.19-2.36h2.51v.56h-2l-.12,1.45.32-.05A3,3,0,0,1,219.49,216.86Z"/><path class="cls-13" d="M14.83,130.06a.4.4,0,0,1,.43-.47.45.45,0,0,1,.3.1.44.44,0,0,1,.14.37.44.44,0,0,1-.14.36.41.41,0,0,1-.3.11.4.4,0,0,1-.3-.11A.44.44,0,0,1,14.83,130.06Z"/><path class="cls-13" d="M38,130.06a.4.4,0,0,1,.43-.47.5.5,0,0,1,.31.1.47.47,0,0,1,.13.37.48.48,0,0,1-.13.36.45.45,0,0,1-.31.11.4.4,0,0,1-.3-.11A.44.44,0,0,1,38,130.06Z"/><path class="cls-13" d="M60.21,130.06a.39.39,0,0,1,.42-.47.48.48,0,0,1,.31.1.48.48,0,0,1-.31.84.43.43,0,0,1-.3-.11A.47.47,0,0,1,60.21,130.06Z"/><path class="cls-13" d="M14.83,144.56a.43.43,0,0,1,.13-.36.44.44,0,0,1,.3-.1.45.45,0,0,1,.3.1.43.43,0,0,1,.14.36.47.47,0,0,1-.14.37.46.46,0,0,1-.3.11.44.44,0,0,1-.3-.11A.46.46,0,0,1,14.83,144.56Z"/><path class="cls-13" d="M38,144.56a.43.43,0,0,1,.13-.36.44.44,0,0,1,.3-.1.5.5,0,0,1,.31.1.46.46,0,0,1,.13.36.5.5,0,0,1-.13.37.51.51,0,0,1-.31.11.44.44,0,0,1-.3-.11A.46.46,0,0,1,38,144.56Z"/><path class="cls-13" d="M60.21,144.56a.46.46,0,0,1,.12-.36.47.47,0,0,1,.3-.1.48.48,0,0,1,.31.1.43.43,0,0,1,.13.36.46.46,0,0,1-.13.37.49.49,0,0,1-.31.11.48.48,0,0,1-.3-.11A.5.5,0,0,1,60.21,144.56Z"/><path class="cls-13" d="M14.83,159.77a.45.45,0,0,1,.13-.37.44.44,0,0,1,.3-.1.42.42,0,0,1,.44.47.43.43,0,0,1-.14.36.41.41,0,0,1-.3.11.4.4,0,0,1-.3-.11A.43.43,0,0,1,14.83,159.77Z"/><path class="cls-13" d="M38,159.77a.45.45,0,0,1,.13-.37.44.44,0,0,1,.3-.1.5.5,0,0,1,.31.1.49.49,0,0,1,.13.37.46.46,0,0,1-.13.36.45.45,0,0,1-.31.11.4.4,0,0,1-.3-.11A.43.43,0,0,1,38,159.77Z"/><path class="cls-13" d="M60.21,159.77a.48.48,0,0,1,.12-.37.47.47,0,0,1,.3-.1.48.48,0,0,1,.31.1.45.45,0,0,1,.13.37.43.43,0,0,1-.13.36.44.44,0,0,1-.31.11.43.43,0,0,1-.3-.11A.46.46,0,0,1,60.21,159.77Z"/><path class="cls-13" d="M14.83,173.26a.43.43,0,0,1,.13-.36.44.44,0,0,1,.3-.11.46.46,0,0,1,.3.11.43.43,0,0,1,.14.36.47.47,0,0,1-.14.37.46.46,0,0,1-.3.11.44.44,0,0,1-.3-.11A.46.46,0,0,1,14.83,173.26Z"/><path class="cls-13" d="M38,173.26a.43.43,0,0,1,.13-.36.44.44,0,0,1,.3-.11.51.51,0,0,1,.31.11.46.46,0,0,1,.13.36.5.5,0,0,1-.13.37.51.51,0,0,1-.31.11.44.44,0,0,1-.3-.11A.46.46,0,0,1,38,173.26Z"/><path class="cls-13" d="M60.21,173.26a.46.46,0,0,1,.12-.36.48.48,0,0,1,.3-.11.49.49,0,0,1,.31.11.43.43,0,0,1,.13.36.46.46,0,0,1-.13.37.49.49,0,0,1-.31.11.48.48,0,0,1-.3-.11A.5.5,0,0,1,60.21,173.26Z"/><path class="cls-13" d="M14.83,187.15a.43.43,0,0,1,.13-.36.44.44,0,0,1,.3-.11.46.46,0,0,1,.3.11.43.43,0,0,1,.14.36.47.47,0,0,1-.14.37.46.46,0,0,1-.3.11.44.44,0,0,1-.3-.11A.46.46,0,0,1,14.83,187.15Z"/><path class="cls-13" d="M38,187.15a.43.43,0,0,1,.13-.36.44.44,0,0,1,.3-.11.51.51,0,0,1,.31.11.46.46,0,0,1,.13.36.5.5,0,0,1-.13.37.51.51,0,0,1-.31.11.44.44,0,0,1-.3-.11A.46.46,0,0,1,38,187.15Z"/><path class="cls-13" d="M60.21,187.15a.46.46,0,0,1,.12-.36.48.48,0,0,1,.3-.11.49.49,0,0,1,.31.11.43.43,0,0,1,.13.36.46.46,0,0,1-.13.37.49.49,0,0,1-.31.11.48.48,0,0,1-.3-.11A.5.5,0,0,1,60.21,187.15Z"/><path class="cls-13" d="M14.83,200.65a.45.45,0,0,1,.13-.37.44.44,0,0,1,.3-.1.42.42,0,0,1,.44.47.43.43,0,0,1-.14.36.41.41,0,0,1-.3.11A.4.4,0,0,1,15,201,.43.43,0,0,1,14.83,200.65Z"/><path class="cls-13" d="M38,200.65a.45.45,0,0,1,.13-.37.44.44,0,0,1,.3-.1.5.5,0,0,1,.31.1.49.49,0,0,1,.13.37.46.46,0,0,1-.13.36.45.45,0,0,1-.31.11.4.4,0,0,1-.3-.11A.43.43,0,0,1,38,200.65Z"/><path class="cls-13" d="M60.21,200.65a.48.48,0,0,1,.12-.37.47.47,0,0,1,.3-.1.48.48,0,0,1,.31.1.45.45,0,0,1,.13.37.43.43,0,0,1-.13.36.44.44,0,0,1-.31.11.43.43,0,0,1-.3-.11A.46.46,0,0,1,60.21,200.65Z"/><path class="cls-13" d="M14.83,213.64a.46.46,0,0,1,.12-.36.49.49,0,0,1,.31-.11.48.48,0,0,1,.3.11.53.53,0,0,1,0,.72.44.44,0,0,1-.3.12A.45.45,0,0,1,15,214,.46.46,0,0,1,14.83,213.64Z"/><path class="cls-13" d="M38,213.64a.43.43,0,0,1,.13-.36.44.44,0,0,1,.3-.11.51.51,0,0,1,.31.11.48.48,0,0,1-.31.84.41.41,0,0,1-.3-.12A.43.43,0,0,1,38,213.64Z"/><path class="cls-13" d="M60.21,213.64a.46.46,0,0,1,.12-.36.48.48,0,0,1,.3-.11.49.49,0,0,1,.31.11.56.56,0,0,1,0,.72.45.45,0,0,1-.31.12.44.44,0,0,1-.3-.12A.46.46,0,0,1,60.21,213.64Z"/><path class="cls-13" d="M14.83,227.14a.47.47,0,0,1,.12-.37.48.48,0,0,1,.31-.1.47.47,0,0,1,.3.1.44.44,0,0,1,.14.37.46.46,0,0,1-.14.36.48.48,0,0,1-.3.11.4.4,0,0,1-.43-.47Z"/><path class="cls-13" d="M38,227.14a.4.4,0,0,1,.43-.47.5.5,0,0,1,.31.1.47.47,0,0,1,.13.37.49.49,0,0,1-.13.36.51.51,0,0,1-.31.11.44.44,0,0,1-.3-.11A.45.45,0,0,1,38,227.14Z"/><path class="cls-13" d="M60.21,227.14a.39.39,0,0,1,.42-.47.48.48,0,0,1,.31.1.44.44,0,0,1,.13.37.45.45,0,0,1-.13.36.49.49,0,0,1-.31.11.48.48,0,0,1-.3-.11A.49.49,0,0,1,60.21,227.14Z"/></svg>