<svg id="Layer_1" data-name="Layer 1" xmlns="http://www.w3.org/2000/svg" xmlns:xlink="http://www.w3.org/1999/xlink" viewBox="0 0 416.75 177.79"><defs><style>.cls-1,.cls-17{fill:none;}.cls-14,.cls-16,.cls-2{fill:#033572;}.cls-15,.cls-3{fill:#bdb5ab;}.cls-3{opacity:0.51;}.cls-4{fill:#008782;}.cls-5{fill:#fab600;}.cls-6{fill:#e63812;}.cls-7{fill:#13a337;}.cls-11,.cls-12,.cls-8{fill:#008dd4;}.cls-12,.cls-13,.cls-17,.cls-8{stroke:#1d1d1b;stroke-miterlimit:10;}.cls-17,.cls-8{stroke-width:1.75px;}.cls-9{fill:#0069b4;}.cls-16,.cls-9{opacity:0.33;}.cls-10{fill:#7c8790;}.cls-11{opacity:0.68;}.cls-13,.cls-19{fill:#fff;}.cls-13{stroke-width:0.75px;}.cls-14{opacity:0.69;}.cls-18{fill:#1d1d1b;}</style><symbol id="Arrow_26" data-name="Arrow 26" viewBox="0 0 45.72 26.28"><rect class="cls-1" width="45.72" height="26.28"/><polygon class="cls-2" points="0 19.48 22.93 19.48 22.93 26.28 45.72 13.14 22.93 0 22.93 6.8 0 6.8 0 19.48"/></symbol></defs><title>NNtable_help_2</title><rect class="cls-3" x="164.73" y="7.53" width="235.98" height="20.34" rx="7.88" ry="7.88"/><rect class="cls-2" x="6.32" y="2.16" width="17.84" height="8.73" rx="3.12" ry="3.12"/><rect class="cls-4" x="28.83" y="2.16" width="17.84" height="8.73" rx="3.12" ry="3.12"/><rect class="cls-5" x="51.35" y="2.16" width="17.84" height="8.73" rx="3.12" ry="3.12"/><rect class="cls-6" x="73.86" y="2.16" width="17.84" height="8.73" rx="3.12" ry="3.12"/><rect class="cls-7" x="96.37" y="2.16" width="17.84" height="8.73" rx="3.12" ry="3.12"/><line class="cls-8" x1="2.58" y1="13.08" x2="114.93" y2="13.08"/><rect class="cls-9" x="6.32" y="15.65" width="17.84" height="8.73" rx="3.12" ry="3.12"/><rect class="cls-10" x="28.83" y="15.65" width="17.84" height="8.73" rx="3.12" ry="3.12"/><rect class="cls-11" x="51.35" y="15.65" width="17.84" height="8.73" rx="3.12" ry="3.12"/><rect class="cls-11" x="73.86" y="15.65" width="17.84" height="8.73" rx="3.12" ry="3.12"/><rect class="cls-11" x="96.37" y="15.65" width="17.84" height="8.73" rx="3.12" ry="3.12"/><line class="cls-12" x1="2.58" y1="26.57" x2="114.93" y2="26.57"/><rect class="cls-9" x="6.32" y="29.15" width="17.84" height="8.73" rx="3.12" ry="3.12"/><rect class="cls-10" x="28.83" y="29.15" width="17.84" height="8.73" rx="3.12" ry="3.12"/><rect class="cls-11" x="51.35" y="29.15" width="17.84" height="8.73" rx="3.12" ry="3.12"/><rect class="cls-11" x="73.86" y="29.15" width="17.84" height="8.73" rx="3.12" ry="3.12"/><rect class="cls-11" x="96.37" y="29.15" width="17.84" height="8.73" rx="3.12" ry="3.12"/><line class="cls-12" x1="2.58" y1="40.06" x2="114.93" y2="40.06"/><rect class="cls-9" x="6.32" y="42.64" width="17.84" height="8.73" rx="3.12" ry="3.12"/><rect class="cls-10" x="28.83" y="42.64" width="17.84" height="8.73" rx="3.12" ry="3.12"/><rect class="cls-11" x="51.35" y="42.64" width="17.84" height="8.73" rx="3.12" ry="3.12"/><rect class="cls-11" x="73.86" y="42.64" width="17.84" height="8.73" rx="3.12" ry="3.12"/><rect class="cls-11" x="96.37" y="42.64" width="17.84" height="8.73" rx="3.12" ry="3.12"/><line class="cls-13" x1="291.59" y1="87.9" x2="411.67" y2="87.9"/><rect class="cls-14" x="318.07" y="71.52" width="67.12" height="8.75" rx="4.37" ry="4.37"/><rect class="cls-10" x="296.59" y="95.52" width="45.12" height="8.75" rx="4.37" ry="4.37"/><rect class="cls-15" x="360.84" y="95.52" width="46.87" height="8.75" rx="4.37" ry="4.37"/><rect class="cls-5" x="291.09" y="119.52" width="15.62" height="8.75" rx="4.37" ry="4.37"/><rect class="cls-6" x="311.22" y="119.52" width="15.62" height="8.75" rx="4.37" ry="4.37"/><rect class="cls-7" x="331.59" y="119.52" width="15.62" height="8.75" rx="4.37" ry="4.37"/><rect class="cls-5" x="356.22" y="119.52" width="15.62" height="8.75" rx="4.37" ry="4.37"/><rect class="cls-6" x="376.34" y="119.52" width="15.62" height="8.75" rx="4.37" ry="4.37"/><rect class="cls-7" x="396.72" y="119.52" width="15.62" height="8.75" rx="4.37" ry="4.37"/><line class="cls-13" x1="355.47" y1="111.9" x2="411.99" y2="111.9"/><line class="cls-13" x1="290.9" y1="111.9" x2="347.42" y2="111.9"/><line class="cls-13" x1="155.15" y1="87.9" x2="275.22" y2="87.9"/><rect class="cls-16" x="181.63" y="71.52" width="67.12" height="8.75" rx="4.37" ry="4.37"/><rect class="cls-10" x="160.15" y="95.52" width="45.12" height="8.75" rx="4.37" ry="4.37"/><rect class="cls-15" x="224.4" y="95.52" width="46.87" height="8.75" rx="4.37" ry="4.37"/><rect class="cls-5" x="154.65" y="119.52" width="15.62" height="8.75" rx="4.37" ry="4.37"/><rect class="cls-6" x="174.78" y="119.52" width="15.62" height="8.75" rx="4.37" ry="4.37"/><rect class="cls-7" x="195.15" y="119.52" width="15.62" height="8.75" rx="4.37" ry="4.37"/><rect class="cls-5" x="219.78" y="119.52" width="15.62" height="8.75" rx="4.37" ry="4.37"/><rect class="cls-6" x="239.9" y="119.52" width="15.62" height="8.75" rx="4.37" ry="4.37"/><rect class="cls-7" x="260.28" y="119.52" width="15.62" height="8.75" rx="4.37" ry="4.37"/><line class="cls-13" x1="219.03" y1="111.9" x2="275.54" y2="111.9"/><line class="cls-13" x1="154.45" y1="111.9" x2="210.97" y2="111.9"/><rect class="cls-9" x="6.32" y="55.64" width="17.84" height="8.73" rx="3.12" ry="3.12"/><rect class="cls-15" x="28.83" y="55.64" width="17.84" height="8.73" rx="3.12" ry="3.12"/><rect class="cls-11" x="51.35" y="55.64" width="17.84" height="8.73" rx="3.12" ry="3.12"/><rect class="cls-11" x="73.86" y="55.64" width="17.84" height="8.73" rx="3.12" ry="3.12"/><rect class="cls-11" x="96.37" y="55.64" width="17.84" height="8.73" rx="3.12" ry="3.12"/><line class="cls-12" x1="2.58" y1="66.55" x2="114.93" y2="66.55"/><rect class="cls-9" x="6.32" y="69.13" width="17.84" height="8.73" rx="3.12" ry="3.12"/><rect class="cls-15" x="28.83" y="69.13" width="17.84" height="8.73" rx="3.12" ry="3.12"/><rect class="cls-11" x="51.35" y="69.13" width="17.84" height="8.73" rx="3.12" ry="3.12"/><rect class="cls-11" x="73.86" y="69.13" width="17.84" height="8.73" rx="3.12" ry="3.12"/><rect class="cls-11" x="96.37" y="69.13" width="17.84" height="8.73" rx="3.12" ry="3.12"/><line class="cls-17" x1="151.73" y1="135.9" x2="415.66" y2="135.9"/><rect class="cls-11" x="291.29" y="143.52" width="15.62" height="8.75" rx="4.37" ry="4.37"/><rect class="cls-11" x="311.42" y="143.52" width="15.62" height="8.75" rx="4.37" ry="4.37"/><rect class="cls-11" x="331.79" y="143.52" width="15.62" height="8.75" rx="4.37" ry="4.37"/><rect class="cls-11" x="356.42" y="143.52" width="15.62" height="8.75" rx="4.37" ry="4.37"/><rect class="cls-11" x="376.54" y="143.52" width="15.62" height="8.75" rx="4.37" ry="4.37"/><rect class="cls-11" x="396.92" y="143.52" width="15.62" height="8.75" rx="4.37" ry="4.37"/><rect class="cls-11" x="154.85" y="143.52" width="15.62" height="8.75" rx="4.37" ry="4.37"/><rect class="cls-11" x="174.97" y="143.52" width="15.62" height="8.75" rx="4.37" ry="4.37"/><rect class="cls-11" x="195.35" y="143.52" width="15.62" height="8.75" rx="4.37" ry="4.37"/><rect class="cls-11" x="219.97" y="143.52" width="15.62" height="8.75" rx="4.37" ry="4.37"/><rect class="cls-11" x="240.1" y="143.52" width="15.62" height="8.75" rx="4.37" ry="4.37"/><rect class="cls-11" x="260.47" y="143.52" width="15.62" height="8.75" rx="4.37" ry="4.37"/><rect class="cls-11" x="291.29" y="155.52" width="15.62" height="8.75" rx="4.37" ry="4.37"/><rect class="cls-11" x="311.42" y="155.52" width="15.62" height="8.75" rx="4.37" ry="4.37"/><rect class="cls-11" x="331.79" y="155.52" width="15.62" height="8.75" rx="4.37" ry="4.37"/><rect class="cls-11" x="356.42" y="155.52" width="15.62" height="8.75" rx="4.37" ry="4.37"/><rect class="cls-11" x="376.54" y="155.52" width="15.62" height="8.75" rx="4.37" ry="4.37"/><rect class="cls-11" x="396.92" y="155.52" width="15.62" height="8.75" rx="4.37" ry="4.37"/><rect class="cls-11" x="154.85" y="155.52" width="15.62" height="8.75" rx="4.37" ry="4.37"/><rect class="cls-11" x="174.97" y="155.52" width="15.62" height="8.75" rx="4.37" ry="4.37"/><rect class="cls-11" x="195.35" y="155.52" width="15.62" height="8.75" rx="4.37" ry="4.37"/><rect class="cls-11" x="219.97" y="155.52" width="15.62" height="8.75" rx="4.37" ry="4.37"/><rect class="cls-11" x="240.1" y="155.52" width="15.62" height="8.75" rx="4.37" ry="4.37"/><rect class="cls-11" x="260.47" y="155.52" width="15.62" height="8.75" rx="4.37" ry="4.37"/><line class="cls-12" x1="2.58" y1="53.51" x2="114.93" y2="53.51"/><line class="cls-12" x1="2.58" y1="80.44" x2="114.93" y2="80.44"/><rect class="cls-9" x="6.32" y="83.02" width="17.84" height="8.73" rx="3.12" ry="3.12"/><rect class="cls-15" x="28.83" y="83.02" width="17.84" height="8.73" rx="3.12" ry="3.12"/><rect class="cls-11" x="51.35" y="83.02" width="17.84" height="8.73" rx="3.12" ry="3.12"/><rect class="cls-11" x="73.86" y="83.02" width="17.84" height="8.73" rx="3.12" ry="3.12"/><rect class="cls-11" x="96.37" y="83.02" width="17.84" height="8.73" rx="3.12" ry="3.12"/><line class="cls-12" x1="2.58" y1="93.94" x2="114.93" y2="93.94"/><rect class="cls-14" x="6.32" y="96.52" width="17.84" height="8.73" rx="3.12" ry="3.12"/><rect class="cls-10" x="28.83" y="96.52" width="17.84" height="8.73" rx="3.12" ry="3.12"/><rect class="cls-11" x="51.35" y="96.52" width="17.84" height="8.73" rx="3.12" ry="3.12"/><rect class="cls-11" x="73.86" y="96.52" width="17.84" height="8.73" rx="3.12" ry="3.12"/><rect class="cls-11" x="96.37" y="96.52" width="17.84" height="8.73" rx="3.12" ry="3.12"/><rect class="cls-14" x="6.32" y="109.51" width="17.84" height="8.73" rx="3.12" ry="3.12"/><rect class="cls-10" x="28.83" y="109.51" width="17.84" height="8.73" rx="3.12" ry="3.12"/><rect class="cls-11" x="51.35" y="109.51" width="17.84" height="8.73" rx="3.12" ry="3.12"/><rect class="cls-11" x="73.86" y="109.51" width="17.84" height="8.73" rx="3.12" ry="3.12"/><rect class="cls-11" x="96.37" y="109.51" width="17.84" height="8.73" rx="3.12" ry="3.12"/><line class="cls-12" x1="2.58" y1="120.42" x2="114.93" y2="120.42"/><rect class="cls-14" x="6.32" y="123" width="17.84" height="8.73" rx="3.12" ry="3.12"/><rect class="cls-10" x="28.83" y="123" width="17.84" height="8.73" rx="3.12" ry="3.12"/><rect class="cls-11" x="51.35" y="123" width="17.84" height="8.73" rx="3.12" ry="3.12"/><rect class="cls-11" x="73.86" y="123" width="17.84" height="8.73" rx="3.12" ry="3.12"/><rect class="cls-11" x="96.37" y="123" width="17.84" height="8.73" rx="3.12" ry="3.12"/><line class="cls-12" x1="2.58" y1="107.38" x2="114.93" y2="107.38"/><line class="cls-12" x1="2.58" y1="134.93" x2="114.93" y2="134.93"/><rect class="cls-14" x="6.32" y="137.51" width="17.84" height="8.73" rx="3.12" ry="3.12"/><rect class="cls-15" x="28.83" y="137.51" width="17.84" height="8.73" rx="3.12" ry="3.12"/><rect class="cls-11" x="51.35" y="137.51" width="17.84" height="8.73" rx="3.12" ry="3.12"/><rect class="cls-11" x="73.86" y="137.51" width="17.84" height="8.73" rx="3.12" ry="3.12"/><rect class="cls-11" x="96.37" y="137.51" width="17.84" height="8.73" rx="3.12" ry="3.12"/><rect class="cls-14" x="6.32" y="150.5" width="17.84" height="8.73" rx="3.12" ry="3.12"/><rect class="cls-15" x="28.83" y="150.5" width="17.84" height="8.73" rx="3.12" ry="3.12"/><rect class="cls-11" x="51.35" y="150.5" width="17.84" height="8.73" rx="3.12" ry="3.12"/><rect class="cls-11" x="73.86" y="150.5" width="17.84" height="8.73" rx="3.12" ry="3.12"/><rect class="cls-11" x="96.37" y="150.5" width="17.84" height="8.73" rx="3.12" ry="3.12"/><line class="cls-12" x1="2.58" y1="161.42" x2="114.93" y2="161.42"/><rect class="cls-14" x="6.32" y="164" width="17.84" height="8.73" rx="3.12" ry="3.12"/><rect class="cls-15" x="28.83" y="164" width="17.84" height="8.73" rx="3.12" ry="3.12"/><rect class="cls-11" x="51.35" y="164" width="17.84" height="8.73" rx="3.12" ry="3.12"/><rect class="cls-11" x="73.86" y="164" width="17.84" height="8.73" rx="3.12" ry="3.12"/><rect class="cls-11" x="96.37" y="164" width="17.84" height="8.73" rx="3.12" ry="3.12"/><line class="cls-12" x1="2.58" y1="148.37" x2="114.93" y2="148.37"/><use id="Arrow_26-3" data-name="Arrow 26" width="45.72" height="26.28" transform="translate(129.9 10.64) scale(0.47 0.51)" xlink:href="#Arrow_26"/><line class="cls-17" x1="151.73" y1="63.9" x2="415.66" y2="63.9"/><line class="cls-17" x1="151.73" y1="172.57" x2="415.66" y2="172.57"/><path class="cls-18" d="M170.33,15.79a2.06,2.06,0,0,1,1.45.43,1.75,1.75,0,0,1,.47,1.37v3.65h-.64l-.17-.76h0a2.46,2.46,0,0,1-.74.65,2.24,2.24,0,0,1-1.06.21,1.87,1.87,0,0,1-1.21-.39,1.43,1.43,0,0,1-.48-1.2,1.41,1.41,0,0,1,.63-1.23,3.69,3.69,0,0,1,1.94-.48l.91,0v-.32a1,1,0,0,0-1.11-1.19,2.67,2.67,0,0,0-.8.12,6.57,6.57,0,0,0-.71.29l-.27-.66a4.63,4.63,0,0,1,.83-.33A3.71,3.71,0,0,1,170.33,15.79Zm1,2.83-.79,0a2.67,2.67,0,0,0-1.38.32.92.92,0,0,0-.39.79.79.79,0,0,0,.28.66,1.12,1.12,0,0,0,.7.21,1.71,1.71,0,0,0,1.13-.38,1.41,1.41,0,0,0,.45-1.15Z"/><path class="cls-18" d="M175.81,21.34a2,2,0,0,1-1.6-.69,3.13,3.13,0,0,1-.6-2.08,3.11,3.11,0,0,1,.61-2.08,2.23,2.23,0,0,1,2.62-.48,2.05,2.05,0,0,1,.64.56h.06c0-.09,0-.21,0-.38s0-.31,0-.41V13.64h.88v7.6h-.71l-.13-.72h0a2,2,0,0,1-.64.58A2,2,0,0,1,175.81,21.34Zm.14-.73a1.43,1.43,0,0,0,1.2-.46,2.39,2.39,0,0,0,.34-1.41v-.16a3,3,0,0,0-.33-1.54,1.32,1.32,0,0,0-1.22-.53,1.18,1.18,0,0,0-1.06.56,2.83,2.83,0,0,0-.36,1.52,2.62,2.62,0,0,0,.36,1.49A1.21,1.21,0,0,0,176,20.61Z"/><path class="cls-18" d="M182,21.34a2,2,0,0,1-1.6-.69,3.13,3.13,0,0,1-.6-2.08,3.11,3.11,0,0,1,.61-2.08,2,2,0,0,1,1.6-.71,1.93,1.93,0,0,1,1.66.79h.06c0-.09,0-.21,0-.38s0-.31,0-.41V13.64h.88v7.6h-.71l-.13-.72h0a2,2,0,0,1-.64.58A2,2,0,0,1,182,21.34Zm.14-.73a1.43,1.43,0,0,0,1.2-.46,2.39,2.39,0,0,0,.34-1.41v-.16a3,3,0,0,0-.33-1.54,1.32,1.32,0,0,0-1.22-.53,1.17,1.17,0,0,0-1.06.56,2.83,2.83,0,0,0-.36,1.52,2.62,2.62,0,0,0,.36,1.49A1.2,1.2,0,0,0,182.1,20.61Z"/><path class="cls-18" d="M188.59,21.24h-.9V14.89h-2.23V14.1h5.35v.79h-2.22Z"/><path class="cls-18" d="M193.77,15.78h.32l.31.05-.11.81-.29,0-.29,0a1.36,1.36,0,0,0-.77.23,1.46,1.46,0,0,0-.57.63,1.87,1.87,0,0,0-.22.94v2.86h-.88V15.88H192l.1,1h0a2.55,2.55,0,0,1,.67-.76A1.55,1.55,0,0,1,193.77,15.78Z"/><path class="cls-18" d="M197.23,15.79a2.06,2.06,0,0,1,1.45.43,1.75,1.75,0,0,1,.47,1.37v3.65h-.64l-.17-.76h0a2.46,2.46,0,0,1-.74.65,2.24,2.24,0,0,1-1.06.21,1.87,1.87,0,0,1-1.21-.39,1.43,1.43,0,0,1-.48-1.2,1.41,1.41,0,0,1,.63-1.23,3.69,3.69,0,0,1,1.94-.48l.91,0v-.32a1,1,0,0,0-1.11-1.19,2.67,2.67,0,0,0-.8.12,6.57,6.57,0,0,0-.71.29l-.27-.66a4.63,4.63,0,0,1,.83-.33A3.71,3.71,0,0,1,197.23,15.79Zm1.05,2.83-.79,0a2.64,2.64,0,0,0-1.38.32.92.92,0,0,0-.39.79.76.76,0,0,0,.28.66,1.12,1.12,0,0,0,.7.21,1.73,1.73,0,0,0,1.13-.38,1.41,1.41,0,0,0,.45-1.15Z"/><path class="cls-18" d="M203.39,15.78a2,2,0,0,1,1.45.47,2,2,0,0,1,.49,1.5v3.49h-.87V17.81q0-1.29-1.2-1.29A1.4,1.4,0,0,0,202,17a2.59,2.59,0,0,0-.34,1.44v2.78h-.88V15.88h.71l.13.73h0a1.6,1.6,0,0,1,.72-.62A2.32,2.32,0,0,1,203.39,15.78Z"/><path class="cls-18" d="M210.48,19.76a1.34,1.34,0,0,1-.58,1.18,2.65,2.65,0,0,1-1.56.4,4.48,4.48,0,0,1-1-.09,2.9,2.9,0,0,1-.72-.25v-.8a4.59,4.59,0,0,0,.78.29,3.21,3.21,0,0,0,.92.14,1.63,1.63,0,0,0,1-.22.66.66,0,0,0,.3-.57.59.59,0,0,0-.11-.36,1.11,1.11,0,0,0-.39-.32,5.25,5.25,0,0,0-.82-.36,8.57,8.57,0,0,1-.89-.4,1.7,1.7,0,0,1-.57-.48,1.25,1.25,0,0,1-.2-.72,1.2,1.2,0,0,1,.56-1.05,2.54,2.54,0,0,1,1.45-.37,3.87,3.87,0,0,1,.92.1,4.57,4.57,0,0,1,.79.26l-.3.7a6.56,6.56,0,0,0-.71-.24,2.73,2.73,0,0,0-.76-.1,1.64,1.64,0,0,0-.82.17.55.55,0,0,0-.29.48.6.6,0,0,0,.13.38,1.38,1.38,0,0,0,.44.3c.2.1.47.21.81.34a7.38,7.38,0,0,1,.87.39,1.54,1.54,0,0,1,.55.48A1.27,1.27,0,0,1,210.48,19.76Z"/><path class="cls-18" d="M220.1,14.1l-1.9,7.14h-.91l-1.39-4.68c-.06-.19-.11-.38-.16-.57s-.1-.38-.13-.53a2.78,2.78,0,0,1-.07-.31,3.11,3.11,0,0,1-.11.55c-.06.29-.14.58-.23.89l-1.35,4.65h-.91l-1.89-7.14H212l1.11,4.36c.08.31.15.6.21.89s.1.56.13.81c0-.26.09-.54.15-.85s.15-.61.23-.9l1.26-4.31H216l1.31,4.34a7.79,7.79,0,0,1,.24.92c.07.31.12.57.15.8a6.76,6.76,0,0,1,.14-.8c.06-.29.13-.6.21-.91l1.1-4.35Z"/><path class="cls-18" d="M221.53,13.87a.53.53,0,0,1,.36.13.58.58,0,0,1,.15.43.56.56,0,0,1-.15.43.53.53,0,0,1-.36.13.54.54,0,0,1-.37-.13.56.56,0,0,1-.15-.43.58.58,0,0,1,.15-.43A.54.54,0,0,1,221.53,13.87Zm.43,2v5.36h-.88V15.88Z"/><path class="cls-18" d="M225.56,21.34a2,2,0,0,1-1.6-.69,3.13,3.13,0,0,1-.6-2.08,3.06,3.06,0,0,1,.61-2.08,2,2,0,0,1,1.6-.71,1.93,1.93,0,0,1,1.66.79h.06c0-.09,0-.21,0-.38s0-.31,0-.41V13.64h.88v7.6h-.71l-.13-.72h0a2,2,0,0,1-.64.58A2,2,0,0,1,225.56,21.34Zm.14-.73a1.43,1.43,0,0,0,1.2-.46,2.39,2.39,0,0,0,.34-1.41v-.16a3,3,0,0,0-.33-1.54,1.32,1.32,0,0,0-1.22-.53,1.17,1.17,0,0,0-1.06.56,2.83,2.83,0,0,0-.36,1.52,2.62,2.62,0,0,0,.36,1.49A1.2,1.2,0,0,0,225.7,20.61Z"/><path class="cls-18" d="M231.88,15.78a2.23,2.23,0,0,1,1.18.3,2,2,0,0,1,.77.84,2.87,2.87,0,0,1,.26,1.28v.53h-3.67a2,2,0,0,0,.47,1.38,1.6,1.6,0,0,0,1.24.48,3.62,3.62,0,0,0,.91-.1,4.81,4.81,0,0,0,.81-.27V21a3.63,3.63,0,0,1-.81.26,4.31,4.31,0,0,1-.95.09,2.8,2.8,0,0,1-1.35-.31,2.22,2.22,0,0,1-.9-.92,3.15,3.15,0,0,1-.33-1.51,3.48,3.48,0,0,1,.3-1.51,2.26,2.26,0,0,1,.83-1A2.22,2.22,0,0,1,231.88,15.78Zm0,.72a1.25,1.25,0,0,0-1,.4,2,2,0,0,0-.44,1.13h2.73a1.85,1.85,0,0,0-.32-1.11A1.12,1.12,0,0,0,231.87,16.5Z"/><path class="cls-18" d="M235,18.5a7.69,7.69,0,0,1,.36-2.35,5.92,5.92,0,0,1,1.11-2h.83a7,7,0,0,0-1.05,2.07,7.6,7.6,0,0,0-.36,2.32,7.44,7.44,0,0,0,.36,2.28,7,7,0,0,0,1,2.05h-.82a5.62,5.62,0,0,1-1.11-2A7.46,7.46,0,0,1,235,18.5Z"/><path class="cls-18" d="M261.6,17.08v-.71h4.58v.71Zm0,2v-.71h4.58v.71Z"/><path class="cls-18" d="M271.11,21.24h-.88v-7.6h.88Z"/><path class="cls-18" d="M273.26,13.87a.53.53,0,0,1,.36.13.58.58,0,0,1,.15.43.56.56,0,0,1-.15.43.53.53,0,0,1-.36.13.54.54,0,0,1-.37-.13.56.56,0,0,1-.15-.43.58.58,0,0,1,.15-.43A.54.54,0,0,1,273.26,13.87Zm.43,2v5.36h-.88V15.88Z"/><path class="cls-18" d="M278.88,19.76a1.34,1.34,0,0,1-.58,1.18,2.65,2.65,0,0,1-1.56.4,4.48,4.48,0,0,1-1-.09,2.9,2.9,0,0,1-.72-.25v-.8a4.59,4.59,0,0,0,.78.29,3.21,3.21,0,0,0,.92.14,1.63,1.63,0,0,0,1-.22.66.66,0,0,0,.3-.57.59.59,0,0,0-.11-.36,1.11,1.11,0,0,0-.39-.32,5.25,5.25,0,0,0-.82-.36,8.57,8.57,0,0,1-.89-.4,1.7,1.7,0,0,1-.57-.48,1.25,1.25,0,0,1-.2-.72,1.2,1.2,0,0,1,.56-1.05,2.54,2.54,0,0,1,1.45-.37,3.87,3.87,0,0,1,.92.1,4.57,4.57,0,0,1,.79.26l-.3.7a6.56,6.56,0,0,0-.71-.24,2.73,2.73,0,0,0-.76-.1,1.64,1.64,0,0,0-.82.17.55.55,0,0,0-.29.48.6.6,0,0,0,.13.38,1.38,1.38,0,0,0,.44.3c.2.1.47.21.81.34a7.38,7.38,0,0,1,.87.39,1.54,1.54,0,0,1,.55.48A1.27,1.27,0,0,1,278.88,19.76Z"/><path class="cls-18" d="M282,20.62l.41,0a1.71,1.71,0,0,0,.34-.08v.67a1.14,1.14,0,0,1-.4.11,2.92,2.92,0,0,1-.5.05,2.11,2.11,0,0,1-.77-.14,1.24,1.24,0,0,1-.58-.51,1.92,1.92,0,0,1-.22-1V16.56h-.76v-.42l.77-.35.35-1.14h.52v1.23h1.55v.68h-1.55v3.1a1,1,0,0,0,.24.72A.78.78,0,0,0,282,20.62Z"/><path class="cls-18" d="M283.34,18.5a7.69,7.69,0,0,1,.36-2.35,5.92,5.92,0,0,1,1.11-2h.83a7,7,0,0,0-1.05,2.07,7.6,7.6,0,0,0-.36,2.32,7.44,7.44,0,0,0,.36,2.28,7,7,0,0,0,1,2.05h-.82a5.62,5.62,0,0,1-1.11-2A7.46,7.46,0,0,1,283.34,18.5Z"/><path class="cls-18" d="M309.94,17.08v-.71h4.58v.71Zm0,2v-.71h4.58v.71Z"/><path class="cls-18" d="M320.72,21.34a2.73,2.73,0,0,1-1.27-.29,2,2,0,0,1-.86-.9,3.41,3.41,0,0,1-.32-1.56A3.41,3.41,0,0,1,318.6,17a2,2,0,0,1,.89-.91,2.85,2.85,0,0,1,1.29-.29,4.15,4.15,0,0,1,.79.08,3,3,0,0,1,.62.21l-.27.73a4.73,4.73,0,0,0-.56-.17,2.61,2.61,0,0,0-.6-.08c-1.05,0-1.58.68-1.58,2a2.45,2.45,0,0,0,.39,1.49,1.32,1.32,0,0,0,1.14.51,3,3,0,0,0,.77-.09,3.47,3.47,0,0,0,.62-.22v.78a3.43,3.43,0,0,1-.59.22A3.62,3.62,0,0,1,320.72,21.34Z"/><path class="cls-18" d="M322.92,18.5a7.69,7.69,0,0,1,.36-2.35,5.76,5.76,0,0,1,1.11-2h.83a6.74,6.74,0,0,0-1.05,2.07,7.6,7.6,0,0,0-.36,2.32,7.44,7.44,0,0,0,.36,2.28,7,7,0,0,0,1,2.05h-.82a5.47,5.47,0,0,1-1.11-2A7.46,7.46,0,0,1,322.92,18.5Z"/><path class="cls-18" d="M345.56,20.08l.07.11a12,12,0,0,1-.38,1.17q-.24.63-.48,1.17h-.65c.09-.38.19-.8.28-1.25s.17-.85.22-1.2Z"/><path class="cls-18" d="M369,20.08l.07.11a12,12,0,0,1-.38,1.17q-.24.63-.48,1.17h-.65c.09-.38.19-.8.28-1.25s.17-.85.22-1.2Z"/><path class="cls-18" d="M393.24,18.5a7.46,7.46,0,0,1-.36,2.32,5.47,5.47,0,0,1-1.11,2H391a7,7,0,0,0,1-2.05,7.44,7.44,0,0,0,.36-2.28,7.6,7.6,0,0,0-.36-2.32,6.74,6.74,0,0,0-1.05-2.07h.83a5.76,5.76,0,0,1,1.11,2A7.69,7.69,0,0,1,393.24,18.5Z"/><path class="cls-18" d="M396.24,18.5a7.46,7.46,0,0,1-.36,2.32,5.47,5.47,0,0,1-1.11,2H394a7,7,0,0,0,1-2.05,7.44,7.44,0,0,0,.36-2.28,7.6,7.6,0,0,0-.36-2.32,6.74,6.74,0,0,0-1.05-2.07h.83a5.76,5.76,0,0,1,1.11,2A7.69,7.69,0,0,1,396.24,18.5Z"/><path class="cls-19" d="M17.5,9.87l-.86-2.21H13.81L13,9.87h-.91L14.84,2.7h.81l2.78,7.17Zm-1.13-3-.8-2.16-.1-.29c-.05-.14-.09-.29-.13-.44s-.08-.26-.11-.34c-.05.2-.11.4-.17.6s-.1.35-.14.47l-.81,2.16Z"/><path class="cls-19" d="M35.89,2.91h2a4.21,4.21,0,0,1,2,.4,1.46,1.46,0,0,1,.68,1.37,1.6,1.6,0,0,1-.34,1.05,1.68,1.68,0,0,1-1,.53v0a3.21,3.21,0,0,1,.81.27,1.51,1.51,0,0,1,.58.54,1.87,1.87,0,0,1,.21.9,1.81,1.81,0,0,1-.67,1.5,2.79,2.79,0,0,1-1.81.53H35.89Zm.91,3h1.32a2,2,0,0,0,1.25-.29,1.1,1.1,0,0,0,.35-.88.91.91,0,0,0-.42-.84A2.64,2.64,0,0,0,38,3.68H36.8Zm0,.75V9.29h1.43a1.86,1.86,0,0,0,1.33-.37,1.33,1.33,0,0,0,.37-1,1.14,1.14,0,0,0-.39-.9,2.07,2.07,0,0,0-1.37-.35Z"/><path class="cls-19" d="M61.78,3.86A2.23,2.23,0,0,0,60,4.63a3.12,3.12,0,0,0-.66,2.11,3.28,3.28,0,0,0,.62,2.1,2.2,2.2,0,0,0,1.84.78,5,5,0,0,0,.88-.08c.28-.06.56-.12.83-.2v.78a4.73,4.73,0,0,1-.82.22,7.42,7.42,0,0,1-1,.07A3.41,3.41,0,0,1,59.82,10a2.74,2.74,0,0,1-1.09-1.28,4.74,4.74,0,0,1-.37-1.95,4.29,4.29,0,0,1,.4-1.91,3,3,0,0,1,1.16-1.29,3.55,3.55,0,0,1,1.87-.46,4.36,4.36,0,0,1,2,.42l-.36.76A5.59,5.59,0,0,0,62.67,4,3.14,3.14,0,0,0,61.78,3.86Z"/><path class="cls-19" d="M86,6.41a3.53,3.53,0,0,1-1,2.73,3.88,3.88,0,0,1-2.75.91h-2V2.91h2.2a4.19,4.19,0,0,1,1.87.4,2.78,2.78,0,0,1,1.22,1.18A3.89,3.89,0,0,1,86,6.41Zm-1,0a2.75,2.75,0,0,0-.7-2.09,2.83,2.83,0,0,0-2-.67H81.18v5.6h1C84.09,9.28,85.05,8.34,85.05,6.44Z"/><path class="cls-19" d="M107.59,10.05h-4V2.91h4V3.7H104.5V5.93h2.91v.78H104.5V9.26h3.09Z"/><path class="cls-19" d="M162.35,121.67a1.8,1.8,0,0,0-1.45.62,2.52,2.52,0,0,0-.53,1.69,2.67,2.67,0,0,0,.49,1.68,1.76,1.76,0,0,0,1.48.62,4,4,0,0,0,.7-.06c.23,0,.45-.1.67-.16v.62a4,4,0,0,1-.66.18,4.88,4.88,0,0,1-.81,0,2.82,2.82,0,0,1-1.46-.35,2.28,2.28,0,0,1-.88-1,3.91,3.91,0,0,1-.29-1.56,3.5,3.5,0,0,1,.32-1.52,2.4,2.4,0,0,1,.93-1,2.92,2.92,0,0,1,1.5-.37,3.39,3.39,0,0,1,1.57.34l-.29.61a3.9,3.9,0,0,0-.58-.22A2.71,2.71,0,0,0,162.35,121.67Z"/><path class="cls-19" d="M185,123.67a2.86,2.86,0,0,1-.79,2.18,3.11,3.11,0,0,1-2.2.73h-1.59v-5.71h1.76a3.31,3.31,0,0,1,1.49.32,2.23,2.23,0,0,1,1,.94A3.16,3.16,0,0,1,185,123.67Zm-.76,0a1.94,1.94,0,0,0-2.16-2.2h-.94V126H182A2,2,0,0,0,184.28,123.69Z"/><path class="cls-19" d="M205,126.58h-3.2v-5.71H205v.63h-2.48v1.78h2.33v.63h-2.33v2H205Z"/><rect class="cls-2" x="242.06" y="13.39" width="15.62" height="10.42" rx="4.37" ry="4.37"/><path class="cls-19" d="M251.81,22.52,251,20.31h-2.83l-.85,2.21h-.91l2.79-7.17H250l2.78,7.17Zm-1.13-3-.8-2.16a2.86,2.86,0,0,1-.1-.29c-.05-.14-.1-.28-.14-.43s-.08-.27-.1-.35c-.06.21-.11.41-.17.61s-.1.35-.14.46l-.81,2.16Z"/><rect class="cls-4" x="288.48" y="13.54" width="15.62" height="10.42" rx="4.37" ry="4.37"/><path class="cls-19" d="M294.11,15.23h2a4.08,4.08,0,0,1,2,.4,1.45,1.45,0,0,1,.69,1.37,1.56,1.56,0,0,1-.35,1,1.66,1.66,0,0,1-1,.54v.05a2.58,2.58,0,0,1,.81.27,1.44,1.44,0,0,1,.58.54,1.71,1.71,0,0,1,.21.9,1.78,1.78,0,0,1-.67,1.5,2.85,2.85,0,0,1-1.81.53h-2.51Zm.9,3h1.32a2,2,0,0,0,1.25-.3,1.07,1.07,0,0,0,.35-.87.92.92,0,0,0-.42-.85,2.61,2.61,0,0,0-1.32-.25H295Zm0,.75v2.59h1.44a1.84,1.84,0,0,0,1.32-.37,1.34,1.34,0,0,0,.37-1,1.17,1.17,0,0,0-.39-.91,2.06,2.06,0,0,0-1.37-.34Z"/><rect class="cls-5" x="327.58" y="13.32" width="15.62" height="10.42" rx="4.37" ry="4.37"/><path class="cls-19" d="M335.71,16.14a2.23,2.23,0,0,0-1.81.77,3.12,3.12,0,0,0-.66,2.11,3.28,3.28,0,0,0,.61,2.1,2.22,2.22,0,0,0,1.85.78,5.05,5.05,0,0,0,.88-.08c.28-.06.55-.12.83-.2v.78a4.61,4.61,0,0,1-.83.22,7.16,7.16,0,0,1-1,.07,3.39,3.39,0,0,1-1.82-.45,2.82,2.82,0,0,1-1.1-1.28,4.92,4.92,0,0,1-.36-1.95,4.43,4.43,0,0,1,.39-1.91,3,3,0,0,1,1.17-1.29,3.53,3.53,0,0,1,1.87-.46,4.36,4.36,0,0,1,2,.42l-.36.76a5.76,5.76,0,0,0-.74-.27A3.07,3.07,0,0,0,335.71,16.14Z"/><rect class="cls-6" x="351.17" y="13.45" width="15.62" height="10.42" rx="4.37" ry="4.37"/><path class="cls-19" d="M362.39,18.82a3.55,3.55,0,0,1-1,2.72,3.91,3.91,0,0,1-2.75.92h-2V15.32h2.2a4.09,4.09,0,0,1,1.87.4A2.78,2.78,0,0,1,362,16.9,3.89,3.89,0,0,1,362.39,18.82Zm-.95,0a2.79,2.79,0,0,0-.7-2.1,2.82,2.82,0,0,0-2-.66h-1.17v5.6h1C360.47,21.69,361.44,20.74,361.44,18.85Z"/><rect class="cls-7" x="373.58" y="13.45" width="15.62" height="10.42" rx="4.37" ry="4.37"/><path class="cls-19" d="M383,22.46h-4V15.32h4v.79h-3.09v2.23h2.91v.78h-2.91v2.55H383Z"/><use id="Arrow_26-6" data-name="Arrow 26" width="45.72" height="26.28" transform="matrix(0, 0.47, -0.51, 0, 290.44, 34.58)" xlink:href="#Arrow_26"/><path class="cls-19" d="M227.19,121.55a1.81,1.81,0,0,0-1.45.61,2.53,2.53,0,0,0-.53,1.69,2.66,2.66,0,0,0,.5,1.69,1.75,1.75,0,0,0,1.47.62,4.07,4.07,0,0,0,.71-.07,5.28,5.28,0,0,0,.66-.16v.63a2.91,2.91,0,0,1-.66.17,4.79,4.79,0,0,1-.81.06,2.75,2.75,0,0,1-1.46-.36,2.16,2.16,0,0,1-.87-1,3.74,3.74,0,0,1-.3-1.56,3.5,3.5,0,0,1,.32-1.52,2.38,2.38,0,0,1,.93-1,2.83,2.83,0,0,1,1.5-.37,3.49,3.49,0,0,1,1.57.33l-.29.61a5.45,5.45,0,0,0-.58-.22A2.65,2.65,0,0,0,227.19,121.55Z"/><path class="cls-19" d="M249.88,123.54a2.81,2.81,0,0,1-.79,2.18,3.08,3.08,0,0,1-2.19.73h-1.6v-5.71h1.76a3.38,3.38,0,0,1,1.5.32,2.3,2.3,0,0,1,1,1A3.21,3.21,0,0,1,249.88,123.54Zm-.76,0a2.22,2.22,0,0,0-.56-1.68,2.27,2.27,0,0,0-1.6-.53H246v4.48h.78A2,2,0,0,0,249.12,123.57Z"/><path class="cls-19" d="M269.81,126.45h-3.19v-5.71h3.19v.63h-2.47v1.79h2.32v.62h-2.32v2h2.47Z"/><path class="cls-19" d="M299,121.48a1.8,1.8,0,0,0-1.44.62,2.46,2.46,0,0,0-.53,1.69,2.61,2.61,0,0,0,.49,1.68,1.76,1.76,0,0,0,1.48.62,4,4,0,0,0,.7-.06c.22,0,.44-.1.66-.16v.62a3.57,3.57,0,0,1-.66.18,4.73,4.73,0,0,1-.81,0,2.69,2.69,0,0,1-1.45-.36,2.2,2.2,0,0,1-.88-1,3.75,3.75,0,0,1-.29-1.56,3.47,3.47,0,0,1,.31-1.52,2.37,2.37,0,0,1,.94-1,2.91,2.91,0,0,1,1.49-.37,3.44,3.44,0,0,1,1.58.34l-.29.61a4,4,0,0,0-.59-.22A2.59,2.59,0,0,0,299,121.48Z"/><path class="cls-19" d="M321.69,123.48a2.86,2.86,0,0,1-.78,2.18,3.11,3.11,0,0,1-2.2.73h-1.59v-5.71h1.76a3.18,3.18,0,0,1,1.49.32,2.28,2.28,0,0,1,1,.94A3.16,3.16,0,0,1,321.69,123.48Zm-.76,0a2.17,2.17,0,0,0-.56-1.67,2.23,2.23,0,0,0-1.6-.54h-.93v4.48h.77A2,2,0,0,0,320.93,123.5Z"/><path class="cls-19" d="M341.62,126.39h-3.19v-5.71h3.19v.63h-2.47v1.78h2.33v.63h-2.33v2h2.47Z"/><path class="cls-19" d="M363.85,121.36a1.8,1.8,0,0,0-1.45.61,2.53,2.53,0,0,0-.53,1.69,2.65,2.65,0,0,0,.49,1.69,1.79,1.79,0,0,0,1.48.62,4,4,0,0,0,.7-.07,5.43,5.43,0,0,0,.67-.16v.63a4,4,0,0,1-.66.17,4.83,4.83,0,0,1-.82.06,2.71,2.71,0,0,1-1.45-.36,2.23,2.23,0,0,1-.88-1,3.91,3.91,0,0,1-.29-1.56,3.36,3.36,0,0,1,.32-1.52,2.38,2.38,0,0,1,.93-1,2.82,2.82,0,0,1,1.49-.37,3.54,3.54,0,0,1,1.58.33l-.29.61a4.92,4.92,0,0,0-.59-.22A2.58,2.58,0,0,0,363.85,121.36Z"/><path class="cls-19" d="M386.54,123.35a2.85,2.85,0,0,1-.79,2.18,3.11,3.11,0,0,1-2.2.73H382v-5.71h1.76a3.31,3.31,0,0,1,1.49.32,2.2,2.2,0,0,1,1,.95A3.09,3.09,0,0,1,386.54,123.35Zm-.76,0a2.18,2.18,0,0,0-.57-1.67,2.2,2.2,0,0,0-1.59-.53h-.94v4.48h.78A2,2,0,0,0,385.78,123.37Z"/><path class="cls-19" d="M406.46,126.26h-3.19v-5.71h3.19v.63H404V123h2.33v.62H404v2h2.47Z"/></svg>