<svg id="Layer_1" data-name="Layer 1" xmlns="http://www.w3.org/2000/svg" xmlns:xlink="http://www.w3.org/1999/xlink" viewBox="0 0 416.75 139"><defs><style>.cls-1,.cls-11{fill:none;}.cls-2{fill:#033572;}.cls-3{fill:#bdb5ab;opacity:0.51;}.cls-4{fill:#008782;}.cls-5{fill:#fab600;}.cls-6{fill:#e63812;}.cls-7{fill:#13a337;}.cls-10,.cls-8,.cls-9{fill:#008dd4;}.cls-10,.cls-11,.cls-8{stroke:#1d1d1b;stroke-miterlimit:10;}.cls-11,.cls-8{stroke-width:1.75px;}.cls-9{opacity:0.68;}.cls-12{fill:#1d1d1b;}.cls-13{fill:#fff;}.cls-14{fill:#f3a1c6;}</style><symbol id="Arrow_26" data-name="Arrow 26" viewBox="0 0 45.72 26.28"><rect class="cls-1" width="45.72" height="26.28"/><polygon class="cls-2" points="0 19.48 22.93 19.48 22.93 26.28 45.72 13.14 22.93 0 22.93 6.8 0 6.8 0 19.48"/></symbol></defs><title>NNtable_help_2</title><rect class="cls-3" x="152.58" y="9.33" width="261.67" height="20.34" rx="7.88" ry="7.88"/><rect class="cls-2" x="6.32" y="4.97" width="17.84" height="8.73" rx="3.12" ry="3.12"/><rect class="cls-4" x="28.83" y="4.97" width="17.84" height="8.73" rx="3.12" ry="3.12"/><rect class="cls-5" x="51.35" y="4.97" width="17.84" height="8.73" rx="3.12" ry="3.12"/><rect class="cls-6" x="73.86" y="4.97" width="17.84" height="8.73" rx="3.12" ry="3.12"/><rect class="cls-7" x="96.37" y="4.97" width="17.84" height="8.73" rx="3.12" ry="3.12"/><line class="cls-8" x1="2.58" y1="15.88" x2="117.71" y2="15.88"/><rect class="cls-9" x="6.32" y="18.46" width="17.84" height="8.73" rx="3.12" ry="3.12"/><rect class="cls-9" x="28.83" y="18.46" width="17.84" height="8.73" rx="3.12" ry="3.12"/><rect class="cls-9" x="51.35" y="18.46" width="17.84" height="8.73" rx="3.12" ry="3.12"/><rect class="cls-9" x="73.86" y="18.46" width="17.84" height="8.73" rx="3.12" ry="3.12"/><rect class="cls-9" x="96.37" y="18.46" width="17.84" height="8.73" rx="3.12" ry="3.12"/><line class="cls-10" x1="2.58" y1="29.38" x2="117.71" y2="29.38"/><rect class="cls-9" x="6.32" y="31.96" width="17.84" height="8.73" rx="3.12" ry="3.12"/><rect class="cls-9" x="28.83" y="31.96" width="17.84" height="8.73" rx="3.12" ry="3.12"/><rect class="cls-9" x="51.35" y="31.96" width="17.84" height="8.73" rx="3.12" ry="3.12"/><rect class="cls-9" x="73.86" y="31.96" width="17.84" height="8.73" rx="3.12" ry="3.12"/><rect class="cls-9" x="96.37" y="31.96" width="17.84" height="8.73" rx="3.12" ry="3.12"/><line class="cls-10" x1="2.58" y1="42.87" x2="117.71" y2="42.87"/><rect class="cls-9" x="6.32" y="45.45" width="17.84" height="8.73" rx="3.12" ry="3.12"/><rect class="cls-9" x="28.83" y="45.45" width="17.84" height="8.73" rx="3.12" ry="3.12"/><rect class="cls-9" x="51.35" y="45.45" width="17.84" height="8.73" rx="3.12" ry="3.12"/><rect class="cls-9" x="73.86" y="45.45" width="17.84" height="8.73" rx="3.12" ry="3.12"/><rect class="cls-9" x="96.37" y="45.45" width="17.84" height="8.73" rx="3.12" ry="3.12"/><rect class="cls-9" x="6.32" y="58.45" width="17.84" height="8.73" rx="3.12" ry="3.12"/><rect class="cls-9" x="28.83" y="58.45" width="17.84" height="8.73" rx="3.12" ry="3.12"/><rect class="cls-9" x="51.35" y="58.45" width="17.84" height="8.73" rx="3.12" ry="3.12"/><rect class="cls-9" x="73.86" y="58.45" width="17.84" height="8.73" rx="3.12" ry="3.12"/><rect class="cls-9" x="96.37" y="58.45" width="17.84" height="8.73" rx="3.12" ry="3.12"/><line class="cls-10" x1="2.58" y1="69.36" x2="117.71" y2="69.36"/><rect class="cls-9" x="6.32" y="71.94" width="17.84" height="8.73" rx="3.12" ry="3.12"/><rect class="cls-9" x="28.83" y="71.94" width="17.84" height="8.73" rx="3.12" ry="3.12"/><rect class="cls-9" x="51.35" y="71.94" width="17.84" height="8.73" rx="3.12" ry="3.12"/><rect class="cls-9" x="73.86" y="71.94" width="17.84" height="8.73" rx="3.12" ry="3.12"/><rect class="cls-9" x="96.37" y="71.94" width="17.84" height="8.73" rx="3.12" ry="3.12"/><line class="cls-11" x1="153.91" y1="95.7" x2="415.58" y2="95.7"/><rect class="cls-9" x="166.88" y="103.33" width="15.62" height="8.75" rx="4.37" ry="4.37"/><rect class="cls-9" x="221.45" y="103.33" width="15.62" height="8.75" rx="4.37" ry="4.37"/><rect class="cls-9" x="283.01" y="103.33" width="15.62" height="8.75" rx="4.37" ry="4.37"/><rect class="cls-9" x="376.69" y="103.33" width="15.62" height="8.75" rx="4.37" ry="4.37"/><rect class="cls-9" x="166.88" y="115.33" width="15.62" height="8.75" rx="4.37" ry="4.37"/><rect class="cls-9" x="221.45" y="115.33" width="15.62" height="8.75" rx="4.37" ry="4.37"/><rect class="cls-9" x="283.01" y="115.33" width="15.62" height="8.75" rx="4.37" ry="4.37"/><rect class="cls-9" x="376.69" y="115.33" width="15.62" height="8.75" rx="4.37" ry="4.37"/><line class="cls-10" x1="2.58" y1="56.31" x2="117.71" y2="56.31"/><line class="cls-10" x1="2.58" y1="83.25" x2="117.71" y2="83.25"/><rect class="cls-9" x="6.32" y="85.83" width="17.84" height="8.73" rx="3.12" ry="3.12"/><rect class="cls-9" x="28.83" y="85.83" width="17.84" height="8.73" rx="3.12" ry="3.12"/><rect class="cls-9" x="51.35" y="85.83" width="17.84" height="8.73" rx="3.12" ry="3.12"/><rect class="cls-9" x="73.86" y="85.83" width="17.84" height="8.73" rx="3.12" ry="3.12"/><rect class="cls-9" x="96.37" y="85.83" width="17.84" height="8.73" rx="3.12" ry="3.12"/><line class="cls-10" x1="2.58" y1="96.75" x2="117.71" y2="96.75"/><rect class="cls-9" x="6.32" y="99.33" width="17.84" height="8.73" rx="3.12" ry="3.12"/><rect class="cls-9" x="28.83" y="99.33" width="17.84" height="8.73" rx="3.12" ry="3.12"/><rect class="cls-9" x="51.35" y="99.33" width="17.84" height="8.73" rx="3.12" ry="3.12"/><rect class="cls-9" x="73.86" y="99.33" width="17.84" height="8.73" rx="3.12" ry="3.12"/><rect class="cls-9" x="96.37" y="99.33" width="17.84" height="8.73" rx="3.12" ry="3.12"/><rect class="cls-9" x="6.32" y="112.32" width="17.84" height="8.73" rx="3.12" ry="3.12"/><rect class="cls-9" x="28.83" y="112.32" width="17.84" height="8.73" rx="3.12" ry="3.12"/><rect class="cls-9" x="51.35" y="112.32" width="17.84" height="8.73" rx="3.12" ry="3.12"/><rect class="cls-9" x="73.86" y="112.32" width="17.84" height="8.73" rx="3.12" ry="3.12"/><rect class="cls-9" x="96.37" y="112.32" width="17.84" height="8.73" rx="3.12" ry="3.12"/><line class="cls-10" x1="2.58" y1="123.23" x2="117.71" y2="123.23"/><rect class="cls-9" x="6.32" y="125.81" width="17.84" height="8.73" rx="3.12" ry="3.12"/><rect class="cls-9" x="28.83" y="125.81" width="17.84" height="8.73" rx="3.12" ry="3.12"/><rect class="cls-9" x="51.35" y="125.81" width="17.84" height="8.73" rx="3.12" ry="3.12"/><rect class="cls-9" x="73.86" y="125.81" width="17.84" height="8.73" rx="3.12" ry="3.12"/><rect class="cls-9" x="96.37" y="125.81" width="17.84" height="8.73" rx="3.12" ry="3.12"/><line class="cls-10" x1="2.58" y1="110.19" x2="117.71" y2="110.19"/><use id="Arrow_26-3" data-name="Arrow 26" width="45.72" height="26.28" transform="translate(124.9 13.45) scale(0.47 0.51)" xlink:href="#Arrow_26"/><line class="cls-11" x1="152.58" y1="71.67" x2="414.26" y2="71.67"/><line class="cls-11" x1="153.91" y1="132.38" x2="415.58" y2="132.38"/><path class="cls-12" d="M162.08,23.12H161l-3.82-5.93h0c0,.24,0,.53.05.87s0,.71,0,1.07v4h-.83V16h1l3.81,5.91h0c0-.1,0-.26,0-.48s0-.44,0-.69,0-.49,0-.71V16h.84Z"/><path class="cls-12" d="M169.68,23.12h-1.05l-3.82-5.93h0c0,.24,0,.53,0,.87s0,.71,0,1.07v4H164V16h1l3.81,5.91h0c0-.1,0-.26,0-.48s0-.44,0-.69,0-.49,0-.71V16h.84Z"/><path class="cls-12" d="M173.88,23.12H173V16.77h-2.23V16h5.35v.79h-2.22Z"/><path class="cls-12" d="M178.29,17.67a2.11,2.11,0,0,1,1.45.43,1.77,1.77,0,0,1,.47,1.37v3.65h-.64l-.17-.76h0a2.33,2.33,0,0,1-.74.65,2.24,2.24,0,0,1-1.06.21,1.92,1.92,0,0,1-1.21-.38,1.46,1.46,0,0,1-.48-1.21,1.41,1.41,0,0,1,.63-1.23,3.69,3.69,0,0,1,1.94-.48l.91,0v-.32a1.21,1.21,0,0,0-.29-.93,1.19,1.19,0,0,0-.82-.26,2.4,2.4,0,0,0-.8.13,6.56,6.56,0,0,0-.71.28l-.27-.66a4.64,4.64,0,0,1,.83-.32A3.72,3.72,0,0,1,178.29,17.67Zm1.05,2.83-.79,0a2.78,2.78,0,0,0-1.38.32.92.92,0,0,0-.39.79.79.79,0,0,0,.28.66,1.12,1.12,0,0,0,.7.21,1.71,1.71,0,0,0,1.13-.37,1.43,1.43,0,0,0,.45-1.16Z"/><path class="cls-12" d="M182.75,15.52v1.85c0,.23,0,.44,0,.64a3.92,3.92,0,0,1,0,.46h.05a2.18,2.18,0,0,1,.63-.57,2.09,2.09,0,0,1,1-.23,2,2,0,0,1,1.61.7,3.08,3.08,0,0,1,.6,2.07,3.06,3.06,0,0,1-.61,2.08,2.09,2.09,0,0,1-3.26-.08h-.07l-.18.68h-.63v-7.6Zm1.51,2.88a1.33,1.33,0,0,0-1.18.49,2.79,2.79,0,0,0-.33,1.52v0a2.88,2.88,0,0,0,.33,1.52,1.3,1.3,0,0,0,1.2.52,1.2,1.2,0,0,0,1.08-.53,2.71,2.71,0,0,0,.35-1.53C185.71,19.08,185.23,18.4,184.26,18.4Z"/><path class="cls-12" d="M188.9,23.12H188v-7.6h.88Z"/><path class="cls-12" d="M192.67,17.66a2.23,2.23,0,0,1,1.18.3,1.93,1.93,0,0,1,.77.85,2.83,2.83,0,0,1,.26,1.27v.53h-3.67a2.05,2.05,0,0,0,.47,1.39,1.63,1.63,0,0,0,1.24.47,4.19,4.19,0,0,0,.91-.09,6,6,0,0,0,.81-.28v.77a4.28,4.28,0,0,1-.81.27,5.11,5.11,0,0,1-1,.08,2.8,2.8,0,0,1-1.35-.31,2.16,2.16,0,0,1-.9-.92,3.12,3.12,0,0,1-.33-1.51,3.51,3.51,0,0,1,.3-1.51,2.26,2.26,0,0,1,.83-1A2.3,2.3,0,0,1,192.67,17.66Zm0,.72a1.26,1.26,0,0,0-1,.41,1.94,1.94,0,0,0-.44,1.12H194a1.79,1.79,0,0,0-.32-1.1A1.11,1.11,0,0,0,192.66,18.38Z"/><path class="cls-12" d="M195.79,20.38a7.74,7.74,0,0,1,.36-2.35A5.92,5.92,0,0,1,197.26,16h.83A7,7,0,0,0,197,18.05a7.65,7.65,0,0,0-.36,2.32,7.39,7.39,0,0,0,.36,2.28,6.84,6.84,0,0,0,1,2.05h-.82a5.58,5.58,0,0,1-1.11-2A7.52,7.52,0,0,1,195.79,20.38Z"/><path class="cls-12" d="M218.43,22l.07.11a11.2,11.2,0,0,1-.38,1.17q-.24.63-.48,1.17H217c.1-.38.19-.79.29-1.25s.17-.85.21-1.2Z"/><path class="cls-12" d="M239.29,22l.07.11a11.2,11.2,0,0,1-.38,1.17q-.24.63-.48,1.17h-.65c.1-.38.19-.79.29-1.25s.17-.85.21-1.2Z"/><path class="cls-12" d="M287.51,19v-.71h4.58V19Zm0,2v-.71h4.58V21Z"/><path class="cls-12" d="M301.09,19v-.71h4.58V19Zm0,2v-.71h4.58V21Z"/><path class="cls-12" d="M313.31,22l.07.11a11.2,11.2,0,0,1-.38,1.17q-.24.63-.48,1.17h-.65c.09-.38.19-.79.29-1.25s.16-.85.21-1.2Z"/><path class="cls-12" d="M327.53,20.38a7.74,7.74,0,0,1,.36-2.35A5.76,5.76,0,0,1,329,16h.83a7,7,0,0,0-1.06,2.07,8,8,0,0,0-.35,2.32,7.69,7.69,0,0,0,.35,2.28,7.11,7.11,0,0,0,1.05,2.05H329a5.43,5.43,0,0,1-1.11-2A7.52,7.52,0,0,1,327.53,20.38Z"/><path class="cls-12" d="M337.93,20.38a7.82,7.82,0,0,1-.35,2.33,5.6,5.6,0,0,1-1.12,2h-.82a7.11,7.11,0,0,0,1.05-2.05,7.69,7.69,0,0,0,.35-2.28,8,8,0,0,0-.35-2.32A7,7,0,0,0,335.63,16h.83A6,6,0,0,1,337.58,18,8.06,8.06,0,0,1,337.93,20.38Z"/><path class="cls-12" d="M340.17,22l.07.11a11.2,11.2,0,0,1-.38,1.17q-.24.63-.48,1.17h-.65c.09-.38.19-.79.28-1.25s.17-.85.22-1.2Z"/><path class="cls-12" d="M348.79,20.38a7.52,7.52,0,0,1-.36,2.33,5.43,5.43,0,0,1-1.11,2h-.82a7.11,7.11,0,0,0,1.05-2.05,7.69,7.69,0,0,0,.35-2.28,8,8,0,0,0-.35-2.32A7,7,0,0,0,346.49,16h.83A5.76,5.76,0,0,1,348.43,18,7.74,7.74,0,0,1,348.79,20.38Z"/><path class="cls-12" d="M353.63,22l.07.11a11.2,11.2,0,0,1-.38,1.17q-.24.63-.48,1.17h-.65c.09-.38.19-.79.28-1.25s.17-.85.22-1.2Z"/><path class="cls-12" d="M386.25,19v-.71h4.58V19Zm0,2v-.71h4.58V21Z"/><path class="cls-12" d="M412.23,20.38a7.52,7.52,0,0,1-.36,2.33,5.58,5.58,0,0,1-1.11,2h-.82a6.84,6.84,0,0,0,1-2.05,7.39,7.39,0,0,0,.36-2.28,7.65,7.65,0,0,0-.36-2.32A7,7,0,0,0,409.93,16h.83A5.92,5.92,0,0,1,411.87,18,7.74,7.74,0,0,1,412.23,20.38Z"/><path class="cls-13" d="M17.5,12.67l-.86-2.21H13.81L13,12.67h-.91L14.84,5.5h.81l2.78,7.17Zm-1.13-3-.8-2.16-.1-.29c-.05-.14-.09-.28-.13-.43s-.08-.27-.11-.35c-.05.21-.11.41-.17.61a4.55,4.55,0,0,1-.14.46l-.81,2.16Z"/><path class="cls-13" d="M35.89,5.72h2a4.21,4.21,0,0,1,2,.4,1.46,1.46,0,0,1,.68,1.37,1.6,1.6,0,0,1-.34,1,1.73,1.73,0,0,1-1,.53v0a3.21,3.21,0,0,1,.81.27,1.51,1.51,0,0,1,.58.54,1.87,1.87,0,0,1,.21.9,1.81,1.81,0,0,1-.67,1.5,2.79,2.79,0,0,1-1.81.53H35.89Zm.91,3h1.32a2,2,0,0,0,1.25-.29,1.1,1.1,0,0,0,.35-.88.91.91,0,0,0-.42-.84A2.64,2.64,0,0,0,38,6.49H36.8Zm0,.75V12.1h1.43a1.86,1.86,0,0,0,1.33-.37,1.33,1.33,0,0,0,.37-1,1.14,1.14,0,0,0-.39-.9,2.07,2.07,0,0,0-1.37-.35Z"/><path class="cls-13" d="M61.78,6.67A2.23,2.23,0,0,0,60,7.44a3.12,3.12,0,0,0-.66,2.11,3.3,3.3,0,0,0,.62,2.1,2.2,2.2,0,0,0,1.84.78,5,5,0,0,0,.88-.08c.28-.06.56-.12.83-.2v.78a4.73,4.73,0,0,1-.82.22,7.42,7.42,0,0,1-1,.07,3.41,3.41,0,0,1-1.82-.45,2.74,2.74,0,0,1-1.09-1.28,4.74,4.74,0,0,1-.37-2,4.29,4.29,0,0,1,.4-1.91,3,3,0,0,1,1.16-1.29,3.55,3.55,0,0,1,1.87-.46,4.36,4.36,0,0,1,2,.42l-.36.76a5.59,5.59,0,0,0-.73-.27A3.14,3.14,0,0,0,61.78,6.67Z"/><path class="cls-13" d="M86,9.22A3.53,3.53,0,0,1,85,12a3.88,3.88,0,0,1-2.75.91h-2V5.72h2.2a4.19,4.19,0,0,1,1.87.4A2.78,2.78,0,0,1,85.57,7.3,3.89,3.89,0,0,1,86,9.22Zm-1,0a2.75,2.75,0,0,0-.7-2.09,2.78,2.78,0,0,0-2-.67H81.18v5.6h1C84.09,12.09,85.05,11.15,85.05,9.25Z"/><path class="cls-13" d="M107.59,12.86h-4V5.72h4v.79H104.5V8.74h2.91v.78H104.5v2.55h3.09Z"/><rect class="cls-2" x="166.69" y="79.33" width="15.62" height="8.75" rx="4.37" ry="4.37"/><path class="cls-13" d="M175.52,86.64l-.69-1.76h-2.26l-.68,1.76h-.73l2.23-5.73H174l2.22,5.73Zm-.91-2.4L174,82.51a2.2,2.2,0,0,0-.08-.23c0-.12-.07-.23-.1-.35l-.09-.28c0,.17-.08.33-.13.49s-.08.28-.12.37l-.64,1.73Z"/><rect class="cls-4" x="221.25" y="79.33" width="15.62" height="8.75" rx="4.37" ry="4.37"/><path class="cls-13" d="M226.24,80.68h1.64a3.18,3.18,0,0,1,1.61.32,1.15,1.15,0,0,1,.55,1.09,1.24,1.24,0,0,1-.28.84,1.33,1.33,0,0,1-.8.43v0a2.25,2.25,0,0,1,.65.21,1.14,1.14,0,0,1,.46.44,1.37,1.37,0,0,1,.17.72,1.46,1.46,0,0,1-.54,1.2,2.26,2.26,0,0,1-1.45.42h-2Zm.72,2.43H228a1.54,1.54,0,0,0,1-.24.84.84,0,0,0,.28-.7.72.72,0,0,0-.33-.67,2.06,2.06,0,0,0-1.06-.21H227Zm0,.6v2.07h1.16a1.52,1.52,0,0,0,1-.29,1.06,1.06,0,0,0,.3-.78.9.9,0,0,0-.31-.72,1.64,1.64,0,0,0-1.1-.28Z"/><rect class="cls-2" x="200.26" y="14.99" width="15.62" height="10.42" rx="4.37" ry="4.37"/><path class="cls-13" d="M210,24.12l-.86-2.21h-2.83l-.85,2.21h-.91L207.34,17h.81l2.78,7.17Zm-1.13-3-.8-2.16-.1-.29c0-.14-.09-.28-.13-.43s-.08-.27-.11-.35c0,.21-.11.41-.16.61s-.11.35-.15.46l-.81,2.16Z"/><rect class="cls-4" x="220.59" y="14.99" width="15.62" height="10.42" rx="4.37" ry="4.37"/><path class="cls-13" d="M226.21,16.67h2a4.16,4.16,0,0,1,2,.4,1.46,1.46,0,0,1,.69,1.37,1.55,1.55,0,0,1-.35,1,1.62,1.62,0,0,1-1,.53v.05a3.43,3.43,0,0,1,.82.27,1.48,1.48,0,0,1,.57.54,1.76,1.76,0,0,1,.21.9,1.8,1.8,0,0,1-.66,1.5,2.82,2.82,0,0,1-1.82.53h-2.51Zm.9,3h1.32a2,2,0,0,0,1.26-.29,1.1,1.1,0,0,0,.34-.88.92.92,0,0,0-.41-.84,2.64,2.64,0,0,0-1.33-.26h-1.18Zm0,.75v2.59h1.44a1.81,1.81,0,0,0,1.32-.37,1.29,1.29,0,0,0,.37-1,1.17,1.17,0,0,0-.38-.9,2.1,2.1,0,0,0-1.38-.35Z"/><rect class="cls-5" x="307.78" y="14.99" width="15.62" height="10.42" rx="4.37" ry="4.37"/><path class="cls-13" d="M315.91,17.8a2.26,2.26,0,0,0-1.81.77,3.14,3.14,0,0,0-.66,2.11,3.25,3.25,0,0,0,.62,2.11,2.22,2.22,0,0,0,1.84.77,5,5,0,0,0,.88-.08,7.72,7.72,0,0,0,.83-.2v.78a4.73,4.73,0,0,1-.82.22,6.12,6.12,0,0,1-1,.07A3.41,3.41,0,0,1,314,23.9a2.82,2.82,0,0,1-1.1-1.28,4.85,4.85,0,0,1-.36-1.95,4.25,4.25,0,0,1,.4-1.9,3,3,0,0,1,1.16-1.29,3.55,3.55,0,0,1,1.87-.47,4.36,4.36,0,0,1,2,.42l-.36.76a6.19,6.19,0,0,0-.73-.27A3.19,3.19,0,0,0,315.91,17.8Z"/><rect class="cls-6" x="330.16" y="14.99" width="15.62" height="10.42" rx="4.37" ry="4.37"/><path class="cls-13" d="M341.38,20.36a3.56,3.56,0,0,1-1,2.72,3.89,3.89,0,0,1-2.75.92h-2V16.86h2.2a4.06,4.06,0,0,1,1.87.4A2.73,2.73,0,0,1,341,18.44,3.89,3.89,0,0,1,341.38,20.36Zm-.95,0a2.77,2.77,0,0,0-.7-2.1,2.82,2.82,0,0,0-2-.66h-1.17v5.6h1C339.47,23.23,340.43,22.28,340.43,20.39Z"/><rect class="cls-7" x="393.45" y="14.99" width="15.62" height="10.42" rx="4.37" ry="4.37"/><path class="cls-13" d="M402.88,24h-4V16.86h4v.79h-3.09v2.23h2.91v.78h-2.91v2.55h3.09Z"/><use id="Arrow_26-6" data-name="Arrow 26" width="45.72" height="26.28" transform="matrix(0, 0.47, -0.51, 0, 290.17, 38.28)" xlink:href="#Arrow_26"/><rect class="cls-7" x="371.63" y="79.33" width="25.74" height="8.75" rx="4.37" ry="4.37"/><path class="cls-13" d="M380.62,86.26l-.69-1.77h-2.27L377,86.26h-.72l2.23-5.73h.65l2.22,5.73Zm-.91-2.41-.64-1.72s0-.12-.08-.24-.07-.22-.11-.34-.06-.22-.08-.28c0,.17-.09.33-.13.48l-.12.38-.65,1.72Z"/><path class="cls-13" d="M384.46,83.25h2v2.8a6.11,6.11,0,0,1-.94.22,6.86,6.86,0,0,1-1.07.07,3,3,0,0,1-1.49-.35,2.3,2.3,0,0,1-.93-1,3.59,3.59,0,0,1-.31-1.56,3.28,3.28,0,0,1,.34-1.55,2.53,2.53,0,0,1,1-1,3.29,3.29,0,0,1,1.6-.36,4.29,4.29,0,0,1,.9.09,3.93,3.93,0,0,1,.8.25l-.27.62a4.64,4.64,0,0,0-.69-.23,3.33,3.33,0,0,0-.78-.1,2.07,2.07,0,0,0-1.6.62,2.42,2.42,0,0,0-.57,1.69,3,3,0,0,0,.22,1.2,1.73,1.73,0,0,0,.69.82,2.39,2.39,0,0,0,1.24.29,4,4,0,0,0,.64,0,4.45,4.45,0,0,0,.48-.1V83.89h-1.26Z"/><path class="cls-13" d="M391,86.26h-3.19V80.55H391v.63h-2.47V83h2.33v.62h-2.33v2H391Z"/><rect class="cls-14" x="242.52" y="14.99" width="55.73" height="10.42" rx="4.37" ry="4.37"/><path class="cls-13" d="M250,23.81l-2.35-6.26h0c0,.21,0,.49.05.84s0,.71,0,1.09v4.33h-.83V16.67h1.33l2.2,5.85h0l2.24-5.85h1.32v7.14h-.89V19.42c0-.34,0-.69,0-1s0-.61,0-.83h0l-2.38,6.25Z"/><path class="cls-13" d="M257.83,18.35a2.25,2.25,0,0,1,1.18.3,2,2,0,0,1,.77.85,3,3,0,0,1,.26,1.27v.53h-3.67a2,2,0,0,0,.47,1.39,1.59,1.59,0,0,0,1.24.47,4.19,4.19,0,0,0,.91-.09,4.88,4.88,0,0,0,.81-.28v.77a4.28,4.28,0,0,1-.81.27,4.43,4.43,0,0,1-.95.08,2.8,2.8,0,0,1-1.35-.31,2.06,2.06,0,0,1-.9-.92,3.12,3.12,0,0,1-.33-1.51,3.51,3.51,0,0,1,.3-1.51,2.2,2.2,0,0,1,.83-1A2.3,2.3,0,0,1,257.83,18.35Zm0,.72a1.26,1.26,0,0,0-1,.41,1.87,1.87,0,0,0-.44,1.12h2.73a1.86,1.86,0,0,0-.32-1.1A1.14,1.14,0,0,0,257.82,19.07Z"/><path class="cls-13" d="M263.43,18.36a2.13,2.13,0,0,1,1.45.43,1.8,1.8,0,0,1,.47,1.37v3.65h-.64l-.17-.76h0a2.33,2.33,0,0,1-.74.65,2.24,2.24,0,0,1-1.06.21,1.85,1.85,0,0,1-1.21-.38,1.46,1.46,0,0,1-.48-1.21,1.41,1.41,0,0,1,.63-1.23,3.69,3.69,0,0,1,1.94-.48l.91,0v-.32a1.25,1.25,0,0,0-.29-.93,1.2,1.2,0,0,0-.82-.26,2.63,2.63,0,0,0-.8.13,6.56,6.56,0,0,0-.71.28l-.27-.66a4.36,4.36,0,0,1,.83-.32A3.66,3.66,0,0,1,263.43,18.36Zm1.05,2.83-.79,0a2.71,2.71,0,0,0-1.38.32.92.92,0,0,0-.39.79.78.78,0,0,0,.27.66,1.15,1.15,0,0,0,.71.21,1.68,1.68,0,0,0,1.12-.37,1.4,1.4,0,0,0,.46-1.16Z"/><path class="cls-13" d="M269.59,18.35a2,2,0,0,1,1.45.47,2,2,0,0,1,.49,1.5v3.49h-.87V20.38q0-1.29-1.2-1.29a1.4,1.4,0,0,0-1.23.5,2.56,2.56,0,0,0-.34,1.44v2.78H267V18.45h.71l.13.73h0a1.56,1.56,0,0,1,.72-.62A2.32,2.32,0,0,1,269.59,18.35Z"/><path class="cls-13" d="M275.34,21.07a8.06,8.06,0,0,1,.35-2.35,6,6,0,0,1,1.12-2h.83a7,7,0,0,0-1.06,2.07,8,8,0,0,0-.35,2.32,7.64,7.64,0,0,0,.35,2.28,7.11,7.11,0,0,0,1.05,2.05h-.82a5.6,5.6,0,0,1-1.12-2A7.82,7.82,0,0,1,275.34,21.07Z"/><path class="cls-13" d="M283,21.9a1.75,1.75,0,0,1-.69,1.48,2.94,2.94,0,0,1-1.86.53,6.4,6.4,0,0,1-1.11-.09,3.31,3.31,0,0,1-.85-.25v-.86a4.54,4.54,0,0,0,.9.29,4.42,4.42,0,0,0,1.1.13,1.93,1.93,0,0,0,1.2-.31,1,1,0,0,0,.41-.84,1.1,1.1,0,0,0-.15-.59,1.38,1.38,0,0,0-.52-.44,9,9,0,0,0-1-.44A3.6,3.6,0,0,1,279,19.7a1.79,1.79,0,0,1-.46-1.31,1.68,1.68,0,0,1,.29-1,1.88,1.88,0,0,1,.8-.63,3.12,3.12,0,0,1,1.19-.22,5.1,5.1,0,0,1,1.07.11,5.28,5.28,0,0,1,.9.29l-.28.77a7.68,7.68,0,0,0-.81-.27,3.82,3.82,0,0,0-.9-.11,1.54,1.54,0,0,0-1,.29.92.92,0,0,0-.34.75,1.11,1.11,0,0,0,.15.6,1.33,1.33,0,0,0,.49.44,6.07,6.07,0,0,0,.92.4,6.21,6.21,0,0,1,1.06.5,2,2,0,0,1,.66.63A1.69,1.69,0,0,1,283,21.9Z"/><path class="cls-13" d="M290.12,20.17a3.57,3.57,0,0,1-1,2.73,3.9,3.9,0,0,1-2.75.91h-2V16.67h2.2a4.25,4.25,0,0,1,1.87.4,2.84,2.84,0,0,1,1.22,1.18A3.89,3.89,0,0,1,290.12,20.17Zm-.95,0a2.79,2.79,0,0,0-.7-2.09,2.83,2.83,0,0,0-2-.67H285.3V23h1C288.2,23,289.17,22.1,289.17,20.2Z"/><path class="cls-13" d="M293.33,21.07A7.52,7.52,0,0,1,293,23.4a5.43,5.43,0,0,1-1.11,2H291a7.11,7.11,0,0,0,1-2.05,7.64,7.64,0,0,0,.35-2.28,8,8,0,0,0-.35-2.32A7,7,0,0,0,291,16.67h.83a5.76,5.76,0,0,1,1.11,2A7.74,7.74,0,0,1,293.33,21.07Z"/><rect class="cls-14" x="273.01" y="78.43" width="55.73" height="10.42" rx="4.37" ry="4.37"/><path class="cls-13" d="M284.12,86.69l-1.88-5h0c0,.17,0,.39,0,.67s0,.57,0,.88v3.46h-.67V81h1.07l1.76,4.68h0L286.25,81h1.06v5.71h-.72V83.18c0-.28,0-.55,0-.83s0-.49,0-.66h0l-1.91,5Z"/><path class="cls-13" d="M290.42,82.32a1.78,1.78,0,0,1,.94.24,1.55,1.55,0,0,1,.61.68,2.32,2.32,0,0,1,.21,1v.42h-2.93a1.59,1.59,0,0,0,.37,1.11,1.32,1.32,0,0,0,1,.38,2.64,2.64,0,0,0,.72-.08,3.56,3.56,0,0,0,.65-.22v.62a2.81,2.81,0,0,1-.64.21,3.45,3.45,0,0,1-.76.07,2.16,2.16,0,0,1-1.08-.25,1.71,1.71,0,0,1-.73-.73,2.61,2.61,0,0,1-.26-1.21,2.81,2.81,0,0,1,.24-1.21,1.81,1.81,0,0,1,.66-.78A1.85,1.85,0,0,1,290.42,82.32Zm0,.58a1,1,0,0,0-.8.32,1.6,1.6,0,0,0-.35.9h2.19a1.5,1.5,0,0,0-.26-.88A.88.88,0,0,0,290.41,82.9Z"/><path class="cls-13" d="M294.9,82.33a1.73,1.73,0,0,1,1.16.34,1.43,1.43,0,0,1,.37,1.1v2.92h-.51l-.13-.61h0a1.77,1.77,0,0,1-.59.52,1.83,1.83,0,0,1-.85.17,1.44,1.44,0,0,1-1-.31,1.13,1.13,0,0,1-.39-1,1.12,1.12,0,0,1,.51-1,2.9,2.9,0,0,1,1.55-.38l.73,0v-.26a.94.94,0,0,0-.24-.74.92.92,0,0,0-.65-.21,1.91,1.91,0,0,0-.64.1,4.23,4.23,0,0,0-.57.23l-.22-.53a3.23,3.23,0,0,1,.67-.26A3,3,0,0,1,294.9,82.33Zm.84,2.26-.64,0a2.18,2.18,0,0,0-1.1.25.73.73,0,0,0-.31.64.59.59,0,0,0,.22.52.85.85,0,0,0,.56.17,1.36,1.36,0,0,0,.9-.3,1.11,1.11,0,0,0,.37-.92Z"/><path class="cls-13" d="M299.83,82.32a1.64,1.64,0,0,1,1.16.38,1.6,1.6,0,0,1,.39,1.2v2.79h-.7V84c0-.69-.32-1-1-1a1.12,1.12,0,0,0-1,.4,2.09,2.09,0,0,0-.27,1.16v2.22h-.71V82.4h.57l.1.59h0a1.23,1.23,0,0,1,.58-.5A1.85,1.85,0,0,1,299.83,82.32Z"/><path class="cls-13" d="M304.43,84.5a6.31,6.31,0,0,1,.28-1.89A4.8,4.8,0,0,1,305.6,81h.66a5.59,5.59,0,0,0-.84,1.65,6.21,6.21,0,0,0-.28,1.86,5.91,5.91,0,0,0,.28,1.82,5.54,5.54,0,0,0,.84,1.64h-.66a4.53,4.53,0,0,1-.89-1.59A6.12,6.12,0,0,1,304.43,84.5Z"/><path class="cls-13" d="M310.52,85.16a1.42,1.42,0,0,1-.55,1.19,2.42,2.42,0,0,1-1.49.42,5,5,0,0,1-.89-.07,3.08,3.08,0,0,1-.68-.2v-.69a3.83,3.83,0,0,0,.72.23,3.66,3.66,0,0,0,.88.11,1.62,1.62,0,0,0,1-.25.8.8,0,0,0,.33-.67.9.9,0,0,0-.12-.48,1.18,1.18,0,0,0-.42-.35,7.67,7.67,0,0,0-.8-.35,2.91,2.91,0,0,1-1.11-.65,1.45,1.45,0,0,1-.36-1.05,1.27,1.27,0,0,1,.23-.77,1.49,1.49,0,0,1,.64-.51,2.52,2.52,0,0,1,.95-.17,3.91,3.91,0,0,1,.86.09,3.79,3.79,0,0,1,.72.23l-.23.61a5,5,0,0,0-.65-.21,2.84,2.84,0,0,0-.72-.09,1.23,1.23,0,0,0-.8.23.72.72,0,0,0-.28.6.9.9,0,0,0,.12.48,1,1,0,0,0,.39.35,5.58,5.58,0,0,0,.74.32,5.24,5.24,0,0,1,.85.4,1.45,1.45,0,0,1,.53.51A1.4,1.4,0,0,1,310.52,85.16Z"/><path class="cls-13" d="M316.25,83.78a2.83,2.83,0,0,1-.79,2.18,3.09,3.09,0,0,1-2.2.73h-1.59V81h1.76a3.38,3.38,0,0,1,1.5.32,2.2,2.2,0,0,1,1,.94A3.16,3.16,0,0,1,316.25,83.78Zm-.76,0a1.94,1.94,0,0,0-2.16-2.21h-.94v4.48h.78A2,2,0,0,0,315.49,83.8Z"/><path class="cls-13" d="M318.82,84.5a6.13,6.13,0,0,1-.29,1.86,4.38,4.38,0,0,1-.89,1.59H317a5.76,5.76,0,0,0,.83-1.64,5.92,5.92,0,0,0,.29-1.82,6.23,6.23,0,0,0-.29-1.86A5.59,5.59,0,0,0,317,81h.66a4.63,4.63,0,0,1,.89,1.63A6.32,6.32,0,0,1,318.82,84.5Z"/><path class="cls-12" d="M302.82,119.93a7.16,7.16,0,0,1,.32-2.12,5.34,5.34,0,0,1,1-1.84h.74a6.29,6.29,0,0,0-.95,1.86,7,7,0,0,0-.32,2.09,6.61,6.61,0,0,0,1.26,3.9h-.73a5.16,5.16,0,0,1-1-1.8A7,7,0,0,1,302.82,119.93Z"/><path class="cls-12" d="M323.88,119.93a6.66,6.66,0,0,1-.32,2.09,5,5,0,0,1-1,1.8h-.74a6.34,6.34,0,0,0,.94-1.85,6.55,6.55,0,0,0,.32-2,6.71,6.71,0,0,0-.32-2.09,6.06,6.06,0,0,0-.95-1.86h.75a5.16,5.16,0,0,1,1,1.84A6.85,6.85,0,0,1,323.88,119.93Z"/><path class="cls-12" d="M302.82,107.93a7.16,7.16,0,0,1,.32-2.12,5.34,5.34,0,0,1,1-1.84h.74a6.29,6.29,0,0,0-.95,1.86,7,7,0,0,0-.32,2.09,6.61,6.61,0,0,0,1.26,3.9h-.73a5.16,5.16,0,0,1-1-1.8A7,7,0,0,1,302.82,107.93Z"/><path class="cls-12" d="M323.88,107.93a6.66,6.66,0,0,1-.32,2.09,5,5,0,0,1-1,1.8h-.74a6.34,6.34,0,0,0,.94-1.85,6.55,6.55,0,0,0,.32-2,6.71,6.71,0,0,0-.32-2.09,6.06,6.06,0,0,0-.95-1.86h.75a5.16,5.16,0,0,1,1,1.84A6.85,6.85,0,0,1,323.88,107.93Z"/><rect class="cls-9" x="305.58" y="115.33" width="15.62" height="8.75" rx="4.37" ry="4.37"/><rect class="cls-9" x="305.58" y="103.33" width="15.62" height="8.75" rx="4.37" ry="4.37"/><rect class="cls-7" x="358.88" y="14.99" width="25.62" height="10.42" rx="4.37" ry="4.37"/><path class="cls-13" d="M367.54,23.81l-.86-2.21h-2.83L363,23.81h-.91l2.79-7.17h.81l2.78,7.17Zm-1.13-3-.8-2.16a2.86,2.86,0,0,1-.1-.29c-.05-.14-.1-.28-.14-.43l-.1-.35c-.06.21-.11.41-.17.61s-.1.35-.14.46l-.81,2.16Z"/><path class="cls-13" d="M372.35,20h2.47v3.5a7.1,7.1,0,0,1-1.17.28,9,9,0,0,1-1.34.09,3.6,3.6,0,0,1-1.87-.44,2.92,2.92,0,0,1-1.16-1.27,4.54,4.54,0,0,1-.39-2,4.07,4.07,0,0,1,.43-1.93A3,3,0,0,1,370.59,17a4.13,4.13,0,0,1,2-.46,5.37,5.37,0,0,1,2.13.42l-.34.78a7.25,7.25,0,0,0-.86-.28,3.93,3.93,0,0,0-1-.13,2.58,2.58,0,0,0-2,.78,3,3,0,0,0-.71,2.1,4,4,0,0,0,.27,1.51,2.07,2.07,0,0,0,.87,1,2.94,2.94,0,0,0,1.55.36,4.68,4.68,0,0,0,.8-.05,4.54,4.54,0,0,0,.6-.12V20.84h-1.57Z"/><path class="cls-13" d="M380.52,23.81h-4V16.67h4v.79h-3.09v2.23h2.91v.78h-2.91V23h3.09Z"/></svg>