<svg id="Layer_1" data-name="Layer 1" xmlns="http://www.w3.org/2000/svg" xmlns:xlink="http://www.w3.org/1999/xlink" viewBox="0 0 416.75 148.75"><defs><style>.cls-1,.cls-11{fill:none;}.cls-2{fill:#033572;}.cls-3{fill:#bdb5ab;opacity:0.51;}.cls-4{fill:#008782;}.cls-5{fill:#fab600;}.cls-6{fill:#e63812;}.cls-7{fill:#13a337;}.cls-10,.cls-8,.cls-9{fill:#008dd4;}.cls-10,.cls-11,.cls-15,.cls-8{stroke:#1d1d1b;stroke-miterlimit:10;}.cls-11,.cls-8{stroke-width:1.75px;}.cls-9{opacity:0.68;}.cls-12{fill:#1d1d1b;}.cls-13,.cls-15{fill:#fff;}.cls-14{fill:#f3a1c6;}.cls-15{stroke-width:0.75px;}.cls-16{fill:#7c8790;}</style><symbol id="Arrow_26" data-name="Arrow 26" viewBox="0 0 45.72 26.28"><rect class="cls-1" width="45.72" height="26.28"/><polygon class="cls-2" points="0 19.48 22.93 19.48 22.93 26.28 45.72 13.14 22.93 0 22.93 6.8 0 6.8 0 19.48"/></symbol></defs><title>NNtable_help_header_span</title><rect class="cls-3" x="172.73" y="6.42" width="242.85" height="20.34" rx="7.88" ry="7.88"/><rect class="cls-2" x="6.32" y="2.05" width="17.84" height="8.73" rx="3.12" ry="3.12"/><rect class="cls-4" x="28.83" y="2.05" width="17.84" height="8.73" rx="3.12" ry="3.12"/><rect class="cls-5" x="51.35" y="2.05" width="17.84" height="8.73" rx="3.12" ry="3.12"/><rect class="cls-6" x="73.86" y="2.05" width="17.84" height="8.73" rx="3.12" ry="3.12"/><rect class="cls-7" x="96.37" y="2.05" width="17.84" height="8.73" rx="3.12" ry="3.12"/><line class="cls-8" x1="2.58" y1="12.97" x2="140.33" y2="12.97"/><rect class="cls-9" x="6.32" y="15.55" width="17.84" height="8.73" rx="3.12" ry="3.12"/><rect class="cls-9" x="28.83" y="15.55" width="17.84" height="8.73" rx="3.12" ry="3.12"/><rect class="cls-9" x="51.35" y="15.55" width="17.84" height="8.73" rx="3.12" ry="3.12"/><rect class="cls-9" x="73.86" y="15.55" width="17.84" height="8.73" rx="3.12" ry="3.12"/><rect class="cls-9" x="96.37" y="15.55" width="17.84" height="8.73" rx="3.12" ry="3.12"/><line class="cls-10" x1="2.58" y1="26.46" x2="140.33" y2="26.46"/><rect class="cls-9" x="6.32" y="29.04" width="17.84" height="8.73" rx="3.12" ry="3.12"/><rect class="cls-9" x="28.83" y="29.04" width="17.84" height="8.73" rx="3.12" ry="3.12"/><rect class="cls-9" x="51.35" y="29.04" width="17.84" height="8.73" rx="3.12" ry="3.12"/><rect class="cls-9" x="73.86" y="29.04" width="17.84" height="8.73" rx="3.12" ry="3.12"/><rect class="cls-9" x="96.37" y="29.04" width="17.84" height="8.73" rx="3.12" ry="3.12"/><line class="cls-10" x1="2.58" y1="39.95" x2="140.33" y2="39.95"/><rect class="cls-9" x="6.32" y="42.53" width="17.84" height="8.73" rx="3.12" ry="3.12"/><rect class="cls-9" x="28.83" y="42.53" width="17.84" height="8.73" rx="3.12" ry="3.12"/><rect class="cls-9" x="51.35" y="42.53" width="17.84" height="8.73" rx="3.12" ry="3.12"/><rect class="cls-9" x="73.86" y="42.53" width="17.84" height="8.73" rx="3.12" ry="3.12"/><rect class="cls-9" x="96.37" y="42.53" width="17.84" height="8.73" rx="3.12" ry="3.12"/><rect class="cls-9" x="6.32" y="55.53" width="17.84" height="8.73" rx="3.12" ry="3.12"/><rect class="cls-9" x="28.83" y="55.53" width="17.84" height="8.73" rx="3.12" ry="3.12"/><rect class="cls-9" x="51.35" y="55.53" width="17.84" height="8.73" rx="3.12" ry="3.12"/><rect class="cls-9" x="73.86" y="55.53" width="17.84" height="8.73" rx="3.12" ry="3.12"/><rect class="cls-9" x="96.37" y="55.53" width="17.84" height="8.73" rx="3.12" ry="3.12"/><line class="cls-10" x1="2.58" y1="66.44" x2="140.33" y2="66.44"/><rect class="cls-9" x="6.32" y="69.02" width="17.84" height="8.73" rx="3.12" ry="3.12"/><rect class="cls-9" x="28.83" y="69.02" width="17.84" height="8.73" rx="3.12" ry="3.12"/><rect class="cls-9" x="51.35" y="69.02" width="17.84" height="8.73" rx="3.12" ry="3.12"/><rect class="cls-9" x="73.86" y="69.02" width="17.84" height="8.73" rx="3.12" ry="3.12"/><rect class="cls-9" x="96.37" y="69.02" width="17.84" height="8.73" rx="3.12" ry="3.12"/><line class="cls-11" x1="173.95" y1="109.79" x2="415.58" y2="109.79"/><rect class="cls-9" x="179.88" y="117.41" width="15.62" height="8.75" rx="4.37" ry="4.37"/><rect class="cls-9" x="221.45" y="117.41" width="15.62" height="8.75" rx="4.37" ry="4.37"/><rect class="cls-9" x="263.01" y="117.41" width="15.62" height="8.75" rx="4.37" ry="4.37"/><rect class="cls-9" x="304.58" y="117.41" width="15.62" height="8.75" rx="4.37" ry="4.37"/><rect class="cls-9" x="346.14" y="117.41" width="15.62" height="8.75" rx="4.37" ry="4.37"/><rect class="cls-9" x="179.88" y="129.41" width="15.62" height="8.75" rx="4.37" ry="4.37"/><rect class="cls-9" x="221.45" y="129.41" width="15.62" height="8.75" rx="4.37" ry="4.37"/><rect class="cls-9" x="263.01" y="129.41" width="15.62" height="8.75" rx="4.37" ry="4.37"/><rect class="cls-9" x="304.58" y="129.41" width="15.62" height="8.75" rx="4.37" ry="4.37"/><rect class="cls-9" x="346.14" y="129.41" width="15.62" height="8.75" rx="4.37" ry="4.37"/><line class="cls-10" x1="2.58" y1="53.4" x2="140.33" y2="53.4"/><line class="cls-10" x1="2.58" y1="80.33" x2="140.33" y2="80.33"/><rect class="cls-9" x="6.32" y="82.91" width="17.84" height="8.73" rx="3.12" ry="3.12"/><rect class="cls-9" x="28.83" y="82.91" width="17.84" height="8.73" rx="3.12" ry="3.12"/><rect class="cls-9" x="51.35" y="82.91" width="17.84" height="8.73" rx="3.12" ry="3.12"/><rect class="cls-9" x="73.86" y="82.91" width="17.84" height="8.73" rx="3.12" ry="3.12"/><rect class="cls-9" x="96.37" y="82.91" width="17.84" height="8.73" rx="3.12" ry="3.12"/><line class="cls-10" x1="2.58" y1="93.83" x2="140.33" y2="93.83"/><rect class="cls-9" x="6.32" y="96.41" width="17.84" height="8.73" rx="3.12" ry="3.12"/><rect class="cls-9" x="28.83" y="96.41" width="17.84" height="8.73" rx="3.12" ry="3.12"/><rect class="cls-9" x="51.35" y="96.41" width="17.84" height="8.73" rx="3.12" ry="3.12"/><rect class="cls-9" x="73.86" y="96.41" width="17.84" height="8.73" rx="3.12" ry="3.12"/><rect class="cls-9" x="96.37" y="96.41" width="17.84" height="8.73" rx="3.12" ry="3.12"/><rect class="cls-9" x="6.32" y="109.4" width="17.84" height="8.73" rx="3.12" ry="3.12"/><rect class="cls-9" x="28.83" y="109.4" width="17.84" height="8.73" rx="3.12" ry="3.12"/><rect class="cls-9" x="51.35" y="109.4" width="17.84" height="8.73" rx="3.12" ry="3.12"/><rect class="cls-9" x="73.86" y="109.4" width="17.84" height="8.73" rx="3.12" ry="3.12"/><rect class="cls-9" x="96.37" y="109.4" width="17.84" height="8.73" rx="3.12" ry="3.12"/><line class="cls-10" x1="2.58" y1="120.32" x2="140.33" y2="120.32"/><rect class="cls-9" x="6.32" y="122.89" width="17.84" height="8.73" rx="3.12" ry="3.12"/><rect class="cls-9" x="28.83" y="122.89" width="17.84" height="8.73" rx="3.12" ry="3.12"/><rect class="cls-9" x="51.35" y="122.89" width="17.84" height="8.73" rx="3.12" ry="3.12"/><rect class="cls-9" x="73.86" y="122.89" width="17.84" height="8.73" rx="3.12" ry="3.12"/><rect class="cls-9" x="96.37" y="122.89" width="17.84" height="8.73" rx="3.12" ry="3.12"/><line class="cls-10" x1="2.58" y1="107.27" x2="140.33" y2="107.27"/><line class="cls-10" x1="2.58" y1="134.82" x2="140.33" y2="134.82"/><rect class="cls-9" x="6.32" y="137.4" width="17.84" height="8.73" rx="3.12" ry="3.12"/><rect class="cls-9" x="28.83" y="137.4" width="17.84" height="8.73" rx="3.12" ry="3.12"/><rect class="cls-9" x="51.35" y="137.4" width="17.84" height="8.73" rx="3.12" ry="3.12"/><rect class="cls-9" x="73.86" y="137.4" width="17.84" height="8.73" rx="3.12" ry="3.12"/><rect class="cls-9" x="96.37" y="137.4" width="17.84" height="8.73" rx="3.12" ry="3.12"/><use id="Arrow_26-3" data-name="Arrow 26" width="45.72" height="26.28" transform="translate(144.9 10.53) scale(0.47 0.51)" xlink:href="#Arrow_26"/><line class="cls-11" x1="172.73" y1="66.02" x2="414.36" y2="66.02"/><line class="cls-11" x1="173.95" y1="146.46" x2="415.58" y2="146.46"/><path class="cls-12" d="M182.08,21.21H181l-3.82-5.93h0c0,.23,0,.52.05.87s0,.7,0,1.07v4h-.83V14.07h1L181.27,20h0c0-.11,0-.27,0-.48s0-.45,0-.7,0-.48,0-.7v-4h.84Z"/><path class="cls-12" d="M189.68,21.21h-1.05l-3.82-5.93h0c0,.23,0,.52,0,.87s0,.7,0,1.07v4H184V14.07h1L188.87,20h0c0-.11,0-.27,0-.48s0-.45,0-.7,0-.48,0-.7v-4h.84Z"/><path class="cls-12" d="M193.88,21.21H193V14.86h-2.23v-.79h5.35v.79h-2.22Z"/><path class="cls-12" d="M198.29,15.76a2.06,2.06,0,0,1,1.45.43,1.74,1.74,0,0,1,.47,1.37v3.65h-.64l-.17-.76h0a2.46,2.46,0,0,1-.74.65,2.24,2.24,0,0,1-1.06.21,1.87,1.87,0,0,1-1.21-.39,1.46,1.46,0,0,1-.48-1.2,1.41,1.41,0,0,1,.63-1.24,3.61,3.61,0,0,1,1.94-.47l.91,0v-.32a1.18,1.18,0,0,0-.29-.93,1.14,1.14,0,0,0-.82-.26,2.67,2.67,0,0,0-.8.12,5,5,0,0,0-.71.29l-.27-.66a4,4,0,0,1,.83-.33A3.71,3.71,0,0,1,198.29,15.76Zm1.05,2.83-.79,0a2.57,2.57,0,0,0-1.38.32.91.91,0,0,0-.39.79.79.79,0,0,0,.28.66,1.12,1.12,0,0,0,.7.21,1.71,1.71,0,0,0,1.13-.38,1.41,1.41,0,0,0,.45-1.15Z"/><path class="cls-12" d="M202.75,13.61v1.85c0,.22,0,.43,0,.63a4.36,4.36,0,0,1,0,.47h.05a1.93,1.93,0,0,1,.63-.57,2,2,0,0,1,1-.23,2,2,0,0,1,1.61.69,3.11,3.11,0,0,1,.6,2.08,3.08,3.08,0,0,1-.61,2.08,2,2,0,0,1-1.6.7,2.09,2.09,0,0,1-1-.23,2.27,2.27,0,0,1-.63-.55h-.07l-.18.68h-.63v-7.6Zm1.51,2.88a1.31,1.31,0,0,0-1.18.49,2.74,2.74,0,0,0-.33,1.52v0a2.84,2.84,0,0,0,.33,1.51,1.31,1.31,0,0,0,1.2.53,1.23,1.23,0,0,0,1.08-.53,2.75,2.75,0,0,0,.35-1.53C205.71,17.16,205.23,16.49,204.26,16.49Z"/><path class="cls-12" d="M208.9,21.21H208v-7.6h.88Z"/><path class="cls-12" d="M212.67,15.75a2.23,2.23,0,0,1,1.18.3,2,2,0,0,1,.77.84,2.84,2.84,0,0,1,.26,1.28v.53h-3.67a2,2,0,0,0,.47,1.38,1.6,1.6,0,0,0,1.24.48,4.15,4.15,0,0,0,.91-.1,4.81,4.81,0,0,0,.81-.27V21a4.23,4.23,0,0,1-.81.26,4.31,4.31,0,0,1-1,.09,2.92,2.92,0,0,1-1.35-.31,2.28,2.28,0,0,1-.9-.92,3.15,3.15,0,0,1-.33-1.51,3.48,3.48,0,0,1,.3-1.51,2.18,2.18,0,0,1,2.07-1.31Zm0,.72a1.25,1.25,0,0,0-1,.4,2,2,0,0,0-.44,1.13H214a1.81,1.81,0,0,0-.32-1.11A1.12,1.12,0,0,0,212.66,16.47Z"/><path class="cls-12" d="M215.79,18.47a7.76,7.76,0,0,1,.36-2.36,5.79,5.79,0,0,1,1.11-2h.83A6.74,6.74,0,0,0,217,16.14a7.55,7.55,0,0,0-.36,2.32,7.33,7.33,0,0,0,.36,2.27,7,7,0,0,0,1,2.06h-.82a5.7,5.7,0,0,1-1.11-2A7.5,7.5,0,0,1,215.79,18.47Z"/><path class="cls-12" d="M238.43,20.05l.07.11a11.08,11.08,0,0,1-.38,1.16c-.16.42-.32.82-.48,1.18H237c.1-.38.19-.8.29-1.25s.17-.86.21-1.2Z"/><path class="cls-12" d="M259.29,20.05l.07.11a11.08,11.08,0,0,1-.38,1.16c-.16.42-.32.82-.48,1.18h-.65c.1-.38.19-.8.29-1.25s.17-.86.21-1.2Z"/><path class="cls-12" d="M307.51,17.05v-.71h4.58v.71Zm0,2v-.71h4.58V19Z"/><path class="cls-12" d="M318.29,21.31A2.73,2.73,0,0,1,317,21a2.08,2.08,0,0,1-.86-.9,3.41,3.41,0,0,1-.32-1.56,3.41,3.41,0,0,1,.33-1.61,2,2,0,0,1,.89-.91,2.72,2.72,0,0,1,1.29-.29,3.47,3.47,0,0,1,.79.08,3,3,0,0,1,.62.21l-.27.73a4.73,4.73,0,0,0-.56-.17,2.16,2.16,0,0,0-.6-.08c-1.05,0-1.58.67-1.58,2a2.42,2.42,0,0,0,.39,1.48,1.33,1.33,0,0,0,1.14.52,3,3,0,0,0,.77-.09,4.48,4.48,0,0,0,.62-.22V21a2.75,2.75,0,0,1-.59.21A3.56,3.56,0,0,1,318.29,21.31Z"/><path class="cls-12" d="M320.49,18.47a7.76,7.76,0,0,1,.36-2.36,5.64,5.64,0,0,1,1.11-2h.83a6.53,6.53,0,0,0-1.05,2.07,7.55,7.55,0,0,0-.36,2.32,7.33,7.33,0,0,0,.36,2.27,7,7,0,0,0,1,2.06H322a5.55,5.55,0,0,1-1.11-2A7.5,7.5,0,0,1,320.49,18.47Z"/><path class="cls-12" d="M343.13,20.05l.07.11a11.08,11.08,0,0,1-.38,1.16c-.16.42-.32.82-.48,1.18h-.65c.09-.38.19-.8.28-1.25s.17-.86.22-1.2Z"/><path class="cls-12" d="M364.75,18.47a7.5,7.5,0,0,1-.36,2.32,5.55,5.55,0,0,1-1.11,2h-.82a7.29,7.29,0,0,0,1.05-2.06,7.63,7.63,0,0,0,.35-2.27,7.86,7.86,0,0,0-.35-2.32,6.76,6.76,0,0,0-1.06-2.07h.83a5.64,5.64,0,0,1,1.11,2A7.76,7.76,0,0,1,364.75,18.47Z"/><path class="cls-12" d="M367,20.05l.07.11a11.08,11.08,0,0,1-.38,1.16c-.16.42-.32.82-.48,1.18h-.65c.09-.38.19-.8.28-1.25s.17-.86.22-1.2Z"/><path class="cls-12" d="M387.85,20.05l.07.11a11.08,11.08,0,0,1-.38,1.16c-.16.42-.32.82-.48,1.18h-.65c.09-.38.19-.8.28-1.25s.17-.86.22-1.2Z"/><path class="cls-12" d="M409.47,18.47a7.5,7.5,0,0,1-.36,2.32,5.55,5.55,0,0,1-1.11,2h-.82a7,7,0,0,0,1-2.06,7.33,7.33,0,0,0,.36-2.27,7.55,7.55,0,0,0-.36-2.32,6.53,6.53,0,0,0-1.05-2.07H408a5.64,5.64,0,0,1,1.11,2A7.76,7.76,0,0,1,409.47,18.47Z"/><path class="cls-13" d="M17.5,9.76l-.86-2.21H13.81L13,9.76h-.91l2.79-7.17h.81l2.78,7.17Zm-1.13-3-.8-2.16-.1-.29c-.05-.14-.09-.29-.13-.44s-.08-.26-.11-.34c-.05.2-.11.41-.17.6s-.1.35-.14.47l-.81,2.16Z"/><path class="cls-13" d="M35.89,2.8h2a4.21,4.21,0,0,1,2,.4,1.46,1.46,0,0,1,.68,1.37,1.6,1.6,0,0,1-.34,1,1.68,1.68,0,0,1-1,.53v0a3.21,3.21,0,0,1,.81.27,1.51,1.51,0,0,1,.58.54,1.87,1.87,0,0,1,.21.9,1.81,1.81,0,0,1-.67,1.5,2.79,2.79,0,0,1-1.81.53H35.89Zm.91,3h1.32a2,2,0,0,0,1.25-.29,1.1,1.1,0,0,0,.35-.88.91.91,0,0,0-.42-.84A2.64,2.64,0,0,0,38,3.57H36.8Zm0,.75V9.18h1.43a1.86,1.86,0,0,0,1.33-.37,1.33,1.33,0,0,0,.37-1,1.14,1.14,0,0,0-.39-.9,2.07,2.07,0,0,0-1.37-.35Z"/><path class="cls-13" d="M61.78,3.75A2.26,2.26,0,0,0,60,4.52a3.14,3.14,0,0,0-.66,2.11,3.26,3.26,0,0,0,.62,2.1,2.2,2.2,0,0,0,1.84.78,5,5,0,0,0,.88-.08,7.72,7.72,0,0,0,.83-.2V10a4.73,4.73,0,0,1-.82.22,6.12,6.12,0,0,1-1,.07,3.41,3.41,0,0,1-1.82-.45,2.74,2.74,0,0,1-1.09-1.28,4.68,4.68,0,0,1-.37-1.95,4.29,4.29,0,0,1,.4-1.91,3,3,0,0,1,1.16-1.29A3.55,3.55,0,0,1,61.79,3a4.36,4.36,0,0,1,2,.42l-.36.76a5.59,5.59,0,0,0-.73-.27A3.14,3.14,0,0,0,61.78,3.75Z"/><path class="cls-13" d="M86,6.3A3.53,3.53,0,0,1,85,9a3.88,3.88,0,0,1-2.75.91h-2V2.8h2.2a4.19,4.19,0,0,1,1.87.4,2.78,2.78,0,0,1,1.22,1.18A3.89,3.89,0,0,1,86,6.3Zm-1,0a2.75,2.75,0,0,0-.7-2.09,2.83,2.83,0,0,0-2-.67H81.18v5.6h1C84.09,9.17,85.05,8.23,85.05,6.33Z"/><path class="cls-13" d="M107.59,9.94h-4V2.8h4v.79H104.5V5.82h2.91V6.6H104.5V9.15h3.09Z"/><rect class="cls-2" x="179.69" y="93.41" width="15.62" height="8.75" rx="4.37" ry="4.37"/><path class="cls-13" d="M188.52,100.73,187.83,99h-2.26l-.68,1.77h-.73L186.39,95H187l2.22,5.74Zm-.91-2.41L187,96.59s0-.12-.08-.23-.07-.23-.1-.35l-.09-.28c0,.17-.08.33-.13.49s-.08.28-.12.37l-.64,1.73Z"/><rect class="cls-4" x="221.25" y="93.41" width="15.62" height="8.75" rx="4.37" ry="4.37"/><path class="cls-13" d="M226.24,94.76h1.64a3.29,3.29,0,0,1,1.61.32,1.16,1.16,0,0,1,.55,1.1,1.23,1.23,0,0,1-.28.83,1.28,1.28,0,0,1-.8.43v0a2,2,0,0,1,.65.22,1.12,1.12,0,0,1,.46.43,1.37,1.37,0,0,1,.17.72,1.43,1.43,0,0,1-.54,1.2,2.26,2.26,0,0,1-1.45.42h-2Zm.72,2.43H228a1.61,1.61,0,0,0,1-.23.87.87,0,0,0,.28-.7.74.74,0,0,0-.33-.68,2.07,2.07,0,0,0-1.06-.2H227Zm0,.6v2.07h1.16a1.47,1.47,0,0,0,1-.29,1.06,1.06,0,0,0,.3-.78.9.9,0,0,0-.31-.72,1.64,1.64,0,0,0-1.1-.28Z"/><rect class="cls-5" x="262.82" y="93.41" width="15.62" height="8.75" rx="4.37" ry="4.37"/><path class="cls-13" d="M271.09,95.31a1.82,1.82,0,0,0-1.45.62,2.52,2.52,0,0,0-.53,1.69,2.61,2.61,0,0,0,.5,1.68,1.76,1.76,0,0,0,1.47.62,4.08,4.08,0,0,0,.71-.06l.66-.16v.62a3.57,3.57,0,0,1-.66.18,6.27,6.27,0,0,1-.81,0,2.75,2.75,0,0,1-1.46-.36,2.18,2.18,0,0,1-.87-1,3.74,3.74,0,0,1-.3-1.56,3.51,3.51,0,0,1,.32-1.53,2.38,2.38,0,0,1,.93-1,2.83,2.83,0,0,1,1.5-.37,3.37,3.37,0,0,1,1.57.34l-.28.6a4.53,4.53,0,0,0-.59-.21A2.3,2.3,0,0,0,271.09,95.31Z"/><rect class="cls-2" x="220.26" y="13.07" width="15.62" height="10.42" rx="4.37" ry="4.37"/><path class="cls-13" d="M230,22.21,229.14,20h-2.83l-.85,2.21h-.91L227.34,15h.81l2.78,7.17Zm-1.13-3-.8-2.16-.1-.29c0-.14-.09-.29-.13-.44s-.08-.26-.11-.34c0,.2-.11.4-.16.6s-.11.35-.15.47l-.81,2.16Z"/><rect class="cls-4" x="240.59" y="13.07" width="15.62" height="10.42" rx="4.37" ry="4.37"/><path class="cls-13" d="M246.21,14.76h2a4.05,4.05,0,0,1,2,.4,1.44,1.44,0,0,1,.69,1.37,1.52,1.52,0,0,1-.35,1,1.63,1.63,0,0,1-1,.54v.05a2.73,2.73,0,0,1,.82.27A1.35,1.35,0,0,1,251,19a1.71,1.71,0,0,1,.21.9,1.83,1.83,0,0,1-.66,1.5,2.88,2.88,0,0,1-1.82.53h-2.51Zm.9,3h1.32a2,2,0,0,0,1.26-.3,1.09,1.09,0,0,0,.34-.87.93.93,0,0,0-.41-.85,2.65,2.65,0,0,0-1.33-.25h-1.18Zm0,.75v2.59h1.44a1.86,1.86,0,0,0,1.32-.37,1.3,1.3,0,0,0,.37-1,1.18,1.18,0,0,0-.38-.91,2.11,2.11,0,0,0-1.38-.34Z"/><rect class="cls-5" x="324.78" y="13.07" width="15.62" height="10.42" rx="4.37" ry="4.37"/><path class="cls-13" d="M332.91,15.88a2.26,2.26,0,0,0-1.81.77,3.15,3.15,0,0,0-.66,2.11,3.25,3.25,0,0,0,.62,2.11,2.19,2.19,0,0,0,1.84.77,4.18,4.18,0,0,0,.88-.08,7.72,7.72,0,0,0,.83-.2v.78a4,4,0,0,1-.82.22,6.12,6.12,0,0,1-1,.07A3.41,3.41,0,0,1,331,22a2.77,2.77,0,0,1-1.1-1.28,4.85,4.85,0,0,1-.36-1.95,4.25,4.25,0,0,1,.4-1.9,3,3,0,0,1,1.16-1.29,3.55,3.55,0,0,1,1.87-.47,4.36,4.36,0,0,1,2,.42l-.36.76a6.19,6.19,0,0,0-.73-.27A3.19,3.19,0,0,0,332.91,15.88Z"/><rect class="cls-6" x="345.16" y="13.07" width="15.62" height="10.42" rx="4.37" ry="4.37"/><path class="cls-13" d="M356.38,18.44a3.55,3.55,0,0,1-1,2.72,3.89,3.89,0,0,1-2.75.92h-2V14.94h2.2a4.06,4.06,0,0,1,1.87.4A2.78,2.78,0,0,1,356,16.52,3.89,3.89,0,0,1,356.38,18.44Zm-.95,0a2.79,2.79,0,0,0-.7-2.1,2.82,2.82,0,0,0-2-.66h-1.17v5.6h1C354.47,21.31,355.43,20.36,355.43,18.47Z"/><rect class="cls-7" x="370.03" y="13.07" width="15.62" height="10.42" rx="4.37" ry="4.37"/><path class="cls-13" d="M379.47,22.08h-4V14.94h4v.79h-3.09V18h2.91v.78h-2.91v2.55h3.09Z"/><use id="Arrow_26-6" data-name="Arrow 26" width="45.72" height="26.28" transform="matrix(0, 0.47, -0.51, 0, 311.44, 35.36)" xlink:href="#Arrow_26"/><rect class="cls-6" x="304.38" y="93.41" width="15.62" height="8.75" rx="4.37" ry="4.37"/><path class="cls-13" d="M314.62,97.69a2.86,2.86,0,0,1-.79,2.18,3.16,3.16,0,0,1-2.2.73H310V94.89h1.76a3.18,3.18,0,0,1,1.49.32,2.17,2.17,0,0,1,1,.94A3.16,3.16,0,0,1,314.62,97.69Zm-.76,0a1.94,1.94,0,0,0-2.16-2.21h-.94V100h.78A2,2,0,0,0,313.86,97.71Z"/><rect class="cls-7" x="345.95" y="93.41" width="15.62" height="8.75" rx="4.37" ry="4.37"/><path class="cls-13" d="M354.54,100.34h-3.19V94.63h3.19v.63h-2.47v1.79h2.33v.62h-2.33v2h2.47Z"/><rect class="cls-14" x="260.63" y="73.65" width="60.95" height="8.75" rx="4.37" ry="4.37"/><line class="cls-15" x1="260.72" y1="88.89" x2="321.58" y2="88.89"/><rect class="cls-14" x="262.52" y="13.07" width="40.45" height="10.42" rx="4.37" ry="4.37"/><rect class="cls-9" x="387.71" y="117.39" width="15.62" height="8.75" rx="4.37" ry="4.37"/><rect class="cls-9" x="387.71" y="129.39" width="15.62" height="8.75" rx="4.37" ry="4.37"/><rect class="cls-16" x="387.51" y="93.39" width="15.62" height="8.75" rx="4.37" ry="4.37"/><path class="cls-13" d="M394.22,100.58h-.72V94.87h3.19v.63h-2.47v2h2.32v.64h-2.32Z"/><rect class="cls-16" x="390.95" y="13.07" width="15.62" height="10.42" rx="4.37" ry="4.37"/><path class="cls-13" d="M397.29,22.08h-.9V14.94h4v.79h-3.09v2.53h2.9v.79h-2.9Z"/><rect class="cls-16" x="118.88" y="1.99" width="17.84" height="8.73" rx="3.12" ry="3.12"/><rect class="cls-9" x="118.88" y="15.49" width="17.84" height="8.73" rx="3.12" ry="3.12"/><rect class="cls-9" x="118.88" y="28.98" width="17.84" height="8.73" rx="3.12" ry="3.12"/><rect class="cls-9" x="118.88" y="42.48" width="17.84" height="8.73" rx="3.12" ry="3.12"/><rect class="cls-9" x="118.88" y="55.47" width="17.84" height="8.73" rx="3.12" ry="3.12"/><rect class="cls-9" x="118.88" y="68.96" width="17.84" height="8.73" rx="3.12" ry="3.12"/><rect class="cls-9" x="118.88" y="82.86" width="17.84" height="8.73" rx="3.12" ry="3.12"/><rect class="cls-9" x="118.88" y="96.35" width="17.84" height="8.73" rx="3.12" ry="3.12"/><rect class="cls-9" x="118.88" y="109.34" width="17.84" height="8.73" rx="3.12" ry="3.12"/><rect class="cls-9" x="118.88" y="122.84" width="17.84" height="8.73" rx="3.12" ry="3.12"/><rect class="cls-9" x="118.88" y="137.35" width="17.84" height="8.73" rx="3.12" ry="3.12"/><path class="cls-13" d="M126.21,9.89h-.9V2.75h4v.79h-3.09V6.07h2.9v.79h-2.9Z"/></svg>