<svg id="Layer_1" data-name="Layer 1" xmlns="http://www.w3.org/2000/svg" xmlns:xlink="http://www.w3.org/1999/xlink" viewBox="0 0 417.24 206.58"><defs><style>.cls-1,.cls-10{fill:none;}.cls-2{fill:#033572;}.cls-3{fill:#bdb5ab;opacity:0.51;}.cls-4{fill:#1d1d1b;}.cls-5{fill:#fab600;}.cls-6{fill:#fff;}.cls-7{fill:#e63812;}.cls-8{fill:#f3a1c6;}.cls-11,.cls-15,.cls-9{fill:#008dd4;}.cls-10,.cls-15,.cls-9{stroke:#1d1d1b;stroke-miterlimit:10;}.cls-10,.cls-9{stroke-width:1.75px;}.cls-11{opacity:0.68;}.cls-12{fill:#13a337;}.cls-13{fill:#7c8790;}.cls-14{fill:#008782;}</style><symbol id="Arrow_26" data-name="Arrow 26" viewBox="0 0 45.72 26.28"><rect class="cls-1" width="45.72" height="26.28"/><polygon class="cls-2" points="0 19.48 22.93 19.48 22.93 26.28 45.72 13.14 22.93 0 22.93 6.8 0 6.8 0 19.48"/></symbol></defs><title>NNtable_help</title><rect class="cls-3" x="156.86" y="9.33" width="256.22" height="20.34" rx="7.88" ry="7.88"/><path class="cls-4" d="M162.46,18.67a2.13,2.13,0,0,1,1.45.43,1.77,1.77,0,0,1,.47,1.37v3.65h-.64l-.17-.76h0a2.33,2.33,0,0,1-.74.65,2.24,2.24,0,0,1-1.06.21,1.9,1.9,0,0,1-1.21-.38,1.46,1.46,0,0,1-.48-1.21,1.41,1.41,0,0,1,.63-1.23,3.69,3.69,0,0,1,1.94-.48l.91,0v-.32a1.21,1.21,0,0,0-.29-.93,1.19,1.19,0,0,0-.82-.26,2.36,2.36,0,0,0-.8.13,6.56,6.56,0,0,0-.71.28l-.27-.66a4.36,4.36,0,0,1,.83-.32A3.66,3.66,0,0,1,162.46,18.67Zm1,2.83-.79,0a2.75,2.75,0,0,0-1.38.32.92.92,0,0,0-.39.79.76.76,0,0,0,.28.66,1.1,1.1,0,0,0,.7.21,1.73,1.73,0,0,0,1.13-.37,1.43,1.43,0,0,0,.45-1.16Z"/><path class="cls-4" d="M167.94,24.22a2,2,0,0,1-1.6-.69,3.13,3.13,0,0,1-.6-2.08,3.08,3.08,0,0,1,.61-2.08,2,2,0,0,1,1.6-.71,2.08,2.08,0,0,1,1,.23,2.33,2.33,0,0,1,.64.56h.06c0-.08,0-.21,0-.38s0-.31,0-.41V16.52h.88v7.6h-.71l-.13-.72h0A2,2,0,0,1,169,24,2,2,0,0,1,167.94,24.22Zm.14-.73a1.4,1.4,0,0,0,1.2-.46,2.36,2.36,0,0,0,.34-1.41v-.16a3,3,0,0,0-.33-1.53,1.31,1.31,0,0,0-1.22-.54A1.16,1.16,0,0,0,167,20a2.79,2.79,0,0,0-.36,1.51A2.62,2.62,0,0,0,167,23,1.18,1.18,0,0,0,168.08,23.49Z"/><path class="cls-4" d="M174.09,24.22a2,2,0,0,1-1.6-.69,3.13,3.13,0,0,1-.6-2.08,3.08,3.08,0,0,1,.61-2.08,2,2,0,0,1,1.6-.71,2.08,2.08,0,0,1,1,.23,2.33,2.33,0,0,1,.64.56h.06c0-.08,0-.21,0-.38s0-.31,0-.41V16.52h.88v7.6h-.71l-.13-.72h0a1.91,1.91,0,0,1-1.67.82Zm.14-.73a1.4,1.4,0,0,0,1.2-.46,2.36,2.36,0,0,0,.34-1.41v-.16a3,3,0,0,0-.33-1.53,1.32,1.32,0,0,0-1.22-.54,1.16,1.16,0,0,0-1.06.57,2.79,2.79,0,0,0-.36,1.51,2.62,2.62,0,0,0,.36,1.49A1.18,1.18,0,0,0,174.23,23.49Z"/><path class="cls-4" d="M180.72,24.12h-.9V17.77h-2.23V17h5.35v.79h-2.22Z"/><path class="cls-4" d="M185.9,18.66l.32,0,.31,0-.11.81-.29-.05-.29,0a1.44,1.44,0,0,0-.77.23,1.58,1.58,0,0,0-.57.63,1.89,1.89,0,0,0-.22.94v2.86h-.88V18.76h.72l.1,1h0a2.68,2.68,0,0,1,.67-.76A1.55,1.55,0,0,1,185.9,18.66Z"/><path class="cls-4" d="M189.36,18.67a2.13,2.13,0,0,1,1.45.43,1.8,1.8,0,0,1,.47,1.37v3.65h-.64l-.17-.76h0a2.33,2.33,0,0,1-.74.65,2.24,2.24,0,0,1-1.06.21,1.9,1.9,0,0,1-1.21-.38,1.46,1.46,0,0,1-.48-1.21,1.41,1.41,0,0,1,.63-1.23,3.69,3.69,0,0,1,1.94-.48l.91,0v-.32a1.25,1.25,0,0,0-.29-.93,1.2,1.2,0,0,0-.82-.26,2.36,2.36,0,0,0-.8.13,6.56,6.56,0,0,0-.71.28l-.27-.66a4.36,4.36,0,0,1,.83-.32A3.66,3.66,0,0,1,189.36,18.67Zm1,2.83-.79,0a2.71,2.71,0,0,0-1.38.32.92.92,0,0,0-.39.79.76.76,0,0,0,.28.66,1.1,1.1,0,0,0,.7.21,1.73,1.73,0,0,0,1.13-.37,1.43,1.43,0,0,0,.45-1.16Z"/><path class="cls-4" d="M195.52,18.66a2,2,0,0,1,1.45.47,2,2,0,0,1,.49,1.5v3.49h-.87V20.69q0-1.29-1.2-1.29a1.4,1.4,0,0,0-1.23.5,2.64,2.64,0,0,0-.34,1.44v2.78h-.88V18.76h.71l.13.73h.05a1.56,1.56,0,0,1,.72-.62A2.32,2.32,0,0,1,195.52,18.66Z"/><path class="cls-4" d="M202.61,22.64a1.33,1.33,0,0,1-.58,1.18,2.69,2.69,0,0,1-1.56.4,4.48,4.48,0,0,1-1-.09,2.9,2.9,0,0,1-.72-.25v-.8a4.25,4.25,0,0,0,.78.3,3.2,3.2,0,0,0,.92.13,1.72,1.72,0,0,0,1-.21.69.69,0,0,0,.3-.58.66.66,0,0,0-.11-.36,1.23,1.23,0,0,0-.39-.32c-.19-.1-.47-.22-.82-.36a6.31,6.31,0,0,1-.89-.4,1.52,1.52,0,0,1-.57-.48,1.31,1.31,0,0,1,.36-1.77,2.62,2.62,0,0,1,1.45-.37,4.47,4.47,0,0,1,.92.1,6.09,6.09,0,0,1,.79.26l-.3.7a7.39,7.39,0,0,0-.71-.24,3.23,3.23,0,0,0-.76-.1,1.53,1.53,0,0,0-.82.18.53.53,0,0,0-.29.47.53.53,0,0,0,.13.38,1.38,1.38,0,0,0,.44.3,7.11,7.11,0,0,0,.81.34,7.38,7.38,0,0,1,.87.39,1.65,1.65,0,0,1,.55.49A1.23,1.23,0,0,1,202.61,22.64Z"/><path class="cls-4" d="M204,24.12V17h.9v6.34h3.12v.8Z"/><path class="cls-4" d="M213.81,21.43a2.9,2.9,0,0,1-.67,2.06,2.36,2.36,0,0,1-1.83.73,2.41,2.41,0,0,1-1.26-.32,2.25,2.25,0,0,1-.88-.95,3.35,3.35,0,0,1-.32-1.52,2.89,2.89,0,0,1,.67-2.05,2.35,2.35,0,0,1,1.82-.72,2.46,2.46,0,0,1,1.28.33,2.29,2.29,0,0,1,.88.94A3.26,3.26,0,0,1,213.81,21.43Zm-4.05,0a2.66,2.66,0,0,0,.38,1.51,1.56,1.56,0,0,0,2.38,0,2.66,2.66,0,0,0,.38-1.51,2.59,2.59,0,0,0-.38-1.49,1.36,1.36,0,0,0-1.2-.54,1.34,1.34,0,0,0-1.19.54A2.59,2.59,0,0,0,209.76,21.43Z"/><path class="cls-4" d="M217.78,18.66a2,2,0,0,1,1.45.47,2,2,0,0,1,.49,1.5v3.49h-.87V20.69q0-1.29-1.2-1.29a1.4,1.4,0,0,0-1.23.5,2.56,2.56,0,0,0-.34,1.44v2.78h-.88V18.76h.71l.13.73h.05a1.56,1.56,0,0,1,.72-.62A2.32,2.32,0,0,1,217.78,18.66Z"/><path class="cls-4" d="M223.28,18.66a2.32,2.32,0,0,1,1,.2,2,2,0,0,1,.72.61h0l.12-.71h.7v5.45a2.32,2.32,0,0,1-.58,1.73,2.49,2.49,0,0,1-1.82.58,4.64,4.64,0,0,1-1.93-.34v-.81a4.21,4.21,0,0,0,2,.42,1.46,1.46,0,0,0,1.09-.4,1.53,1.53,0,0,0,.39-1.11v-.21c0-.08,0-.19,0-.34s0-.26,0-.32h0a1.85,1.85,0,0,1-1.66.81,2,2,0,0,1-1.62-.73,3.16,3.16,0,0,1-.59-2,3.22,3.22,0,0,1,.59-2A1.93,1.93,0,0,1,223.28,18.66Zm.12.74a1.19,1.19,0,0,0-1,.54,2.63,2.63,0,0,0-.37,1.52,2.69,2.69,0,0,0,.36,1.52,1.21,1.21,0,0,0,1.07.52,1.47,1.47,0,0,0,1.18-.43,2.15,2.15,0,0,0,.37-1.41v-.21a2.59,2.59,0,0,0-.38-1.57A1.42,1.42,0,0,0,223.4,19.4Z"/><path class="cls-4" d="M227.08,21.38a7.74,7.74,0,0,1,.36-2.35A5.76,5.76,0,0,1,228.55,17h.83a6.74,6.74,0,0,0-1,2.07,7.65,7.65,0,0,0-.36,2.32,7.39,7.39,0,0,0,.36,2.28,6.84,6.84,0,0,0,1,2.05h-.82a5.43,5.43,0,0,1-1.11-2A7.52,7.52,0,0,1,227.08,21.38Z"/><path class="cls-4" d="M248.48,20v-.71h4.58V20Zm0,2v-.71h4.58V22Z"/><path class="cls-4" d="M259.26,24.22a2.62,2.62,0,0,1-1.27-.29,2,2,0,0,1-.86-.9,3.35,3.35,0,0,1-.32-1.56,3.44,3.44,0,0,1,.33-1.61A2.06,2.06,0,0,1,258,19a2.85,2.85,0,0,1,1.29-.29,3.33,3.33,0,0,1,.78.09,2.46,2.46,0,0,1,.63.2l-.27.73c-.16-.06-.35-.11-.56-.17a2.61,2.61,0,0,0-.6-.08c-1.05,0-1.58.68-1.58,2A2.52,2.52,0,0,0,258.1,23a1.35,1.35,0,0,0,1.15.51,3,3,0,0,0,.77-.09,3.47,3.47,0,0,0,.62-.22v.78a2.32,2.32,0,0,1-.59.22A3.62,3.62,0,0,1,259.26,24.22Z"/><path class="cls-4" d="M261.46,21.38a8.06,8.06,0,0,1,.35-2.35A6,6,0,0,1,262.93,17h.83a7,7,0,0,0-1.06,2.07,8,8,0,0,0-.35,2.32,7.69,7.69,0,0,0,.35,2.28,7.11,7.11,0,0,0,1.05,2.05h-.82a5.6,5.6,0,0,1-1.12-2A7.82,7.82,0,0,1,261.46,21.38Z"/><path class="cls-4" d="M284.1,23l.07.11a11.2,11.2,0,0,1-.38,1.17q-.24.63-.48,1.17h-.65c.09-.38.19-.79.28-1.25s.17-.85.22-1.2Z"/><path class="cls-4" d="M305,23l.07.11a11.2,11.2,0,0,1-.38,1.17q-.24.63-.48,1.17h-.65c.09-.38.19-.79.28-1.25s.17-.85.22-1.2Z"/><path class="cls-4" d="M326.58,21.38a7.52,7.52,0,0,1-.36,2.33,5.43,5.43,0,0,1-1.11,2h-.82a6.84,6.84,0,0,0,1-2.05,7.39,7.39,0,0,0,.36-2.28,7.65,7.65,0,0,0-.36-2.32A6.74,6.74,0,0,0,324.28,17h.83A5.76,5.76,0,0,1,326.22,19,7.74,7.74,0,0,1,326.58,21.38Z"/><path class="cls-4" d="M328.82,23l.07.11a11.2,11.2,0,0,1-.38,1.17q-.24.63-.48,1.17h-.65c.09-.38.19-.79.28-1.25s.17-.85.22-1.2Z"/><path class="cls-4" d="M334.27,24.12l-2-5.36h.94l1.14,3.16.17.49c.06.18.11.36.16.52s.08.31.1.41h0c0-.1.06-.24.11-.41s.11-.34.17-.52l.17-.49,1.14-3.16h.94l-2,5.36Z"/><path class="cls-4" d="M340.2,18.67a2.15,2.15,0,0,1,1.45.43,1.8,1.8,0,0,1,.47,1.37v3.65h-.64l-.17-.76h0a2.44,2.44,0,0,1-.74.65,2.27,2.27,0,0,1-1.06.21,1.9,1.9,0,0,1-1.21-.38,1.46,1.46,0,0,1-.48-1.21,1.41,1.41,0,0,1,.63-1.23,3.66,3.66,0,0,1,1.94-.48l.91,0v-.32a1.25,1.25,0,0,0-.29-.93,1.22,1.22,0,0,0-.82-.26,2.36,2.36,0,0,0-.8.13,5.84,5.84,0,0,0-.71.28l-.27-.66a4.36,4.36,0,0,1,.83-.32A3.66,3.66,0,0,1,340.2,18.67Zm1.05,2.83-.79,0a2.79,2.79,0,0,0-1.39.32.94.94,0,0,0-.38.79.78.78,0,0,0,.27.66,1.15,1.15,0,0,0,.71.21,1.7,1.7,0,0,0,1.12-.37,1.4,1.4,0,0,0,.46-1.16Z"/><path class="cls-4" d="M346.28,18.66l.32,0,.31,0-.11.81-.29-.05-.29,0a1.42,1.42,0,0,0-.77.23,1.68,1.68,0,0,0-.58.63,2,2,0,0,0-.21.94v2.86h-.88V18.76h.72l.1,1h0a2.8,2.8,0,0,1,.66-.76A1.58,1.58,0,0,1,346.28,18.66Z"/><path class="cls-4" d="M351.52,25.66H347V25h4.48Z"/><path class="cls-4" d="M354.93,18.66a2,2,0,0,1,1.45.47,2,2,0,0,1,.49,1.5v3.49H356V20.69q0-1.29-1.2-1.29a1.37,1.37,0,0,0-1.23.5,2.56,2.56,0,0,0-.34,1.44v2.78h-.88V18.76h.71l.13.73h.05a1.56,1.56,0,0,1,.72-.62A2.29,2.29,0,0,1,354.93,18.66Z"/><path class="cls-4" d="M360.56,18.67a2.15,2.15,0,0,1,1.45.43,1.8,1.8,0,0,1,.47,1.37v3.65h-.64l-.17-.76h0a2.44,2.44,0,0,1-.74.65,2.27,2.27,0,0,1-1.06.21,1.9,1.9,0,0,1-1.21-.38,1.46,1.46,0,0,1-.48-1.21,1.41,1.41,0,0,1,.63-1.23,3.66,3.66,0,0,1,1.94-.48l.91,0v-.32a1.25,1.25,0,0,0-.29-.93,1.2,1.2,0,0,0-.82-.26,2.36,2.36,0,0,0-.8.13,5.84,5.84,0,0,0-.71.28l-.27-.66a4.36,4.36,0,0,1,.83-.32A3.66,3.66,0,0,1,360.56,18.67Zm1.05,2.83-.79,0a2.79,2.79,0,0,0-1.39.32.94.94,0,0,0-.38.79.78.78,0,0,0,.27.66,1.15,1.15,0,0,0,.71.21,1.68,1.68,0,0,0,1.12-.37,1.4,1.4,0,0,0,.46-1.16Z"/><path class="cls-4" d="M370,18.66a1.82,1.82,0,0,1,1.36.47,2.14,2.14,0,0,1,.45,1.5v3.49H371V20.67c0-.84-.37-1.27-1.09-1.27a1.32,1.32,0,0,0-1.12.45,2.2,2.2,0,0,0-.33,1.31v3h-.87V20.67c0-.84-.37-1.27-1.1-1.27a1.21,1.21,0,0,0-1.12.5,2.75,2.75,0,0,0-.31,1.44v2.78h-.88V18.76h.71l.13.73h0a1.54,1.54,0,0,1,.67-.62,2.06,2.06,0,0,1,.91-.21,1.59,1.59,0,0,1,1.64.9h.05a1.71,1.71,0,0,1,.73-.68A2.32,2.32,0,0,1,370,18.66Z"/><path class="cls-4" d="M375.56,18.66a2.28,2.28,0,0,1,1.18.3,1.91,1.91,0,0,1,.76.85,2.83,2.83,0,0,1,.27,1.27v.53H374.1a2.05,2.05,0,0,0,.46,1.39,1.65,1.65,0,0,0,1.25.47,4,4,0,0,0,.9-.09,5.68,5.68,0,0,0,.82-.28v.77a4.81,4.81,0,0,1-.81.27,5.27,5.27,0,0,1-1,.08,2.77,2.77,0,0,1-1.35-.31,2.13,2.13,0,0,1-.91-.92,3.25,3.25,0,0,1-.32-1.51,3.66,3.66,0,0,1,.29-1.51,2.18,2.18,0,0,1,2.08-1.31Zm0,.72a1.3,1.3,0,0,0-1,.41,1.87,1.87,0,0,0-.43,1.12h2.73a1.94,1.94,0,0,0-.32-1.1A1.13,1.13,0,0,0,375.55,19.38Z"/><path class="cls-4" d="M381.48,20v-.71h4.58V20Zm0,2v-.71h4.58V22Z"/><path class="cls-4" d="M410.06,21.38a7.52,7.52,0,0,1-.36,2.33,5.58,5.58,0,0,1-1.11,2h-.82a6.84,6.84,0,0,0,1-2.05,7.39,7.39,0,0,0,.36-2.28,7.65,7.65,0,0,0-.36-2.32A7,7,0,0,0,407.76,17h.83A5.92,5.92,0,0,1,409.7,19,7.74,7.74,0,0,1,410.06,21.38Z"/><rect class="cls-5" x="265.07" y="15.89" width="15.62" height="10.42" rx="4.37" ry="4.37"/><path class="cls-6" d="M273.4,18.58a2.26,2.26,0,0,0-1.81.77,3.14,3.14,0,0,0-.66,2.11,3.26,3.26,0,0,0,.61,2.1,2.22,2.22,0,0,0,1.85.78,5.05,5.05,0,0,0,.88-.08,8.34,8.34,0,0,0,.83-.2v.78a4.61,4.61,0,0,1-.83.22,5.92,5.92,0,0,1-1,.07,3.39,3.39,0,0,1-1.82-.45,2.82,2.82,0,0,1-1.1-1.28,4.85,4.85,0,0,1-.36-1.95,4.43,4.43,0,0,1,.39-1.91,3,3,0,0,1,1.17-1.29,3.53,3.53,0,0,1,1.87-.46,4.36,4.36,0,0,1,2,.42L275,19a5.76,5.76,0,0,0-.74-.27A3.07,3.07,0,0,0,273.4,18.58Z"/><rect class="cls-7" x="285.39" y="15.89" width="15.62" height="10.42" rx="4.37" ry="4.37"/><path class="cls-6" d="M296.73,21.08a3.55,3.55,0,0,1-1,2.72,3.89,3.89,0,0,1-2.75.92h-2V17.58h2.2a4.06,4.06,0,0,1,1.87.4,2.78,2.78,0,0,1,1.22,1.18A3.89,3.89,0,0,1,296.73,21.08Zm-1,0a2.79,2.79,0,0,0-.7-2.1,2.82,2.82,0,0,0-2-.66h-1.17V24h1C294.82,24,295.78,23,295.78,21.11Z"/><use id="Arrow_26-3" data-name="Arrow 26" width="45.72" height="26.28" transform="matrix(0, 0.47, -0.51, 0, 292.94, 36.72)" xlink:href="#Arrow_26"/><rect class="cls-8" x="230.74" y="15.89" width="14.84" height="10.42" rx="4.37" ry="4.37"/><line class="cls-9" x1="159.58" y1="68.38" x2="410.56" y2="68.38"/><line class="cls-10" x1="159.58" y1="90.16" x2="410.56" y2="90.16"/><line class="cls-10" x1="159.58" y1="203.61" x2="410.56" y2="203.61"/><rect class="cls-5" x="307.87" y="95.61" width="28.35" height="8.75" rx="4.37" ry="4.37"/><rect class="cls-11" x="377.56" y="95.61" width="28.35" height="8.75" rx="4.37" ry="4.37"/><rect class="cls-7" x="307.87" y="107.61" width="28.35" height="8.75" rx="4.37" ry="4.37"/><rect class="cls-11" x="377.56" y="107.61" width="28.35" height="8.75" rx="4.37" ry="4.37"/><rect class="cls-12" x="307.87" y="119.61" width="28.35" height="8.75" rx="4.37" ry="4.37"/><rect class="cls-11" x="377.56" y="119.61" width="28.35" height="8.75" rx="4.37" ry="4.37"/><rect class="cls-11" x="377.56" y="131.61" width="28.35" height="8.75" rx="4.37" ry="4.37"/><rect class="cls-11" x="377.56" y="143.61" width="28.35" height="8.75" rx="4.37" ry="4.37"/><rect class="cls-11" x="377.56" y="179.61" width="28.35" height="8.75" rx="4.37" ry="4.37"/><rect class="cls-11" x="377.56" y="191.61" width="28.35" height="8.75" rx="4.37" ry="4.37"/><rect class="cls-13" x="307.87" y="75.19" width="28.35" height="8.75" rx="4.37" ry="4.37"/><path class="cls-6" d="M322.35,97.64a1.81,1.81,0,0,0-1.45.61,2.53,2.53,0,0,0-.53,1.69,2.61,2.61,0,0,0,.5,1.68,1.74,1.74,0,0,0,1.47.62,4.08,4.08,0,0,0,.71-.06c.22,0,.44-.1.66-.16v.62a3.57,3.57,0,0,1-.66.18,4.79,4.79,0,0,1-.81.06,2.75,2.75,0,0,1-1.46-.36,2.2,2.2,0,0,1-.87-1,3.74,3.74,0,0,1-.3-1.56,3.5,3.5,0,0,1,.32-1.52,2.33,2.33,0,0,1,.93-1,2.83,2.83,0,0,1,1.5-.38,3.49,3.49,0,0,1,1.57.34l-.29.61a5.45,5.45,0,0,0-.58-.22A2.65,2.65,0,0,0,322.35,97.64Z"/><rect class="cls-8" x="377.56" y="75.19" width="28.35" height="8.75" rx="4.37" ry="4.37"/><use id="Arrow_26-6" data-name="Arrow 26" width="45.72" height="26.28" transform="translate(127.67 13.87) scale(0.47 0.51)" xlink:href="#Arrow_26"/><rect class="cls-12" x="306.44" y="15.89" width="15.62" height="10.42" rx="4.37" ry="4.37"/><path class="cls-6" d="M316.05,24.72h-4V17.58h4v.79H313V20.6h2.91v.78H313v2.55h3.09Z"/><rect class="cls-13" x="388.24" y="15.3" width="17.69" height="10.42" rx="4.37" ry="4.37"/><rect class="cls-11" x="377.59" y="155.61" width="28.35" height="8.75" rx="4.37" ry="4.37"/><rect class="cls-11" x="377.59" y="167.61" width="28.35" height="8.75" rx="4.37" ry="4.37"/><path class="cls-6" d="M325.17,111.63a2.86,2.86,0,0,1-.78,2.18,3.11,3.11,0,0,1-2.2.73H320.6v-5.71h1.76a3.31,3.31,0,0,1,1.49.32,2.28,2.28,0,0,1,1,.94A3.16,3.16,0,0,1,325.17,111.63Zm-.76,0a2.17,2.17,0,0,0-.56-1.67,2.23,2.23,0,0,0-1.6-.54h-.93v4.48h.77A2,2,0,0,0,324.41,111.65Z"/><path class="cls-6" d="M323.94,127.2h-3.2v-5.71h3.2v.63h-2.47v1.79h2.32v.62h-2.32v2h2.47Z"/><rect class="cls-5" x="307.87" y="131.52" width="28.35" height="8.75" rx="4.37" ry="4.37"/><rect class="cls-7" x="307.87" y="143.52" width="28.35" height="8.75" rx="4.37" ry="4.37"/><rect class="cls-12" x="307.87" y="155.52" width="28.35" height="8.75" rx="4.37" ry="4.37"/><path class="cls-6" d="M322.35,133.9a1.81,1.81,0,0,0-1.45.61,2.55,2.55,0,0,0-.53,1.69,2.66,2.66,0,0,0,.5,1.69,1.76,1.76,0,0,0,1.47.62,3.29,3.29,0,0,0,.71-.07,5.28,5.28,0,0,0,.66-.16v.63a2.91,2.91,0,0,1-.66.17,4.79,4.79,0,0,1-.81.06,2.75,2.75,0,0,1-1.46-.36,2.16,2.16,0,0,1-.87-1,3.74,3.74,0,0,1-.3-1.56,3.5,3.5,0,0,1,.32-1.52,2.38,2.38,0,0,1,.93-1,2.83,2.83,0,0,1,1.5-.37,3.49,3.49,0,0,1,1.57.33l-.29.61a5.45,5.45,0,0,0-.58-.22A2.65,2.65,0,0,0,322.35,133.9Z"/><path class="cls-6" d="M325.17,147.57a2.85,2.85,0,0,1-.78,2.18,3.11,3.11,0,0,1-2.2.73H320.6v-5.71h1.76a3.31,3.31,0,0,1,1.49.32,2.25,2.25,0,0,1,1,.95A3.09,3.09,0,0,1,325.17,147.57Zm-.76,0a2.18,2.18,0,0,0-.56-1.68,2.27,2.27,0,0,0-1.6-.53h-.93v4.48h.77A2,2,0,0,0,324.41,147.6Z"/><path class="cls-6" d="M323.94,162.8h-3.2v-5.71h3.2v.63h-2.47v1.79h2.32v.62h-2.32v2h2.47Z"/><rect class="cls-5" x="307.87" y="167.61" width="28.35" height="8.75" rx="4.37" ry="4.37"/><rect class="cls-7" x="307.87" y="179.61" width="28.35" height="8.75" rx="4.37" ry="4.37"/><rect class="cls-12" x="307.87" y="191.61" width="28.35" height="8.75" rx="4.37" ry="4.37"/><path class="cls-6" d="M322.35,169.44a1.79,1.79,0,0,0-1.45.62,2.51,2.51,0,0,0-.53,1.68,2.66,2.66,0,0,0,.5,1.69,1.76,1.76,0,0,0,1.47.62,3.29,3.29,0,0,0,.71-.07,5.28,5.28,0,0,0,.66-.16v.63a2.91,2.91,0,0,1-.66.17,4.79,4.79,0,0,1-.81.06,2.75,2.75,0,0,1-1.46-.36,2.18,2.18,0,0,1-.87-1,3.81,3.81,0,0,1-.3-1.56,3.51,3.51,0,0,1,.32-1.53,2.38,2.38,0,0,1,.93-1,2.83,2.83,0,0,1,1.5-.37,3.49,3.49,0,0,1,1.57.33l-.29.61a3.91,3.91,0,0,0-.58-.21A2.3,2.3,0,0,0,322.35,169.44Z"/><path class="cls-6" d="M325.17,183.66a2.83,2.83,0,0,1-.78,2.18,3.11,3.11,0,0,1-2.2.74H320.6v-5.72h1.76a3.31,3.31,0,0,1,1.49.32,2.3,2.3,0,0,1,1,.95A3.12,3.12,0,0,1,325.17,183.66Zm-.76,0a2.21,2.21,0,0,0-.56-1.68,2.27,2.27,0,0,0-1.6-.53h-.93V186h.77A2,2,0,0,0,324.41,183.69Z"/><path class="cls-6" d="M323.94,198.75h-3.2V193h3.2v.63h-2.47v1.78h2.32v.63h-2.32v2h2.47Z"/><rect class="cls-2" x="6.36" y="4.71" width="17.84" height="8.73" rx="3.12" ry="3.12"/><rect class="cls-14" x="28.87" y="4.71" width="17.84" height="8.73" rx="3.12" ry="3.12"/><rect class="cls-5" x="51.38" y="4.71" width="17.84" height="8.73" rx="3.12" ry="3.12"/><rect class="cls-7" x="73.89" y="4.71" width="17.84" height="8.73" rx="3.12" ry="3.12"/><rect class="cls-12" x="96.4" y="4.71" width="17.84" height="8.73" rx="3.12" ry="3.12"/><line class="cls-9" x1="2.62" y1="15.63" x2="117.74" y2="15.63"/><rect class="cls-11" x="6.36" y="18.21" width="17.84" height="8.73" rx="3.12" ry="3.12"/><rect class="cls-11" x="28.87" y="18.21" width="17.84" height="8.73" rx="3.12" ry="3.12"/><rect class="cls-11" x="51.38" y="18.21" width="17.84" height="8.73" rx="3.12" ry="3.12"/><rect class="cls-11" x="73.89" y="18.21" width="17.84" height="8.73" rx="3.12" ry="3.12"/><rect class="cls-11" x="96.4" y="18.21" width="17.84" height="8.73" rx="3.12" ry="3.12"/><line class="cls-15" x1="2.62" y1="29.12" x2="117.74" y2="29.12"/><rect class="cls-11" x="6.36" y="31.7" width="17.84" height="8.73" rx="3.12" ry="3.12"/><rect class="cls-11" x="28.87" y="31.7" width="17.84" height="8.73" rx="3.12" ry="3.12"/><rect class="cls-11" x="51.38" y="31.7" width="17.84" height="8.73" rx="3.12" ry="3.12"/><rect class="cls-11" x="73.89" y="31.7" width="17.84" height="8.73" rx="3.12" ry="3.12"/><rect class="cls-11" x="96.4" y="31.7" width="17.84" height="8.73" rx="3.12" ry="3.12"/><line class="cls-15" x1="2.62" y1="42.62" x2="117.74" y2="42.62"/><rect class="cls-11" x="6.36" y="45.2" width="17.84" height="8.73" rx="3.12" ry="3.12"/><rect class="cls-11" x="28.87" y="45.2" width="17.84" height="8.73" rx="3.12" ry="3.12"/><rect class="cls-11" x="51.38" y="45.2" width="17.84" height="8.73" rx="3.12" ry="3.12"/><rect class="cls-11" x="73.89" y="45.2" width="17.84" height="8.73" rx="3.12" ry="3.12"/><rect class="cls-11" x="96.4" y="45.2" width="17.84" height="8.73" rx="3.12" ry="3.12"/><rect class="cls-11" x="6.36" y="58.19" width="17.84" height="8.73" rx="3.12" ry="3.12"/><rect class="cls-11" x="28.87" y="58.19" width="17.84" height="8.73" rx="3.12" ry="3.12"/><rect class="cls-11" x="51.38" y="58.19" width="17.84" height="8.73" rx="3.12" ry="3.12"/><rect class="cls-11" x="73.89" y="58.19" width="17.84" height="8.73" rx="3.12" ry="3.12"/><rect class="cls-11" x="96.4" y="58.19" width="17.84" height="8.73" rx="3.12" ry="3.12"/><line class="cls-15" x1="2.62" y1="69.1" x2="117.74" y2="69.1"/><rect class="cls-11" x="6.36" y="71.68" width="17.84" height="8.73" rx="3.12" ry="3.12"/><rect class="cls-11" x="28.87" y="71.68" width="17.84" height="8.73" rx="3.12" ry="3.12"/><rect class="cls-11" x="51.38" y="71.68" width="17.84" height="8.73" rx="3.12" ry="3.12"/><rect class="cls-11" x="73.89" y="71.68" width="17.84" height="8.73" rx="3.12" ry="3.12"/><rect class="cls-11" x="96.4" y="71.68" width="17.84" height="8.73" rx="3.12" ry="3.12"/><line class="cls-15" x1="2.62" y1="56.06" x2="117.74" y2="56.06"/><line class="cls-15" x1="2.62" y1="82.99" x2="117.74" y2="82.99"/><rect class="cls-11" x="6.36" y="85.57" width="17.84" height="8.73" rx="3.12" ry="3.12"/><rect class="cls-11" x="28.87" y="85.57" width="17.84" height="8.73" rx="3.12" ry="3.12"/><rect class="cls-11" x="51.38" y="85.57" width="17.84" height="8.73" rx="3.12" ry="3.12"/><rect class="cls-11" x="73.89" y="85.57" width="17.84" height="8.73" rx="3.12" ry="3.12"/><rect class="cls-11" x="96.4" y="85.57" width="17.84" height="8.73" rx="3.12" ry="3.12"/><line class="cls-15" x1="2.62" y1="96.49" x2="117.74" y2="96.49"/><rect class="cls-11" x="6.36" y="99.07" width="17.84" height="8.73" rx="3.12" ry="3.12"/><rect class="cls-11" x="28.87" y="99.07" width="17.84" height="8.73" rx="3.12" ry="3.12"/><rect class="cls-11" x="51.38" y="99.07" width="17.84" height="8.73" rx="3.12" ry="3.12"/><rect class="cls-11" x="73.89" y="99.07" width="17.84" height="8.73" rx="3.12" ry="3.12"/><rect class="cls-11" x="96.4" y="99.07" width="17.84" height="8.73" rx="3.12" ry="3.12"/><rect class="cls-11" x="6.36" y="112.06" width="17.84" height="8.73" rx="3.12" ry="3.12"/><rect class="cls-11" x="28.87" y="112.06" width="17.84" height="8.73" rx="3.12" ry="3.12"/><rect class="cls-11" x="51.38" y="112.06" width="17.84" height="8.73" rx="3.12" ry="3.12"/><rect class="cls-11" x="73.89" y="112.06" width="17.84" height="8.73" rx="3.12" ry="3.12"/><rect class="cls-11" x="96.4" y="112.06" width="17.84" height="8.73" rx="3.12" ry="3.12"/><line class="cls-15" x1="2.62" y1="122.98" x2="117.74" y2="122.98"/><rect class="cls-11" x="6.36" y="125.56" width="17.84" height="8.73" rx="3.12" ry="3.12"/><rect class="cls-11" x="28.87" y="125.56" width="17.84" height="8.73" rx="3.12" ry="3.12"/><rect class="cls-11" x="51.38" y="125.56" width="17.84" height="8.73" rx="3.12" ry="3.12"/><rect class="cls-11" x="73.89" y="125.56" width="17.84" height="8.73" rx="3.12" ry="3.12"/><rect class="cls-11" x="96.4" y="125.56" width="17.84" height="8.73" rx="3.12" ry="3.12"/><line class="cls-15" x1="2.62" y1="109.93" x2="117.74" y2="109.93"/><path class="cls-6" d="M17.53,12.42l-.86-2.21H13.84L13,12.42h-.91l2.79-7.17h.81l2.78,7.17Zm-1.13-3-.8-2.16L15.5,7c0-.14-.09-.29-.13-.44s-.08-.26-.11-.34c0,.2-.11.41-.16.6s-.11.35-.15.47l-.81,2.16Z"/><path class="cls-6" d="M35.93,5.47h2a4.2,4.2,0,0,1,2,.39,1.47,1.47,0,0,1,.69,1.38,1.59,1.59,0,0,1-.35,1,1.66,1.66,0,0,1-1,.54v0a3.21,3.21,0,0,1,.81.27,1.44,1.44,0,0,1,.58.54,1.78,1.78,0,0,1,.21.91,1.81,1.81,0,0,1-.67,1.5,2.85,2.85,0,0,1-1.81.53H35.93Zm.9,3h1.32a2,2,0,0,0,1.25-.3,1.09,1.09,0,0,0,.35-.87.91.91,0,0,0-.42-.85A2.61,2.61,0,0,0,38,6.24H36.83Zm0,.75v2.59h1.44a1.89,1.89,0,0,0,1.32-.37,1.36,1.36,0,0,0,.37-1,1.15,1.15,0,0,0-.39-.91,2.06,2.06,0,0,0-1.37-.34Z"/><path class="cls-6" d="M61.81,6.41A2.28,2.28,0,0,0,60,7.18a3.14,3.14,0,0,0-.66,2.11,3.26,3.26,0,0,0,.62,2.1,2.2,2.2,0,0,0,1.84.78,5,5,0,0,0,.88-.08,7.72,7.72,0,0,0,.83-.2v.78a4.5,4.5,0,0,1-.82.22,6,6,0,0,1-1,.07,3.44,3.44,0,0,1-1.82-.45,2.8,2.8,0,0,1-1.09-1.28,4.84,4.84,0,0,1-.37-2,4.29,4.29,0,0,1,.4-1.91A3,3,0,0,1,60,6.08a3.58,3.58,0,0,1,1.87-.46,4.33,4.33,0,0,1,2,.42l-.36.76a5.59,5.59,0,0,0-.73-.27A3.14,3.14,0,0,0,61.81,6.41Z"/><path class="cls-6" d="M86,9a3.53,3.53,0,0,1-1,2.72,3.88,3.88,0,0,1-2.74.92h-2V5.47h2.2a4,4,0,0,1,1.86.4,2.8,2.8,0,0,1,1.23,1.18A4,4,0,0,1,86,9Zm-1,0a2.76,2.76,0,0,0-.71-2.1,2.8,2.8,0,0,0-2-.66H81.22v5.6h1C84.12,11.84,85.09,10.89,85.09,9Z"/><path class="cls-6" d="M107.62,12.61h-4V5.47h4v.79h-3.09V8.49h2.91v.78h-2.91v2.55h3.09Z"/><rect class="cls-11" x="238.19" y="95.61" width="28.35" height="8.75" rx="4.37" ry="4.37"/><rect class="cls-11" x="238.19" y="107.61" width="28.35" height="8.75" rx="4.37" ry="4.37"/><rect class="cls-11" x="238.19" y="119.61" width="28.35" height="8.75" rx="4.37" ry="4.37"/><rect class="cls-11" x="238.19" y="131.61" width="28.35" height="8.75" rx="4.37" ry="4.37"/><rect class="cls-11" x="238.19" y="143.61" width="28.35" height="8.75" rx="4.37" ry="4.37"/><rect class="cls-11" x="238.19" y="179.61" width="28.35" height="8.75" rx="4.37" ry="4.37"/><rect class="cls-11" x="238.19" y="191.61" width="28.35" height="8.75" rx="4.37" ry="4.37"/><rect class="cls-14" x="238.19" y="75.19" width="28.35" height="8.75" rx="4.37" ry="4.37"/><rect class="cls-11" x="238.19" y="155.61" width="28.35" height="8.75" rx="4.37" ry="4.37"/><rect class="cls-11" x="238.19" y="167.61" width="28.35" height="8.75" rx="4.37" ry="4.37"/><rect class="cls-11" x="168.5" y="95.61" width="28.35" height="8.75" rx="4.37" ry="4.37"/><rect class="cls-11" x="168.5" y="107.61" width="28.35" height="8.75" rx="4.37" ry="4.37"/><rect class="cls-11" x="168.5" y="119.61" width="28.35" height="8.75" rx="4.37" ry="4.37"/><rect class="cls-11" x="168.5" y="131.61" width="28.35" height="8.75" rx="4.37" ry="4.37"/><rect class="cls-11" x="168.5" y="143.61" width="28.35" height="8.75" rx="4.37" ry="4.37"/><rect class="cls-11" x="168.5" y="179.61" width="28.35" height="8.75" rx="4.37" ry="4.37"/><rect class="cls-11" x="168.5" y="191.61" width="28.35" height="8.75" rx="4.37" ry="4.37"/><rect class="cls-2" x="168.5" y="75.19" width="28.35" height="8.75" rx="4.37" ry="4.37"/><rect class="cls-11" x="168.54" y="155.61" width="28.35" height="8.75" rx="4.37" ry="4.37"/><rect class="cls-11" x="168.54" y="167.61" width="28.35" height="8.75" rx="4.37" ry="4.37"/><rect class="cls-11" x="6.48" y="139.3" width="17.84" height="8.73" rx="3.12" ry="3.12"/><rect class="cls-11" x="28.99" y="139.3" width="17.84" height="8.73" rx="3.12" ry="3.12"/><rect class="cls-11" x="51.5" y="139.3" width="17.84" height="8.73" rx="3.12" ry="3.12"/><rect class="cls-11" x="74.01" y="139.3" width="17.84" height="8.73" rx="3.12" ry="3.12"/><rect class="cls-11" x="96.52" y="139.3" width="17.84" height="8.73" rx="3.12" ry="3.12"/><line class="cls-15" x1="2.74" y1="150.22" x2="117.86" y2="150.22"/><rect class="cls-11" x="6.48" y="152.8" width="17.84" height="8.73" rx="3.12" ry="3.12"/><rect class="cls-11" x="28.99" y="152.8" width="17.84" height="8.73" rx="3.12" ry="3.12"/><rect class="cls-11" x="51.5" y="152.8" width="17.84" height="8.73" rx="3.12" ry="3.12"/><rect class="cls-11" x="74.01" y="152.8" width="17.84" height="8.73" rx="3.12" ry="3.12"/><rect class="cls-11" x="96.52" y="152.8" width="17.84" height="8.73" rx="3.12" ry="3.12"/><line class="cls-15" x1="2.74" y1="137.17" x2="117.86" y2="137.17"/><line class="cls-15" x1="2.74" y1="164.11" x2="117.86" y2="164.11"/><rect class="cls-11" x="6.48" y="166.69" width="17.84" height="8.73" rx="3.12" ry="3.12"/><rect class="cls-11" x="28.99" y="166.69" width="17.84" height="8.73" rx="3.12" ry="3.12"/><rect class="cls-11" x="51.5" y="166.69" width="17.84" height="8.73" rx="3.12" ry="3.12"/><rect class="cls-11" x="74.01" y="166.69" width="17.84" height="8.73" rx="3.12" ry="3.12"/><rect class="cls-11" x="96.52" y="166.69" width="17.84" height="8.73" rx="3.12" ry="3.12"/><line class="cls-15" x1="2.74" y1="177.6" x2="117.86" y2="177.6"/><rect class="cls-11" x="6.48" y="180.18" width="17.84" height="8.73" rx="3.12" ry="3.12"/><rect class="cls-11" x="28.99" y="180.18" width="17.84" height="8.73" rx="3.12" ry="3.12"/><rect class="cls-11" x="51.5" y="180.18" width="17.84" height="8.73" rx="3.12" ry="3.12"/><rect class="cls-11" x="74.01" y="180.18" width="17.84" height="8.73" rx="3.12" ry="3.12"/><rect class="cls-11" x="96.52" y="180.18" width="17.84" height="8.73" rx="3.12" ry="3.12"/><rect class="cls-11" x="6.48" y="193.18" width="17.84" height="8.73" rx="3.12" ry="3.12"/><rect class="cls-11" x="28.99" y="193.18" width="17.84" height="8.73" rx="3.12" ry="3.12"/><rect class="cls-11" x="51.5" y="193.18" width="17.84" height="8.73" rx="3.12" ry="3.12"/><rect class="cls-11" x="74.01" y="193.18" width="17.84" height="8.73" rx="3.12" ry="3.12"/><rect class="cls-11" x="96.52" y="193.18" width="17.84" height="8.73" rx="3.12" ry="3.12"/><line class="cls-15" x1="2.74" y1="191.05" x2="117.86" y2="191.05"/><path class="cls-6" d="M15.9,25.4l-.6-1.54h-2l-.59,1.54h-.64l2-5h.56l2,5Zm-.79-2.1-.56-1.52a1,1,0,0,1-.07-.2c0-.1-.07-.2-.1-.3s-.05-.19-.07-.24l-.12.42a3.23,3.23,0,0,1-.1.32l-.57,1.52Z"/><path class="cls-6" d="M19.05,25.4h-.6V21.91c0-.2,0-.36,0-.48s0-.25,0-.38a1.8,1.8,0,0,1-.21.19l-.22.19-.54.44-.32-.41,1.35-1.05h.51Z"/><path class="cls-6" d="M34.66,20.41h1.43a2.81,2.81,0,0,1,1.41.28,1,1,0,0,1,.48,1,1.13,1.13,0,0,1-.24.73,1.22,1.22,0,0,1-.71.37v0a2,2,0,0,1,.57.18,1,1,0,0,1,.4.38,1.22,1.22,0,0,1,.15.63A1.24,1.24,0,0,1,37.69,25a2,2,0,0,1-1.28.37H34.66Zm.63,2.12h.92a1.37,1.37,0,0,0,.88-.2.76.76,0,0,0,.24-.61.66.66,0,0,0-.29-.6,1.81,1.81,0,0,0-.93-.18h-.82Zm0,.53v1.81h1a1.25,1.25,0,0,0,.92-.26.93.93,0,0,0,.26-.68.8.8,0,0,0-.27-.63,1.46,1.46,0,0,0-1-.24Z"/><path class="cls-6" d="M41,25.4h-.6v-4c0-.12,0-.25,0-.38l-.2.19-.23.19-.53.44-.32-.41,1.35-1.05H41Z"/><path class="cls-6" d="M59,20.89a1.58,1.58,0,0,0-1.27.54,2.18,2.18,0,0,0-.46,1.47,2.29,2.29,0,0,0,.43,1.48,1.53,1.53,0,0,0,1.29.54,3,3,0,0,0,.61-.06,3.77,3.77,0,0,0,.58-.14v.55a2.65,2.65,0,0,1-.57.15,3.76,3.76,0,0,1-.71,0,2.4,2.4,0,0,1-1.28-.31,1.93,1.93,0,0,1-.76-.9,3.33,3.33,0,0,1-.26-1.36,3,3,0,0,1,.28-1.34,2.07,2.07,0,0,1,.81-.9A2.47,2.47,0,0,1,59,20.34a3,3,0,0,1,1.38.29l-.25.53a5.19,5.19,0,0,0-.52-.19A2.31,2.31,0,0,0,59,20.89Z"/><path class="cls-6" d="M63.08,25.4h-.6v-4c0-.12,0-.25,0-.38l-.2.19-.23.19-.53.44-.33-.41,1.36-1.05h.51Z"/><path class="cls-6" d="M84.12,22.86a2.46,2.46,0,0,1-.69,1.9,2.68,2.68,0,0,1-1.92.64H80.12v-5h1.54a2.87,2.87,0,0,1,1.31.28,1.92,1.92,0,0,1,.85.82A2.78,2.78,0,0,1,84.12,22.86Zm-.66,0a1.7,1.7,0,0,0-1.89-1.94h-.82v3.92h.68A1.77,1.77,0,0,0,83.46,22.88Z"/><path class="cls-6" d="M87.05,25.4h-.6V21.91c0-.2,0-.36,0-.48s0-.25,0-.38l-.21.19-.23.19-.53.44-.32-.41,1.35-1.05h.51Z"/><path class="cls-6" d="M105.09,25.4h-2.8v-5h2.8V21h-2.17v1.56h2v.55h-2v1.78h2.17Z"/><path class="cls-6" d="M108,25.4h-.61V21.91c0-.2,0-.36,0-.48s0-.25,0-.38l-.2.19-.23.19-.53.44-.33-.41,1.36-1.05H108Z"/><path class="cls-6" d="M15.47,38.4l-.6-1.54h-2L12.3,38.4h-.64l1.95-5h.57l1.94,5Zm-.79-2.1-.56-1.52s0-.1-.07-.2l-.09-.3a2.18,2.18,0,0,0-.08-.24c0,.14-.07.28-.11.42a3.23,3.23,0,0,1-.1.32L13.1,36.3Z"/><path class="cls-6" d="M19.79,38.4h-3.3v-.51l1.31-1.32.63-.67a2.42,2.42,0,0,0,.4-.58A1.52,1.52,0,0,0,19,34.7a.79.79,0,0,0-.25-.63.92.92,0,0,0-.63-.21,1.48,1.48,0,0,0-.65.13,2.69,2.69,0,0,0-.56.35l-.33-.42a3.07,3.07,0,0,1,.68-.41,2,2,0,0,1,.86-.17,1.6,1.6,0,0,1,1.1.35,1.25,1.25,0,0,1,.41,1,1.66,1.66,0,0,1-.16.73,3.08,3.08,0,0,1-.45.68c-.19.22-.42.46-.67.71l-1,1v0h2.52Z"/><path class="cls-6" d="M34.23,33.41h1.43a2.88,2.88,0,0,1,1.42.28,1,1,0,0,1,.48,1,1.08,1.08,0,0,1-.25.73,1.16,1.16,0,0,1-.7.37v0a2,2,0,0,1,.57.18,1,1,0,0,1,.4.38,1.22,1.22,0,0,1,.15.63A1.25,1.25,0,0,1,37.26,38,2,2,0,0,1,36,38.4H34.23Zm.63,2.12h.93a1.39,1.39,0,0,0,.88-.2.76.76,0,0,0,.24-.61.66.66,0,0,0-.29-.6,1.84,1.84,0,0,0-.93-.18h-.83Zm0,.53v1.81h1a1.28,1.28,0,0,0,.93-.26.93.93,0,0,0,.26-.68.8.8,0,0,0-.27-.63,1.48,1.48,0,0,0-1-.24Z"/><path class="cls-6" d="M41.77,38.4H38.46v-.51l1.31-1.32c.25-.25.46-.48.63-.67a2.42,2.42,0,0,0,.4-.58,1.38,1.38,0,0,0,.13-.62.82.82,0,0,0-.24-.63,1,1,0,0,0-.64-.21,1.41,1.41,0,0,0-.64.13,2.69,2.69,0,0,0-.56.35l-.33-.42a3,3,0,0,1,.67-.41,2,2,0,0,1,.86-.17,1.61,1.61,0,0,1,1.11.35,1.25,1.25,0,0,1,.4,1,1.66,1.66,0,0,1-.16.73,2.76,2.76,0,0,1-.45.68c-.19.22-.41.46-.67.71l-1,1v0h2.53Z"/><path class="cls-6" d="M58.55,33.89a1.58,1.58,0,0,0-1.27.54,2.23,2.23,0,0,0-.46,1.47,2.35,2.35,0,0,0,.43,1.48,1.56,1.56,0,0,0,1.29.54,3.11,3.11,0,0,0,.62-.06,3.77,3.77,0,0,0,.58-.14v.55a2.91,2.91,0,0,1-.58.15,3.63,3.63,0,0,1-.71,0,2.37,2.37,0,0,1-1.27-.31,2,2,0,0,1-.77-.9,3.34,3.34,0,0,1-.25-1.36,3.14,3.14,0,0,1,.27-1.34,2.16,2.16,0,0,1,.82-.9,2.45,2.45,0,0,1,1.31-.32,3,3,0,0,1,1.38.29l-.25.53a5.19,5.19,0,0,0-.52-.19A2.45,2.45,0,0,0,58.55,33.89Z"/><path class="cls-6" d="M63.81,38.4h-3.3v-.51l1.31-1.32c.25-.25.46-.48.63-.67a2.42,2.42,0,0,0,.4-.58A1.38,1.38,0,0,0,63,34.7a.82.82,0,0,0-.24-.63,1,1,0,0,0-.64-.21,1.41,1.41,0,0,0-.64.13,2.46,2.46,0,0,0-.56.35l-.33-.42a2.79,2.79,0,0,1,.67-.41,2,2,0,0,1,.86-.17,1.61,1.61,0,0,1,1.11.35,1.25,1.25,0,0,1,.4,1,1.66,1.66,0,0,1-.16.73,3.08,3.08,0,0,1-.45.68c-.19.22-.41.46-.67.71l-1,1v0h2.52Z"/><path class="cls-6" d="M83.7,35.86a2.46,2.46,0,0,1-.69,1.9,2.7,2.7,0,0,1-1.92.64H79.7v-5h1.54a2.8,2.8,0,0,1,1.3.28,2,2,0,0,1,.86.82A2.78,2.78,0,0,1,83.7,35.86Zm-.66,0a1.71,1.71,0,0,0-1.89-1.94h-.82v3.92H81A1.77,1.77,0,0,0,83,35.88Z"/><path class="cls-6" d="M87.79,38.4h-3.3v-.51l1.3-1.32c.25-.25.46-.48.64-.67a2.68,2.68,0,0,0,.39-.58A1.38,1.38,0,0,0,87,34.7a.83.83,0,0,0-.25-.63.93.93,0,0,0-.64-.21,1.44,1.44,0,0,0-.64.13,2.69,2.69,0,0,0-.56.35l-.33-.42a2.86,2.86,0,0,1,.68-.41,2,2,0,0,1,.85-.17,1.61,1.61,0,0,1,1.11.35,1.25,1.25,0,0,1,.41,1,1.81,1.81,0,0,1-.16.73,3.08,3.08,0,0,1-.45.68c-.19.22-.42.46-.67.71l-1,1v0h2.53Z"/><path class="cls-6" d="M104.66,38.4h-2.79v-5h2.79V34H102.5v1.56h2v.55h-2v1.78h2.16Z"/><path class="cls-6" d="M108.74,38.4h-3.3v-.51l1.31-1.32c.25-.25.46-.48.63-.67a2.42,2.42,0,0,0,.4-.58,1.38,1.38,0,0,0,.13-.62.82.82,0,0,0-.24-.63,1,1,0,0,0-.64-.21,1.41,1.41,0,0,0-.64.13,2.46,2.46,0,0,0-.56.35l-.33-.42a2.79,2.79,0,0,1,.67-.41,2,2,0,0,1,.86-.17,1.62,1.62,0,0,1,1.11.35,1.25,1.25,0,0,1,.4,1,1.66,1.66,0,0,1-.16.73,3.08,3.08,0,0,1-.45.68c-.19.22-.41.46-.67.71l-1,1v0h2.52Z"/><path class="cls-6" d="M15,51.94l-.6-1.54h-2l-.6,1.54h-.63l2-5h.56l2,5Zm-.79-2.1-.56-1.51s0-.11-.07-.21-.06-.2-.09-.3-.06-.19-.08-.24c0,.14-.07.28-.11.42s-.08.25-.11.33l-.56,1.51Z"/><path class="cls-6" d="M19.12,48.12a1.12,1.12,0,0,1-.28.8,1.35,1.35,0,0,1-.76.39v0a1.44,1.44,0,0,1,.9.38,1.12,1.12,0,0,1,.29.8,1.42,1.42,0,0,1-.2.78,1.29,1.29,0,0,1-.63.53,2.77,2.77,0,0,1-1.08.18,4.12,4.12,0,0,1-.73,0,2.49,2.49,0,0,1-.65-.22v-.57a2.62,2.62,0,0,0,.68.24,3,3,0,0,0,.7.09,1.42,1.42,0,0,0,1-.27.89.89,0,0,0,.3-.72.72.72,0,0,0-.37-.68,2.21,2.21,0,0,0-1-.2h-.48V49.1h.49a1.39,1.39,0,0,0,.93-.26.84.84,0,0,0,.32-.68.7.7,0,0,0-.25-.57,1,1,0,0,0-.66-.19,1.78,1.78,0,0,0-.69.11,3.2,3.2,0,0,0-.57.31L16,47.4a2.43,2.43,0,0,1,1.56-.52,1.65,1.65,0,0,1,1.17.35A1.16,1.16,0,0,1,19.12,48.12Z"/><path class="cls-6" d="M33.75,47h1.43a2.81,2.81,0,0,1,1.41.28,1,1,0,0,1,.49,1,1.06,1.06,0,0,1-1,1.1v0a1.74,1.74,0,0,1,.57.19,1,1,0,0,1,.41.37,1.33,1.33,0,0,1,.14.63,1.24,1.24,0,0,1-.46,1,2,2,0,0,1-1.27.37H33.75Zm.63,2.12h.93a1.36,1.36,0,0,0,.87-.2.76.76,0,0,0,.24-.61.64.64,0,0,0-.29-.6,1.92,1.92,0,0,0-.92-.17h-.83Zm0,.53v1.81h1a1.25,1.25,0,0,0,.92-.26.88.88,0,0,0,.26-.68.8.8,0,0,0-.27-.63,1.46,1.46,0,0,0-1-.24Z"/><path class="cls-6" d="M41.09,48.12a1.12,1.12,0,0,1-.28.8,1.36,1.36,0,0,1-.75.39v0a1.44,1.44,0,0,1,.89.38,1.09,1.09,0,0,1,.3.8,1.42,1.42,0,0,1-.21.78,1.31,1.31,0,0,1-.62.53,2.82,2.82,0,0,1-1.09.18,4.26,4.26,0,0,1-.73,0,2.43,2.43,0,0,1-.64-.22v-.57a2.49,2.49,0,0,0,.68.24,2.86,2.86,0,0,0,.7.09,1.44,1.44,0,0,0,1-.27.92.92,0,0,0,.29-.72.73.73,0,0,0-.36-.68,2.26,2.26,0,0,0-1-.2h-.48V49.1h.49a1.39,1.39,0,0,0,.93-.26.81.81,0,0,0,.32-.68.72.72,0,0,0-.24-.57,1,1,0,0,0-.67-.19,1.78,1.78,0,0,0-.69.11,3.2,3.2,0,0,0-.57.31L38,47.4a2.28,2.28,0,0,1,.66-.37,2.5,2.5,0,0,1,.9-.15,1.63,1.63,0,0,1,1.16.35A1.13,1.13,0,0,1,41.09,48.12Z"/><path class="cls-6" d="M58.07,47.43A1.58,1.58,0,0,0,56.8,48a2.19,2.19,0,0,0-.46,1.48,2.28,2.28,0,0,0,.43,1.47,1.56,1.56,0,0,0,1.29.54,4.21,4.21,0,0,0,.62-.05l.58-.14v.54a3.83,3.83,0,0,1-.58.16A5,5,0,0,1,58,52a2.37,2.37,0,0,1-1.27-.31,1.89,1.89,0,0,1-.77-.9,3.33,3.33,0,0,1-.26-1.36A3.1,3.1,0,0,1,56,48.11a2.07,2.07,0,0,1,.82-.91,2.5,2.5,0,0,1,1.3-.32,3,3,0,0,1,1.38.29l-.25.53a4.23,4.23,0,0,0-.51-.19A2.45,2.45,0,0,0,58.07,47.43Z"/><path class="cls-6" d="M63.14,48.12a1.12,1.12,0,0,1-.28.8,1.36,1.36,0,0,1-.75.39v0a1.44,1.44,0,0,1,.89.38,1.09,1.09,0,0,1,.3.8,1.42,1.42,0,0,1-.21.78,1.31,1.31,0,0,1-.62.53,2.85,2.85,0,0,1-1.09.18,4.19,4.19,0,0,1-.73,0,2.43,2.43,0,0,1-.64-.22v-.57a2.49,2.49,0,0,0,.68.24,2.86,2.86,0,0,0,.7.09,1.39,1.39,0,0,0,1-.27.89.89,0,0,0,.3-.72.72.72,0,0,0-.37-.68,2.18,2.18,0,0,0-1-.2h-.48V49.1h.49a1.39,1.39,0,0,0,.93-.26.81.81,0,0,0,.32-.68.72.72,0,0,0-.24-.57,1.07,1.07,0,0,0-.67-.19,1.78,1.78,0,0,0-.69.11,3.2,3.2,0,0,0-.57.31L60,47.4a2.48,2.48,0,0,1,1.57-.52,1.63,1.63,0,0,1,1.16.35A1.13,1.13,0,0,1,63.14,48.12Z"/><path class="cls-6" d="M83.22,49.4a2.46,2.46,0,0,1-.69,1.9,2.7,2.7,0,0,1-1.92.64h-1.4V47h1.54a2.84,2.84,0,0,1,1.31.28,2,2,0,0,1,.86.82A2.78,2.78,0,0,1,83.22,49.4Zm-.67,0A1.93,1.93,0,0,0,82.06,48a2,2,0,0,0-1.4-.46h-.82v3.92h.68A1.78,1.78,0,0,0,82.55,49.42Z"/><path class="cls-6" d="M87.12,48.12a1.12,1.12,0,0,1-.29.8,1.36,1.36,0,0,1-.75.39v0a1.41,1.41,0,0,1,.89.38,1.09,1.09,0,0,1,.3.8,1.51,1.51,0,0,1-.2.78,1.39,1.39,0,0,1-.63.53,2.78,2.78,0,0,1-1.09.18,4.26,4.26,0,0,1-.73,0,2.56,2.56,0,0,1-.64-.22v-.57a2.62,2.62,0,0,0,.68.24,2.92,2.92,0,0,0,.7.09,1.42,1.42,0,0,0,1-.27.89.89,0,0,0,.3-.72.74.74,0,0,0-.37-.68,2.24,2.24,0,0,0-1-.2h-.49V49.1h.49a1.42,1.42,0,0,0,.94-.26.84.84,0,0,0,.32-.68.73.73,0,0,0-.25-.57,1,1,0,0,0-.66-.19,1.84,1.84,0,0,0-.7.11,2.82,2.82,0,0,0-.56.31L84,47.4a2.59,2.59,0,0,1,.66-.37,2.5,2.5,0,0,1,.9-.15,1.63,1.63,0,0,1,1.16.35A1.14,1.14,0,0,1,87.12,48.12Z"/><path class="cls-6" d="M104.18,51.94h-2.79V47h2.79v.55H102v1.56h2v.55h-2v1.78h2.16Z"/><path class="cls-6" d="M108.07,48.12a1.12,1.12,0,0,1-.28.8,1.36,1.36,0,0,1-.75.39v0a1.44,1.44,0,0,1,.89.38,1.09,1.09,0,0,1,.3.8,1.42,1.42,0,0,1-.21.78,1.31,1.31,0,0,1-.62.53,2.85,2.85,0,0,1-1.09.18,4.19,4.19,0,0,1-.73,0,2.43,2.43,0,0,1-.64-.22v-.57a2.55,2.55,0,0,0,.67.24,3,3,0,0,0,.7.09,1.41,1.41,0,0,0,1-.27.89.89,0,0,0,.3-.72.72.72,0,0,0-.37-.68,2.18,2.18,0,0,0-1-.2h-.48V49.1h.49a1.39,1.39,0,0,0,.93-.26.81.81,0,0,0,.32-.68.72.72,0,0,0-.24-.57,1.07,1.07,0,0,0-.67-.19,1.78,1.78,0,0,0-.69.11,3.2,3.2,0,0,0-.57.31L105,47.4a2.48,2.48,0,0,1,1.56-.52,1.64,1.64,0,0,1,1.17.35A1.16,1.16,0,0,1,108.07,48.12Z"/><path class="cls-6" d="M15.16,63.57a.39.39,0,0,1,.42-.47.48.48,0,0,1,.31.1.44.44,0,0,1,.13.37.43.43,0,0,1-.13.36.44.44,0,0,1-.31.11.43.43,0,0,1-.3-.11A.46.46,0,0,1,15.16,63.57Z"/><path class="cls-6" d="M37.15,63.57a.39.39,0,0,1,.42-.47.48.48,0,0,1,.31.1.44.44,0,0,1,.13.37.43.43,0,0,1-.13.36.44.44,0,0,1-.31.11.43.43,0,0,1-.3-.11A.46.46,0,0,1,37.15,63.57Z"/><path class="cls-6" d="M59.32,63.57a.4.4,0,0,1,.43-.47.5.5,0,0,1,.31.1.47.47,0,0,1,.13.37.46.46,0,0,1-.13.36.45.45,0,0,1-.31.11.4.4,0,0,1-.3-.11A.43.43,0,0,1,59.32,63.57Z"/><path class="cls-6" d="M82.61,63.57A.39.39,0,0,1,83,63.1a.48.48,0,0,1,.31.1.44.44,0,0,1,.14.37.43.43,0,0,1-.14.36A.44.44,0,0,1,83,64a.43.43,0,0,1-.3-.11A.46.46,0,0,1,82.61,63.57Z"/><path class="cls-6" d="M104.78,63.57a.4.4,0,0,1,.43-.47.48.48,0,0,1,.31.1.44.44,0,0,1,.13.37.43.43,0,0,1-.13.36.44.44,0,0,1-.31.11.4.4,0,0,1-.3-.11A.43.43,0,0,1,104.78,63.57Z"/><path class="cls-6" d="M391.23,127h-2.79v-5h2.79v.55h-2.16v1.57h2v.54h-2v1.79h2.16Z"/><path class="cls-6" d="M394.15,127h-.6v-3.49c0-.2,0-.37,0-.49s0-.24,0-.38a1.71,1.71,0,0,1-.21.19l-.23.2-.53.43-.32-.41,1.35-1h.51Z"/><path class="cls-6" d="M391.23,198.52h-2.79v-5h2.79v.55h-2.16v1.56h2v.55h-2V198h2.16Z"/><path class="cls-6" d="M395.13,194.69a1.12,1.12,0,0,1-.29.8,1.36,1.36,0,0,1-.75.39v0a1.47,1.47,0,0,1,.89.38,1.11,1.11,0,0,1,.3.81,1.5,1.5,0,0,1-.2.77,1.39,1.39,0,0,1-.63.53,2.77,2.77,0,0,1-1.09.19,4.23,4.23,0,0,1-.73-.06,2.11,2.11,0,0,1-.64-.22v-.57a2.62,2.62,0,0,0,.68.24,2.86,2.86,0,0,0,.7.09,1.48,1.48,0,0,0,1-.26.93.93,0,0,0,.3-.73.71.71,0,0,0-.37-.67,2.11,2.11,0,0,0-1-.21h-.49v-.53h.49a1.48,1.48,0,0,0,.94-.25.87.87,0,0,0,.32-.69.69.69,0,0,0-.25-.56,1,1,0,0,0-.66-.2,1.79,1.79,0,0,0-.7.12,2.34,2.34,0,0,0-.56.3L392,194a2.43,2.43,0,0,1,.66-.37,2.5,2.5,0,0,1,.9-.15,1.68,1.68,0,0,1,1.16.35A1.14,1.14,0,0,1,395.13,194.69Z"/><path class="cls-6" d="M391.23,162.57h-2.79v-5h2.79v.55h-2.16v1.56h2v.55h-2V162h2.16Z"/><path class="cls-6" d="M395.31,162.57H392v-.51l1.31-1.33c.25-.25.46-.47.63-.67a2.38,2.38,0,0,0,.4-.57,1.45,1.45,0,0,0,.13-.63.78.78,0,0,0-.24-.62,1,1,0,0,0-.64-.22,1.55,1.55,0,0,0-.64.13,2.46,2.46,0,0,0-.56.35l-.33-.41a2.82,2.82,0,0,1,.67-.42,2.16,2.16,0,0,1,.86-.17,1.61,1.61,0,0,1,1.11.36,1.21,1.21,0,0,1,.4,1,1.63,1.63,0,0,1-.16.73,3.08,3.08,0,0,1-.45.68,8.53,8.53,0,0,1-.67.71l-1,1v0h2.52Z"/><path class="cls-6" d="M391.84,111.76a2.5,2.5,0,0,1-.69,1.91,2.75,2.75,0,0,1-1.92.64h-1.4v-5h1.54a2.84,2.84,0,0,1,1.31.28,2,2,0,0,1,.85.82A2.7,2.7,0,0,1,391.84,111.76Zm-.67,0a1.93,1.93,0,0,0-.49-1.47,2,2,0,0,0-1.4-.46h-.82v3.92h.68A1.78,1.78,0,0,0,391.17,111.78Z"/><path class="cls-6" d="M394.76,114.31h-.6v-3.5c0-.2,0-.36,0-.48s0-.25,0-.38l-.21.19-.23.2-.53.43-.32-.41,1.35-1h.51Z"/><path class="cls-6" d="M391.83,147.7a2.48,2.48,0,0,1-.69,1.91,2.67,2.67,0,0,1-1.92.64h-1.39v-5h1.54a2.84,2.84,0,0,1,1.31.28,2,2,0,0,1,.85.83A2.74,2.74,0,0,1,391.83,147.7Zm-.66,0a1.92,1.92,0,0,0-.49-1.46,2,2,0,0,0-1.4-.47h-.82v3.92h.68A1.78,1.78,0,0,0,391.17,147.72Z"/><path class="cls-6" d="M395.92,150.25h-3.3v-.51l1.31-1.32c.25-.26.46-.48.63-.68a2.2,2.2,0,0,0,.4-.57,1.41,1.41,0,0,0,.13-.62.79.79,0,0,0-.24-.63,1,1,0,0,0-.64-.21,1.64,1.64,0,0,0-.65.12,3.61,3.61,0,0,0-.56.35l-.32-.41a3.18,3.18,0,0,1,.67-.42,2.13,2.13,0,0,1,.86-.17,1.6,1.6,0,0,1,1.1.36,1.23,1.23,0,0,1,.41,1,1.7,1.7,0,0,1-.16.74,3.33,3.33,0,0,1-.45.68,8.51,8.51,0,0,1-.67.7l-1,1v0h2.52Z"/><path class="cls-6" d="M391.84,183.79a2.48,2.48,0,0,1-.69,1.91,2.7,2.7,0,0,1-1.92.64h-1.4v-5h1.54a3,3,0,0,1,1.31.28,2,2,0,0,1,.85.83A2.63,2.63,0,0,1,391.84,183.79Zm-.67,0a1.93,1.93,0,0,0-.49-1.47,2,2,0,0,0-1.4-.47h-.82v3.92h.68A1.77,1.77,0,0,0,391.17,183.82Z"/><path class="cls-6" d="M395.73,182.51a1.08,1.08,0,0,1-.28.8,1.44,1.44,0,0,1-.75.4v0a1.36,1.36,0,0,1,.89.38,1.09,1.09,0,0,1,.3.8,1.53,1.53,0,0,1-.2.78,1.37,1.37,0,0,1-.63.52,2.63,2.63,0,0,1-1.09.19,4.23,4.23,0,0,1-.73-.06,2.4,2.4,0,0,1-.64-.21v-.57a3.64,3.64,0,0,0,.68.24,2.84,2.84,0,0,0,.7.08,1.43,1.43,0,0,0,1-.26.89.89,0,0,0,.3-.72.73.73,0,0,0-.37-.68,2.12,2.12,0,0,0-1-.2h-.49v-.53h.49a1.5,1.5,0,0,0,.94-.26.84.84,0,0,0,.31-.69.68.68,0,0,0-.24-.56,1,1,0,0,0-.67-.2,1.78,1.78,0,0,0-.69.12,3.37,3.37,0,0,0-.56.3l-.31-.42a2.27,2.27,0,0,1,.66-.36,2.49,2.49,0,0,1,.9-.16,1.68,1.68,0,0,1,1.16.35A1.14,1.14,0,0,1,395.73,182.51Z"/><path class="cls-6" d="M390.32,98.05a1.58,1.58,0,0,0-1.27.54,2.18,2.18,0,0,0-.46,1.47,2.33,2.33,0,0,0,.43,1.48,1.56,1.56,0,0,0,1.29.54,3.18,3.18,0,0,0,.62-.06,4.07,4.07,0,0,0,.58-.14v.55a2.91,2.91,0,0,1-.58.15,3.76,3.76,0,0,1-.71,0,2.37,2.37,0,0,1-1.27-.31,1.89,1.89,0,0,1-.77-.9,3.37,3.37,0,0,1-.26-1.36,3.14,3.14,0,0,1,.28-1.34,2.1,2.1,0,0,1,.82-.9,2.41,2.41,0,0,1,1.3-.33,3,3,0,0,1,1.38.3l-.25.53a4.23,4.23,0,0,0-.51-.19A2.45,2.45,0,0,0,390.32,98.05Z"/><path class="cls-6" d="M394.42,102.56h-.6v-4l0-.38-.21.19-.23.19-.53.44-.32-.42,1.35-1h.51Z"/><path class="cls-6" d="M390.32,134.31a1.58,1.58,0,0,0-1.27.54,2.19,2.19,0,0,0-.46,1.48,2.28,2.28,0,0,0,.43,1.47,1.56,1.56,0,0,0,1.29.54,4.21,4.21,0,0,0,.62-.05l.58-.14v.54a3.83,3.83,0,0,1-.58.16,5,5,0,0,1-.71,0,2.43,2.43,0,0,1-1.28-.31,1.93,1.93,0,0,1-.76-.9,3.33,3.33,0,0,1-.26-1.36,3.07,3.07,0,0,1,.28-1.33,2,2,0,0,1,.81-.91,2.47,2.47,0,0,1,1.31-.32,3,3,0,0,1,1.38.29l-.25.53a4.23,4.23,0,0,0-.51-.19A2.45,2.45,0,0,0,390.32,134.31Z"/><path class="cls-6" d="M395.58,138.82h-3.3v-.51l1.31-1.32.63-.67a2.36,2.36,0,0,0,.39-.58,1.38,1.38,0,0,0,.14-.62.79.79,0,0,0-.25-.63.92.92,0,0,0-.63-.21,1.45,1.45,0,0,0-.65.13,2.69,2.69,0,0,0-.56.35l-.33-.42a2.86,2.86,0,0,1,.68-.41,2,2,0,0,1,.86-.17,1.65,1.65,0,0,1,1.1.35,1.25,1.25,0,0,1,.41,1,1.81,1.81,0,0,1-.16.73,3.08,3.08,0,0,1-.45.68c-.19.22-.42.46-.67.71l-1.05,1v0h2.53Z"/><path class="cls-6" d="M390.32,169.85a1.58,1.58,0,0,0-1.27.54,2.19,2.19,0,0,0-.46,1.48,2.28,2.28,0,0,0,.43,1.47,1.56,1.56,0,0,0,1.29.54,4.21,4.21,0,0,0,.62,0l.58-.14v.54a3.83,3.83,0,0,1-.58.16,4.83,4.83,0,0,1-.71.05,2.43,2.43,0,0,1-1.28-.32,1.93,1.93,0,0,1-.76-.9,3.33,3.33,0,0,1-.26-1.36,3.1,3.1,0,0,1,.28-1.33,2,2,0,0,1,.81-.91,2.57,2.57,0,0,1,1.31-.32,3.12,3.12,0,0,1,1.38.29l-.25.53a4.23,4.23,0,0,0-.51-.19A2.45,2.45,0,0,0,390.32,169.85Z"/><path class="cls-6" d="M395.39,170.54a1.12,1.12,0,0,1-.28.8,1.35,1.35,0,0,1-.76.39v0a1.44,1.44,0,0,1,.9.38,1.09,1.09,0,0,1,.3.8,1.42,1.42,0,0,1-.21.78,1.31,1.31,0,0,1-.62.53,2.84,2.84,0,0,1-1.09.19,4.15,4.15,0,0,1-.73-.06,2.11,2.11,0,0,1-.64-.22v-.57a2.55,2.55,0,0,0,.67.24,3,3,0,0,0,.7.09,1.41,1.41,0,0,0,1-.27.89.89,0,0,0,.3-.72.7.7,0,0,0-.37-.67,2.08,2.08,0,0,0-1-.21H393v-.53h.49a1.39,1.39,0,0,0,.93-.26.84.84,0,0,0,.32-.68.72.72,0,0,0-.24-.57,1.07,1.07,0,0,0-.67-.19,2,2,0,0,0-.69.11,3.2,3.2,0,0,0-.57.31l-.31-.42a2.43,2.43,0,0,1,1.56-.52,1.64,1.64,0,0,1,1.17.35A1.16,1.16,0,0,1,395.39,170.54Z"/><path class="cls-6" d="M183,102.56l-.6-1.54h-2l-.6,1.54h-.63l2-5h.57l1.94,5Zm-.79-2.1-.56-1.52s0-.1-.07-.2l-.09-.3c0-.11-.06-.19-.08-.25,0,.15-.07.29-.11.43s-.08.24-.1.32l-.57,1.52Z"/><path class="cls-6" d="M186.14,102.56h-.6v-4c0-.12,0-.25,0-.38l-.2.19-.23.19-.53.44-.32-.42,1.35-1h.51Z"/><path class="cls-6" d="M183,114.31l-.6-1.55h-2l-.6,1.55h-.63l2-5h.57l1.94,5Zm-.79-2.11-.56-1.51s0-.11-.07-.21l-.09-.3a2.18,2.18,0,0,0-.08-.24c0,.14-.07.28-.11.42s-.08.25-.1.33l-.57,1.51Z"/><path class="cls-6" d="M186.14,114.31h-.6v-4c0-.12,0-.25,0-.38a1.7,1.7,0,0,1-.2.19l-.23.2-.53.43-.32-.41,1.35-1h.51Z"/><path class="cls-6" d="M183,127l-.6-1.55h-2l-.6,1.55h-.63l2-5h.57l1.94,5Zm-.79-2.11-.56-1.51s0-.1-.07-.2l-.09-.31c0-.1-.06-.18-.08-.24,0,.15-.07.29-.11.43s-.08.24-.1.32l-.57,1.51Z"/><path class="cls-6" d="M186.14,127h-.6v-4c0-.12,0-.24,0-.37l-.2.18-.23.2-.53.43-.32-.41,1.35-1h.51Z"/><path class="cls-6" d="M183,138.82l-.6-1.54h-2l-.6,1.54h-.63l2-5h.57l1.94,5Zm-.79-2.1-.56-1.51s0-.11-.07-.21l-.09-.3a2.18,2.18,0,0,0-.08-.24c0,.14-.07.28-.11.42s-.08.25-.1.33l-.57,1.51Z"/><path class="cls-6" d="M187.3,138.82H184v-.51l1.31-1.32.63-.67a2.75,2.75,0,0,0,.4-.58,1.52,1.52,0,0,0,.13-.62.79.79,0,0,0-.25-.63.92.92,0,0,0-.63-.21,1.45,1.45,0,0,0-.65.13,2.69,2.69,0,0,0-.56.35l-.33-.42a2.86,2.86,0,0,1,.68-.41,2,2,0,0,1,.86-.17,1.65,1.65,0,0,1,1.1.35,1.25,1.25,0,0,1,.41,1,1.81,1.81,0,0,1-.16.73,3.08,3.08,0,0,1-.45.68c-.19.22-.42.46-.67.71l-1,1v0h2.53Z"/><path class="cls-6" d="M183,150.25l-.6-1.55h-2l-.6,1.55h-.63l2-5h.57l1.94,5Zm-.79-2.11-.56-1.51s0-.1-.07-.2l-.09-.31-.08-.24c0,.15-.07.29-.11.43s-.08.24-.1.32l-.57,1.51Z"/><path class="cls-6" d="M187.3,150.25H184v-.51l1.31-1.32.63-.68a2.47,2.47,0,0,0,.4-.57,1.56,1.56,0,0,0,.13-.62.77.77,0,0,0-.25-.63.92.92,0,0,0-.63-.21,1.6,1.6,0,0,0-.65.12,3.19,3.19,0,0,0-.56.35l-.33-.41a3.26,3.26,0,0,1,.68-.42,2.13,2.13,0,0,1,.86-.17,1.6,1.6,0,0,1,1.1.36,1.23,1.23,0,0,1,.41,1,1.86,1.86,0,0,1-.16.74,3.33,3.33,0,0,1-.45.68c-.19.22-.42.46-.67.7l-1,1v0h2.53Z"/><path class="cls-6" d="M183,162.57l-.6-1.55h-2l-.6,1.55h-.63l2-5h.57l1.94,5Zm-.79-2.11-.56-1.51s0-.11-.07-.2l-.09-.31-.08-.24c0,.14-.07.29-.11.42s-.08.25-.1.33l-.57,1.51Z"/><path class="cls-6" d="M187.3,162.57H184v-.51l1.31-1.33.63-.67a2.71,2.71,0,0,0,.4-.57,1.61,1.61,0,0,0,.13-.63.76.76,0,0,0-.25-.62.92.92,0,0,0-.63-.21,1.6,1.6,0,0,0-.65.12,3.19,3.19,0,0,0-.56.35l-.33-.41a2.89,2.89,0,0,1,.68-.42,2.13,2.13,0,0,1,.86-.17,1.6,1.6,0,0,1,1.1.36,1.22,1.22,0,0,1,.41,1,1.86,1.86,0,0,1-.16.74,3.28,3.28,0,0,1-.45.67c-.19.23-.42.46-.67.71l-1,1v0h2.53Z"/><path class="cls-6" d="M183,174.37l-.6-1.55h-2l-.59,1.55h-.64l2-5h.57l1.94,5Zm-.79-2.11-.56-1.51a1.64,1.64,0,0,0-.07-.21l-.09-.3a2.18,2.18,0,0,0-.08-.24c0,.14-.07.28-.11.42s-.07.25-.1.33l-.57,1.51Z"/><path class="cls-6" d="M187.11,170.54a1.12,1.12,0,0,1-.28.8,1.36,1.36,0,0,1-.75.39v0a1.44,1.44,0,0,1,.89.38,1.09,1.09,0,0,1,.3.8,1.42,1.42,0,0,1-.21.78,1.31,1.31,0,0,1-.62.53,2.84,2.84,0,0,1-1.09.19,4.23,4.23,0,0,1-.73-.06,2.11,2.11,0,0,1-.64-.22v-.57a2.49,2.49,0,0,0,.68.24,2.86,2.86,0,0,0,.7.09,1.44,1.44,0,0,0,1-.27.92.92,0,0,0,.29-.72.7.7,0,0,0-.36-.67,2.13,2.13,0,0,0-1-.21h-.48v-.53h.49a1.39,1.39,0,0,0,.93-.26.81.81,0,0,0,.32-.68.72.72,0,0,0-.24-.57,1.07,1.07,0,0,0-.67-.19,2,2,0,0,0-.69.11,3.2,3.2,0,0,0-.57.31l-.3-.42a2.28,2.28,0,0,1,.66-.37,2.5,2.5,0,0,1,.9-.15,1.63,1.63,0,0,1,1.16.35A1.13,1.13,0,0,1,187.11,170.54Z"/><path class="cls-6" d="M183,186.34l-.6-1.54h-2l-.59,1.54h-.64l2-5h.57l1.94,5Zm-.79-2.1-.56-1.52s0-.1-.07-.2l-.09-.3c0-.11-.06-.19-.08-.25,0,.15-.07.29-.11.43s-.07.24-.1.32l-.57,1.52Z"/><path class="cls-6" d="M187.11,182.51a1.08,1.08,0,0,1-.28.8,1.44,1.44,0,0,1-.75.4v0a1.39,1.39,0,0,1,.89.38,1.09,1.09,0,0,1,.3.8,1.45,1.45,0,0,1-.21.78,1.29,1.29,0,0,1-.62.52,2.66,2.66,0,0,1-1.09.19,4.23,4.23,0,0,1-.73-.06,2.4,2.4,0,0,1-.64-.21v-.57a3.4,3.4,0,0,0,.68.24,2.84,2.84,0,0,0,.7.08,1.44,1.44,0,0,0,1-.26.92.92,0,0,0,.29-.72.72.72,0,0,0-.36-.68,2.14,2.14,0,0,0-1-.2h-.48v-.53h.49a1.45,1.45,0,0,0,.93-.26.82.82,0,0,0,.32-.69.68.68,0,0,0-.24-.56,1.07,1.07,0,0,0-.67-.2,1.78,1.78,0,0,0-.69.12,3.91,3.91,0,0,0-.57.3l-.3-.42a2.27,2.27,0,0,1,.66-.36,2.49,2.49,0,0,1,.9-.16,1.68,1.68,0,0,1,1.16.35A1.14,1.14,0,0,1,187.11,182.51Z"/><path class="cls-6" d="M183,198.52l-.6-1.55h-2l-.59,1.55h-.64l2-5h.57l1.94,5Zm-.79-2.11-.56-1.51a1.64,1.64,0,0,0-.07-.21l-.09-.3a2.18,2.18,0,0,0-.08-.24c0,.14-.07.28-.11.42s-.07.25-.1.33l-.57,1.51Z"/><path class="cls-6" d="M187.11,194.69a1.12,1.12,0,0,1-.28.8,1.36,1.36,0,0,1-.75.39v0a1.5,1.5,0,0,1,.89.38,1.11,1.11,0,0,1,.3.81,1.41,1.41,0,0,1-.21.77,1.31,1.31,0,0,1-.62.53,2.84,2.84,0,0,1-1.09.19,4.23,4.23,0,0,1-.73-.06,2.11,2.11,0,0,1-.64-.22v-.57a2.49,2.49,0,0,0,.68.24,2.86,2.86,0,0,0,.7.09,1.5,1.5,0,0,0,1-.26,1,1,0,0,0,.29-.73.7.7,0,0,0-.36-.67,2.13,2.13,0,0,0-1-.21h-.48v-.53h.49a1.45,1.45,0,0,0,.93-.25.84.84,0,0,0,.32-.69.68.68,0,0,0-.24-.56,1,1,0,0,0-.67-.2,1.78,1.78,0,0,0-.69.12,2.61,2.61,0,0,0-.57.3L184,194a2.28,2.28,0,0,1,.66-.37,2.5,2.5,0,0,1,.9-.15,1.68,1.68,0,0,1,1.16.35A1.13,1.13,0,0,1,187.11,194.69Z"/><path class="cls-6" d="M248.46,97.56h1.43a2.92,2.92,0,0,1,1.41.28,1,1,0,0,1,.48,1,1.09,1.09,0,0,1-.24.73,1.17,1.17,0,0,1-.71.38v0a2,2,0,0,1,.57.19,1,1,0,0,1,.4.38,1.18,1.18,0,0,1,.15.63,1.28,1.28,0,0,1-.47,1,2,2,0,0,1-1.27.37h-1.75Zm.63,2.13H250a1.44,1.44,0,0,0,.88-.2.78.78,0,0,0,.24-.62.65.65,0,0,0-.29-.59,1.81,1.81,0,0,0-.93-.18h-.82Zm0,.53V102h1a1.3,1.3,0,0,0,.92-.26.93.93,0,0,0,.26-.68.8.8,0,0,0-.27-.63,1.46,1.46,0,0,0-1-.24Z"/><path class="cls-6" d="M254.83,102.56h-.6v-4c0-.12,0-.25,0-.38l-.2.19-.23.19-.53.44-.33-.42,1.36-1h.51Z"/><path class="cls-6" d="M248.46,109.31h1.43a2.81,2.81,0,0,1,1.41.28,1,1,0,0,1,.48,1,1.11,1.11,0,0,1-.24.73,1.16,1.16,0,0,1-.71.37v0a2,2,0,0,1,.57.19,1,1,0,0,1,.4.38,1.18,1.18,0,0,1,.15.63,1.28,1.28,0,0,1-.47,1,2,2,0,0,1-1.27.37h-1.75Zm.63,2.13H250a1.36,1.36,0,0,0,.88-.21.76.76,0,0,0,.24-.61.64.64,0,0,0-.29-.59,1.81,1.81,0,0,0-.93-.18h-.82Zm0,.52v1.81h1a1.3,1.3,0,0,0,.92-.25.94.94,0,0,0,.26-.68.82.82,0,0,0-.27-.64,1.46,1.46,0,0,0-1-.24Z"/><path class="cls-6" d="M254.83,114.31h-.6v-4c0-.12,0-.25,0-.38a1.7,1.7,0,0,1-.2.19c-.07,0-.14.12-.23.2l-.53.43-.33-.41,1.36-1h.51Z"/><path class="cls-6" d="M248.46,122h1.43a2.81,2.81,0,0,1,1.41.28,1,1,0,0,1,.48,1,1.11,1.11,0,0,1-.24.73,1.17,1.17,0,0,1-.71.38v0a2,2,0,0,1,.57.19,1,1,0,0,1,.4.38,1.18,1.18,0,0,1,.15.63,1.28,1.28,0,0,1-.47,1,2,2,0,0,1-1.27.37h-1.75Zm.63,2.13H250a1.36,1.36,0,0,0,.88-.21.75.75,0,0,0,.24-.61.65.65,0,0,0-.29-.59,1.81,1.81,0,0,0-.93-.18h-.82Zm0,.52v1.82h1a1.3,1.3,0,0,0,.92-.26.93.93,0,0,0,.26-.68.8.8,0,0,0-.27-.63,1.4,1.4,0,0,0-1-.25Z"/><path class="cls-6" d="M254.83,127h-.6v-4c0-.12,0-.24,0-.37l-.2.18-.23.2-.53.43L253,123l1.36-1h.51Z"/><path class="cls-6" d="M248.46,133.83h1.43a2.81,2.81,0,0,1,1.41.28,1,1,0,0,1,.48,1,1.13,1.13,0,0,1-.24.73,1.16,1.16,0,0,1-.71.37v0a1.74,1.74,0,0,1,.57.19,1,1,0,0,1,.4.37,1.22,1.22,0,0,1,.15.63,1.25,1.25,0,0,1-.47,1,2,2,0,0,1-1.27.37h-1.75Zm.63,2.12H250a1.37,1.37,0,0,0,.88-.2.76.76,0,0,0,.24-.61.66.66,0,0,0-.29-.6,1.83,1.83,0,0,0-.93-.17h-.82Zm0,.53v1.81h1A1.25,1.25,0,0,0,251,138a.93.93,0,0,0,.26-.68.8.8,0,0,0-.27-.63,1.46,1.46,0,0,0-1-.24Z"/><path class="cls-6" d="M256,138.82h-3.3v-.51L254,137c.25-.25.46-.48.64-.67a2.68,2.68,0,0,0,.39-.58,1.38,1.38,0,0,0,.14-.62.83.83,0,0,0-.25-.63,1,1,0,0,0-.64-.21,1.44,1.44,0,0,0-.64.13,2.69,2.69,0,0,0-.56.35l-.33-.42a2.86,2.86,0,0,1,.68-.41,2,2,0,0,1,.85-.17,1.66,1.66,0,0,1,1.11.35,1.25,1.25,0,0,1,.41,1,1.66,1.66,0,0,1-.17.73,2.71,2.71,0,0,1-.44.68c-.2.22-.42.46-.68.71l-1,1v0H256Z"/><path class="cls-6" d="M248.46,145.25h1.43a2.81,2.81,0,0,1,1.41.28,1,1,0,0,1,.48,1,1.11,1.11,0,0,1-.24.73,1.17,1.17,0,0,1-.71.38v0a2,2,0,0,1,.57.19,1,1,0,0,1,.4.38,1.18,1.18,0,0,1,.15.63,1.28,1.28,0,0,1-.47,1,2,2,0,0,1-1.27.37h-1.75Zm.63,2.13H250a1.36,1.36,0,0,0,.88-.21.75.75,0,0,0,.24-.61.65.65,0,0,0-.29-.59,1.81,1.81,0,0,0-.93-.18h-.82Zm0,.52v1.82h1a1.3,1.3,0,0,0,.92-.26.93.93,0,0,0,.26-.68.8.8,0,0,0-.27-.63,1.46,1.46,0,0,0-1-.25Z"/><path class="cls-6" d="M256,150.25h-3.3v-.51l1.3-1.32.64-.68a2.41,2.41,0,0,0,.39-.57,1.41,1.41,0,0,0,.14-.62.8.8,0,0,0-.25-.63,1,1,0,0,0-.64-.21,1.59,1.59,0,0,0-.64.12,3.19,3.19,0,0,0-.56.35l-.33-.41a3.26,3.26,0,0,1,.68-.42,2.11,2.11,0,0,1,.85-.17,1.61,1.61,0,0,1,1.11.36,1.23,1.23,0,0,1,.41,1,1.71,1.71,0,0,1-.17.74,2.9,2.9,0,0,1-.44.68c-.2.22-.42.46-.68.7l-1,1v0H256Z"/><path class="cls-6" d="M248.46,157.57h1.43a2.81,2.81,0,0,1,1.41.28,1,1,0,0,1,.48,1,1.11,1.11,0,0,1-.24.73,1.16,1.16,0,0,1-.71.37v0a2,2,0,0,1,.57.19,1,1,0,0,1,.4.38,1.18,1.18,0,0,1,.15.63,1.28,1.28,0,0,1-.47,1,2,2,0,0,1-1.27.37h-1.75Zm.63,2.13H250a1.36,1.36,0,0,0,.88-.21.76.76,0,0,0,.24-.61.64.64,0,0,0-.29-.59,1.81,1.81,0,0,0-.93-.18h-.82Zm0,.52V162h1a1.3,1.3,0,0,0,.92-.26.94.94,0,0,0,.26-.68.84.84,0,0,0-.27-.64,1.46,1.46,0,0,0-1-.24Z"/><path class="cls-6" d="M256,162.57h-3.3v-.51l1.3-1.33c.25-.25.46-.47.64-.67a2.64,2.64,0,0,0,.39-.57,1.46,1.46,0,0,0,.14-.63.79.79,0,0,0-.25-.62,1,1,0,0,0-.64-.22,1.59,1.59,0,0,0-.64.13,2.69,2.69,0,0,0-.56.35l-.33-.41a2.89,2.89,0,0,1,.68-.42,2.11,2.11,0,0,1,.85-.17,1.61,1.61,0,0,1,1.11.36,1.22,1.22,0,0,1,.41,1,1.63,1.63,0,0,1-.17.73,2.71,2.71,0,0,1-.44.68c-.2.23-.42.46-.68.71l-1,1v0H256Z"/><path class="cls-6" d="M248.46,169.37h1.43a2.81,2.81,0,0,1,1.41.28,1,1,0,0,1,.48,1,1.13,1.13,0,0,1-.24.73,1.16,1.16,0,0,1-.71.37v0a1.74,1.74,0,0,1,.57.19,1,1,0,0,1,.4.37,1.22,1.22,0,0,1,.15.63,1.25,1.25,0,0,1-.47,1.05,2,2,0,0,1-1.27.38h-1.75Zm.63,2.13H250a1.36,1.36,0,0,0,.88-.21.76.76,0,0,0,.24-.61.63.63,0,0,0-.29-.59,1.81,1.81,0,0,0-.93-.18h-.82Zm0,.52v1.81h1a1.25,1.25,0,0,0,.92-.26.9.9,0,0,0,.26-.67.81.81,0,0,0-.27-.64,1.46,1.46,0,0,0-1-.24Z"/><path class="cls-6" d="M255.8,170.54a1.12,1.12,0,0,1-.28.8,1.35,1.35,0,0,1-.76.39v0a1.44,1.44,0,0,1,.9.38,1.12,1.12,0,0,1,.29.8,1.42,1.42,0,0,1-.2.78,1.34,1.34,0,0,1-.63.53,2.75,2.75,0,0,1-1.08.19,4.07,4.07,0,0,1-.73-.06,2.17,2.17,0,0,1-.65-.22v-.57a2.62,2.62,0,0,0,.68.24,3,3,0,0,0,.7.09,1.42,1.42,0,0,0,1-.27.89.89,0,0,0,.3-.72.7.7,0,0,0-.37-.67,2.08,2.08,0,0,0-1-.21h-.48v-.53h.49a1.39,1.39,0,0,0,.93-.26.84.84,0,0,0,.32-.68.7.7,0,0,0-.25-.57,1,1,0,0,0-.66-.19,2,2,0,0,0-.69.11,3.2,3.2,0,0,0-.57.31l-.31-.42a2.43,2.43,0,0,1,1.56-.52,1.67,1.67,0,0,1,1.17.35A1.16,1.16,0,0,1,255.8,170.54Z"/><path class="cls-6" d="M248.46,181.34h1.43a2.92,2.92,0,0,1,1.41.28,1,1,0,0,1,.48,1,1.13,1.13,0,0,1-.24.74,1.22,1.22,0,0,1-.71.37v0a2,2,0,0,1,.57.19,1,1,0,0,1,.4.38,1.18,1.18,0,0,1,.15.63,1.28,1.28,0,0,1-.47,1.05,2,2,0,0,1-1.27.37h-1.75Zm.63,2.13H250a1.44,1.44,0,0,0,.88-.2.78.78,0,0,0,.24-.62.65.65,0,0,0-.29-.59,1.81,1.81,0,0,0-.93-.18h-.82Zm0,.53v1.81h1a1.3,1.3,0,0,0,.92-.26.93.93,0,0,0,.26-.68.8.8,0,0,0-.27-.63,1.46,1.46,0,0,0-1-.24Z"/><path class="cls-6" d="M255.8,182.51a1.13,1.13,0,0,1-.28.81,1.42,1.42,0,0,1-.76.39v0a1.44,1.44,0,0,1,.9.38,1.12,1.12,0,0,1,.29.8,1.44,1.44,0,0,1-.2.78,1.32,1.32,0,0,1-.63.52,2.58,2.58,0,0,1-1.08.19,4.07,4.07,0,0,1-.73-.06,2.47,2.47,0,0,1-.65-.21v-.57a3.64,3.64,0,0,0,.68.24,3,3,0,0,0,.7.08,1.43,1.43,0,0,0,1-.26.89.89,0,0,0,.3-.72.71.71,0,0,0-.37-.68,2.09,2.09,0,0,0-1-.2h-.48v-.53h.49a1.45,1.45,0,0,0,.93-.26.84.84,0,0,0,.32-.68.68.68,0,0,0-.25-.57,1,1,0,0,0-.66-.2,1.78,1.78,0,0,0-.69.12,3.91,3.91,0,0,0-.57.3l-.31-.42a2.59,2.59,0,0,1,1.56-.52,1.72,1.72,0,0,1,1.17.35A1.18,1.18,0,0,1,255.8,182.51Z"/><path class="cls-6" d="M248.46,193.52h1.43a2.81,2.81,0,0,1,1.41.28,1,1,0,0,1,.48,1,1.11,1.11,0,0,1-.24.73,1.16,1.16,0,0,1-.71.37v0a2,2,0,0,1,.57.19,1,1,0,0,1,.4.38,1.18,1.18,0,0,1,.15.63,1.28,1.28,0,0,1-.47,1.05,2,2,0,0,1-1.27.37h-1.75Zm.63,2.13H250a1.36,1.36,0,0,0,.88-.21.76.76,0,0,0,.24-.61.63.63,0,0,0-.29-.59,1.81,1.81,0,0,0-.93-.18h-.82Zm0,.52V198h1a1.3,1.3,0,0,0,.92-.25.94.94,0,0,0,.26-.68.81.81,0,0,0-.27-.64,1.46,1.46,0,0,0-1-.24Z"/><path class="cls-6" d="M255.8,194.69a1.12,1.12,0,0,1-.28.8,1.35,1.35,0,0,1-.76.39v0a1.5,1.5,0,0,1,.9.38,1.15,1.15,0,0,1,.29.81,1.41,1.41,0,0,1-.2.77,1.34,1.34,0,0,1-.63.53,2.75,2.75,0,0,1-1.08.19,4.07,4.07,0,0,1-.73-.06,2.17,2.17,0,0,1-.65-.22v-.57a2.62,2.62,0,0,0,.68.24,3,3,0,0,0,.7.09,1.48,1.48,0,0,0,1-.26.93.93,0,0,0,.3-.73.7.7,0,0,0-.37-.67,2.08,2.08,0,0,0-1-.21h-.48v-.53h.49a1.45,1.45,0,0,0,.93-.25.87.87,0,0,0,.32-.69.66.66,0,0,0-.25-.56,1,1,0,0,0-.66-.2,1.78,1.78,0,0,0-.69.12,2.61,2.61,0,0,0-.57.3l-.31-.42a2.43,2.43,0,0,1,1.56-.52,1.72,1.72,0,0,1,1.17.35A1.16,1.16,0,0,1,255.8,194.69Z"/><path class="cls-6" d="M15.16,76.32a.39.39,0,0,1,.42-.47.48.48,0,0,1,.31.1.44.44,0,0,1,.13.37.43.43,0,0,1-.13.36.44.44,0,0,1-.31.11.43.43,0,0,1-.3-.11A.46.46,0,0,1,15.16,76.32Z"/><path class="cls-6" d="M37.15,76.32a.39.39,0,0,1,.42-.47.48.48,0,0,1,.31.1.44.44,0,0,1,.13.37.43.43,0,0,1-.13.36.44.44,0,0,1-.31.11.43.43,0,0,1-.3-.11A.46.46,0,0,1,37.15,76.32Z"/><path class="cls-6" d="M59.32,76.32a.4.4,0,0,1,.43-.47.5.5,0,0,1,.31.1.47.47,0,0,1,.13.37.46.46,0,0,1-.13.36.45.45,0,0,1-.31.11.4.4,0,0,1-.3-.11A.43.43,0,0,1,59.32,76.32Z"/><path class="cls-6" d="M82.61,76.32a.39.39,0,0,1,.42-.47.48.48,0,0,1,.31.1.44.44,0,0,1,.14.37.43.43,0,0,1-.14.36.44.44,0,0,1-.31.11.43.43,0,0,1-.3-.11A.46.46,0,0,1,82.61,76.32Z"/><path class="cls-6" d="M104.78,76.32a.4.4,0,0,1,.43-.47.48.48,0,0,1,.31.1.44.44,0,0,1,.13.37.43.43,0,0,1-.13.36.44.44,0,0,1-.31.11.4.4,0,0,1-.3-.11A.43.43,0,0,1,104.78,76.32Z"/><path class="cls-6" d="M15.16,90.74a.39.39,0,0,1,.42-.47.48.48,0,0,1,.31.1.58.58,0,0,1,0,.73.49.49,0,0,1-.31.11.48.48,0,0,1-.3-.11A.47.47,0,0,1,15.16,90.74Z"/><path class="cls-6" d="M37.15,90.74a.39.39,0,0,1,.42-.47.48.48,0,0,1,.31.1.58.58,0,0,1,0,.73.49.49,0,0,1-.31.11.48.48,0,0,1-.3-.11A.47.47,0,0,1,37.15,90.74Z"/><path class="cls-6" d="M59.32,90.74a.4.4,0,0,1,.43-.47.5.5,0,0,1,.31.1.47.47,0,0,1,.13.37.48.48,0,0,1-.13.36.51.51,0,0,1-.31.11.42.42,0,0,1-.43-.47Z"/><path class="cls-6" d="M82.61,90.74a.39.39,0,0,1,.42-.47.48.48,0,0,1,.31.1.44.44,0,0,1,.14.37.44.44,0,0,1-.14.36.49.49,0,0,1-.31.11.48.48,0,0,1-.3-.11A.47.47,0,0,1,82.61,90.74Z"/><path class="cls-6" d="M104.78,90.74a.4.4,0,0,1,.43-.47.48.48,0,0,1,.31.1.58.58,0,0,1,0,.73.49.49,0,0,1-.31.11.42.42,0,0,1-.43-.47Z"/><path class="cls-6" d="M15.16,103.49a.39.39,0,0,1,.42-.47.48.48,0,0,1,.31.1.58.58,0,0,1,0,.73.49.49,0,0,1-.31.11.48.48,0,0,1-.3-.11A.47.47,0,0,1,15.16,103.49Z"/><path class="cls-6" d="M37.15,103.49a.39.39,0,0,1,.42-.47.48.48,0,0,1,.31.1.58.58,0,0,1,0,.73.49.49,0,0,1-.31.11.48.48,0,0,1-.3-.11A.47.47,0,0,1,37.15,103.49Z"/><path class="cls-6" d="M59.32,103.49a.4.4,0,0,1,.43-.47.5.5,0,0,1,.31.1.47.47,0,0,1,.13.37.48.48,0,0,1-.13.36.51.51,0,0,1-.31.11.42.42,0,0,1-.43-.47Z"/><path class="cls-6" d="M82.61,103.49A.39.39,0,0,1,83,103a.48.48,0,0,1,.31.1.44.44,0,0,1,.14.37.44.44,0,0,1-.14.36A.49.49,0,0,1,83,104a.48.48,0,0,1-.3-.11A.47.47,0,0,1,82.61,103.49Z"/><path class="cls-6" d="M104.78,103.49a.4.4,0,0,1,.43-.47.48.48,0,0,1,.31.1.58.58,0,0,1,0,.73.49.49,0,0,1-.31.11.42.42,0,0,1-.43-.47Z"/><path class="cls-6" d="M15.16,116.84a.39.39,0,0,1,.42-.47.48.48,0,0,1,.31.1.48.48,0,0,1-.31.84.43.43,0,0,1-.3-.11A.47.47,0,0,1,15.16,116.84Z"/><path class="cls-6" d="M37.15,116.84a.39.39,0,0,1,.42-.47.48.48,0,0,1,.31.1.48.48,0,0,1-.31.84.43.43,0,0,1-.3-.11A.47.47,0,0,1,37.15,116.84Z"/><path class="cls-6" d="M59.32,116.84a.4.4,0,0,1,.43-.47.5.5,0,0,1,.31.1.47.47,0,0,1,.13.37.48.48,0,0,1-.13.36.45.45,0,0,1-.31.11.4.4,0,0,1-.3-.11A.44.44,0,0,1,59.32,116.84Z"/><path class="cls-6" d="M82.61,116.84a.39.39,0,0,1,.42-.47.48.48,0,0,1,.31.1.44.44,0,0,1,.14.37.44.44,0,0,1-.14.36.44.44,0,0,1-.31.11.43.43,0,0,1-.3-.11A.47.47,0,0,1,82.61,116.84Z"/><path class="cls-6" d="M104.78,116.84a.4.4,0,0,1,.43-.47.48.48,0,0,1,.31.1.48.48,0,0,1-.31.84.4.4,0,0,1-.3-.11A.44.44,0,0,1,104.78,116.84Z"/><path class="cls-6" d="M15.16,129.59a.39.39,0,0,1,.42-.47.48.48,0,0,1,.31.1.48.48,0,0,1-.31.84.43.43,0,0,1-.3-.11A.47.47,0,0,1,15.16,129.59Z"/><path class="cls-6" d="M37.15,129.59a.39.39,0,0,1,.42-.47.48.48,0,0,1,.31.1.48.48,0,0,1-.31.84.43.43,0,0,1-.3-.11A.47.47,0,0,1,37.15,129.59Z"/><path class="cls-6" d="M59.32,129.59a.4.4,0,0,1,.43-.47.5.5,0,0,1,.31.1.47.47,0,0,1,.13.37.48.48,0,0,1-.13.36.45.45,0,0,1-.31.11.4.4,0,0,1-.3-.11A.44.44,0,0,1,59.32,129.59Z"/><path class="cls-6" d="M82.61,129.59a.39.39,0,0,1,.42-.47.48.48,0,0,1,.31.1.44.44,0,0,1,.14.37.44.44,0,0,1-.14.36.44.44,0,0,1-.31.11.43.43,0,0,1-.3-.11A.47.47,0,0,1,82.61,129.59Z"/><path class="cls-6" d="M104.78,129.59a.4.4,0,0,1,.43-.47.48.48,0,0,1,.31.1.48.48,0,0,1-.31.84.4.4,0,0,1-.3-.11A.44.44,0,0,1,104.78,129.59Z"/><path class="cls-6" d="M15.16,144a.39.39,0,0,1,.42-.47.48.48,0,0,1,.31.1.58.58,0,0,1,0,.73.49.49,0,0,1-.31.11.48.48,0,0,1-.3-.11A.47.47,0,0,1,15.16,144Z"/><path class="cls-6" d="M37.15,144a.39.39,0,0,1,.42-.47.48.48,0,0,1,.31.1.58.58,0,0,1,0,.73.49.49,0,0,1-.31.11.48.48,0,0,1-.3-.11A.47.47,0,0,1,37.15,144Z"/><path class="cls-6" d="M59.32,144a.4.4,0,0,1,.43-.47.5.5,0,0,1,.31.1.47.47,0,0,1,.13.37.48.48,0,0,1-.13.36.51.51,0,0,1-.31.11.42.42,0,0,1-.43-.47Z"/><path class="cls-6" d="M82.61,144a.39.39,0,0,1,.42-.47.48.48,0,0,1,.31.1.44.44,0,0,1,.14.37.44.44,0,0,1-.14.36.49.49,0,0,1-.31.11.48.48,0,0,1-.3-.11A.47.47,0,0,1,82.61,144Z"/><path class="cls-6" d="M104.78,144a.4.4,0,0,1,.43-.47.48.48,0,0,1,.31.1.58.58,0,0,1,0,.73.49.49,0,0,1-.31.11.42.42,0,0,1-.43-.47Z"/><path class="cls-6" d="M15.16,156.76a.39.39,0,0,1,.42-.47.48.48,0,0,1,.31.1.58.58,0,0,1,0,.73.49.49,0,0,1-.31.11.48.48,0,0,1-.3-.11A.47.47,0,0,1,15.16,156.76Z"/><path class="cls-6" d="M37.15,156.76a.39.39,0,0,1,.42-.47.48.48,0,0,1,.31.1.58.58,0,0,1,0,.73.49.49,0,0,1-.31.11.48.48,0,0,1-.3-.11A.47.47,0,0,1,37.15,156.76Z"/><path class="cls-6" d="M59.32,156.76a.4.4,0,0,1,.43-.47.5.5,0,0,1,.31.1.47.47,0,0,1,.13.37.48.48,0,0,1-.13.36.51.51,0,0,1-.31.11.42.42,0,0,1-.43-.47Z"/><path class="cls-6" d="M82.61,156.76a.47.47,0,0,1,.12-.37.48.48,0,0,1,.31-.1.45.45,0,0,1,.3.1.44.44,0,0,1,.14.37.44.44,0,0,1-.14.36.46.46,0,0,1-.3.11.49.49,0,0,1-.31-.11A.47.47,0,0,1,82.61,156.76Z"/><path class="cls-6" d="M104.78,156.76a.4.4,0,0,1,.43-.47.48.48,0,0,1,.31.1.58.58,0,0,1,0,.73.49.49,0,0,1-.31.11.42.42,0,0,1-.43-.47Z"/><path class="cls-6" d="M15.16,171.59a.48.48,0,0,1,.12-.37.47.47,0,0,1,.3-.1.48.48,0,0,1,.31.1.45.45,0,0,1,.13.37.43.43,0,0,1-.13.36.44.44,0,0,1-.31.11.43.43,0,0,1-.3-.11A.46.46,0,0,1,15.16,171.59Z"/><path class="cls-6" d="M36.81,171.59a.48.48,0,0,1,.12-.37.47.47,0,0,1,.3-.1.48.48,0,0,1,.31.1.45.45,0,0,1,.13.37.43.43,0,0,1-.13.36.44.44,0,0,1-.31.11.43.43,0,0,1-.3-.11A.46.46,0,0,1,36.81,171.59Z"/><path class="cls-6" d="M59,171.59a.45.45,0,0,1,.13-.37.44.44,0,0,1,.3-.1.5.5,0,0,1,.31.1.49.49,0,0,1,.13.37.46.46,0,0,1-.13.36.45.45,0,0,1-.31.11.4.4,0,0,1-.3-.11A.43.43,0,0,1,59,171.59Z"/><path class="cls-6" d="M82.27,171.59a.48.48,0,0,1,.12-.37.47.47,0,0,1,.3-.1.48.48,0,0,1,.31.1.45.45,0,0,1,.14.37A.43.43,0,0,1,83,172a.44.44,0,0,1-.31.11.43.43,0,0,1-.3-.11A.46.46,0,0,1,82.27,171.59Z"/><path class="cls-6" d="M104.44,171.59a.45.45,0,0,1,.13-.37.44.44,0,0,1,.3-.1.48.48,0,0,1,.31.1.45.45,0,0,1,.13.37.43.43,0,0,1-.13.36.44.44,0,0,1-.31.11.4.4,0,0,1-.3-.11A.43.43,0,0,1,104.44,171.59Z"/><path class="cls-6" d="M15.16,184.34a.48.48,0,0,1,.12-.37.47.47,0,0,1,.3-.1.48.48,0,0,1,.31.1.45.45,0,0,1,.13.37.43.43,0,0,1-.13.36.44.44,0,0,1-.31.11.43.43,0,0,1-.3-.11A.46.46,0,0,1,15.16,184.34Z"/><path class="cls-6" d="M36.81,184.34a.48.48,0,0,1,.12-.37.47.47,0,0,1,.3-.1.48.48,0,0,1,.31.1.45.45,0,0,1,.13.37.43.43,0,0,1-.13.36.44.44,0,0,1-.31.11.43.43,0,0,1-.3-.11A.46.46,0,0,1,36.81,184.34Z"/><path class="cls-6" d="M59,184.34a.45.45,0,0,1,.13-.37.44.44,0,0,1,.3-.1.5.5,0,0,1,.31.1.49.49,0,0,1,.13.37.46.46,0,0,1-.13.36.45.45,0,0,1-.31.11.4.4,0,0,1-.3-.11A.43.43,0,0,1,59,184.34Z"/><path class="cls-6" d="M82.27,184.34a.48.48,0,0,1,.12-.37.47.47,0,0,1,.3-.1.48.48,0,0,1,.31.1.45.45,0,0,1,.14.37.43.43,0,0,1-.14.36.44.44,0,0,1-.31.11.43.43,0,0,1-.3-.11A.46.46,0,0,1,82.27,184.34Z"/><path class="cls-6" d="M104.44,184.34a.45.45,0,0,1,.13-.37.44.44,0,0,1,.3-.1.48.48,0,0,1,.31.1.45.45,0,0,1,.13.37.43.43,0,0,1-.13.36.44.44,0,0,1-.31.11.4.4,0,0,1-.3-.11A.43.43,0,0,1,104.44,184.34Z"/><path class="cls-6" d="M15.16,197.76a.39.39,0,0,1,.42-.47.48.48,0,0,1,.31.1.48.48,0,0,1-.31.84.43.43,0,0,1-.3-.11A.47.47,0,0,1,15.16,197.76Z"/><path class="cls-6" d="M36.81,197.76a.39.39,0,0,1,.42-.47.48.48,0,0,1,.31.1.48.48,0,0,1-.31.84.43.43,0,0,1-.3-.11A.47.47,0,0,1,36.81,197.76Z"/><path class="cls-6" d="M59,197.76a.4.4,0,0,1,.43-.47.5.5,0,0,1,.31.1.47.47,0,0,1,.13.37.48.48,0,0,1-.13.36.45.45,0,0,1-.31.11.4.4,0,0,1-.3-.11A.44.44,0,0,1,59,197.76Z"/><path class="cls-6" d="M82.27,197.76a.39.39,0,0,1,.42-.47.48.48,0,0,1,.31.1.44.44,0,0,1,.14.37.44.44,0,0,1-.14.36.44.44,0,0,1-.31.11.43.43,0,0,1-.3-.11A.47.47,0,0,1,82.27,197.76Z"/><path class="cls-6" d="M104.44,197.76a.4.4,0,0,1,.43-.47.48.48,0,0,1,.31.1.48.48,0,0,1-.31.84.4.4,0,0,1-.3-.11A.44.44,0,0,1,104.44,197.76Z"/><path class="cls-6" d="M183.53,82l-.69-1.77h-2.26L179.9,82h-.73l2.23-5.74h.65L184.27,82Zm-.91-2.41L182,77.83s0-.12-.08-.23-.07-.23-.1-.35l-.09-.27c0,.16-.08.32-.13.48s-.08.28-.12.37l-.64,1.73Z"/><path class="cls-6" d="M250.55,76.26h1.64a3.21,3.21,0,0,1,1.61.32,1.14,1.14,0,0,1,.55,1.09,1.24,1.24,0,0,1-.28.84,1.33,1.33,0,0,1-.8.43v0a2.25,2.25,0,0,1,.65.21,1.19,1.19,0,0,1,.46.43,1.61,1.61,0,0,1-.37,1.92,2.2,2.2,0,0,1-1.45.43h-2Zm.72,2.43h1.06a1.55,1.55,0,0,0,1-.24.84.84,0,0,0,.28-.7.72.72,0,0,0-.33-.67,2.06,2.06,0,0,0-1.06-.21h-.95Zm0,.6v2.07h1.16a1.46,1.46,0,0,0,1-.3,1,1,0,0,0,.3-.77.93.93,0,0,0-.31-.73,1.7,1.7,0,0,0-1.1-.27Z"/><path class="cls-6" d="M236.57,24.36h-.9V17.22h4V18h-3.09v2.53h2.9v.79h-2.9Z"/><path class="cls-6" d="M397.44,20.59h2.47v3.5a8.28,8.28,0,0,1-1.17.28,9,9,0,0,1-1.34.09,3.6,3.6,0,0,1-1.87-.45,2.86,2.86,0,0,1-1.16-1.27,4.52,4.52,0,0,1-.39-1.95,4.11,4.11,0,0,1,.43-1.94,3.07,3.07,0,0,1,1.27-1.28,4.13,4.13,0,0,1,2-.45,5.16,5.16,0,0,1,1.13.11,4.49,4.49,0,0,1,1,.31l-.34.78a7.2,7.2,0,0,0-.86-.29,3.93,3.93,0,0,0-1-.12,2.61,2.61,0,0,0-2,.77,3,3,0,0,0-.71,2.11,3.9,3.9,0,0,0,.27,1.5,2.07,2.07,0,0,0,.87,1,2.85,2.85,0,0,0,1.55.37,6,6,0,0,0,.8-.05l.6-.12V21.39h-1.57Z"/><path class="cls-6" d="M322.38,79h2v2.8a6.14,6.14,0,0,1-.94.23,6.86,6.86,0,0,1-1.07.07,2.92,2.92,0,0,1-1.5-.36,2.26,2.26,0,0,1-.92-1,3.6,3.6,0,0,1-.32-1.57,3.27,3.27,0,0,1,.35-1.54,2.39,2.39,0,0,1,1-1,3.34,3.34,0,0,1,1.6-.36,5.22,5.22,0,0,1,.91.08,4.68,4.68,0,0,1,.8.25l-.27.63a5.58,5.58,0,0,0-.69-.23,2.9,2.9,0,0,0-.79-.1,2.06,2.06,0,0,0-1.59.62,2.37,2.37,0,0,0-.57,1.68,3,3,0,0,0,.22,1.21,1.61,1.61,0,0,0,.69.81,2.28,2.28,0,0,0,1.24.29,4,4,0,0,0,.64,0,3.41,3.41,0,0,0,.48-.09v-1.7h-1.26Z"/><path class="cls-6" d="M390.86,82h-.72V76.26h3.19v.63h-2.47v2h2.32v.64h-2.32Z"/></svg>